SplineFontDB: 3.0
FontName: StickNoBillsSinhala-Bold
FullName: Stick No Bills
FamilyName: Stick No Bills
OS2StyleName: "regular"
Weight: Bold
Copyright: Remove All VKern Pairs
UComments: "2015-2-15: Created with FontForge (http://fontforge.org) The  Free Font Editor"
Version: 1.0
ItalicAngle: 0
UnderlinePosition: 0
UnderlineWidth: 0
Ascent: 819
Descent: 205
InvalidEm: 0
UFOAscent: 819
UFODescent: -205
LayerCount: 4
Layer: 0 0 "Back" 1
Layer: 1 0 "Fore" 0
Layer: 2 0 "Back 2" 1
Layer: 3 0 "Back 3" 1
FSType: 0
OS2Version: 0
OS2_WeightWidthSlopeOnly: 0
OS2_UseTypoMetrics: 0
CreationTime: 1435774564
ModificationTime: 1438609951
PfmFamily: 16
TTFWeight: 400
TTFWidth: 5
LineGap: 0
VLineGap: 0
OS2TypoAscent: 0
OS2TypoAOffset: 1
OS2TypoDescent: 0
OS2TypoDOffset: 1
OS2TypoLinegap: 0
OS2WinAscent: 0
OS2WinAOffset: 1
OS2WinDescent: 0
OS2WinDOffset: 1
HheadAscent: 0
HheadAOffset: 1
HheadDescent: 0
HheadDOffset: 1
OS2CapHeight: 0
OS2XHeight: 0
OS2Vendor: 'PfEd'
OS2UnicodeRanges: 00000002.00000000.00000000.00000000
Lookup: 258 0 0 "kernHorizontalKerninglookup0" { "kernHorizontalKerninglookup0 subtable"  } []
MarkAttachClasses: 1
DEI: 91125
KernClass2: 6 7 "kernHorizontalKerninglookup0 subtable"
 7 uni0041
 31 uni0046 uni0050 uni0054 uni0059
 7 uni004C
 15 uni0056 uni0057
 39 uni0066 uni0072 uni0076 uni0077 uni0079
 15 uni002C uni002E
 15 uni003A uni003B
 7 uni0041
 31 uni0054 uni0056 uni0057 uni0059
 71 uni0061 uni0063 uni0064 uni0065 uni0067 uni006F uni0071 uni0073 uni0075
 23 uni0074 uni0076 uni0077
 0 {} 0 {} 0 {} 0 {} 0 {} 0 {} 0 {} 0 {} 61 {} 45 {} 0 {} -70 {} -23 {} -68 {} 0 {} -80 {} -63 {} -100 {} 16 {} -30 {} -23 {} 0 {} 0 {} 62 {} 0 {} -82 {} 84 {} -77 {} 0 {} -109 {} -75 {} -130 {} 0 {} -55 {} 0 {} 0 {} -41 {} 0 {} 0 {} 0 {} 0 {} 0 {}

StartChar: uni5713
Encoding: 26 22291 0
GlifName: H_K_D_
Width: 843
VWidth: 0
Flags: W
HStem: 488 210<50 92 50 92 50 126 126 169 50 198 198 241 284 284 284 325> 573 41<92 101 92 101 92 117 117 126>
VStem: 50 51<573 614 573 698> 50 42<488 573 488 614 614 698> 117 52<573 614 614 614> 126 43<488 573 573 573 614 698 488 698> 198 43<488 698 488 698> 360 134 464 71 590 71 652 141
LayerCount: 4
Back
Fore
SplineSet
101 614 m 257x62
 101 573 l 257x62
 92 573 l 257x52
 92 488 l 257
 50 488 l 257x92
 50 698 l 257xa2
 92 698 l 257x92
 92 614 l 257x52
 101 614 l 257x62
283 698 m 257x82
 325 698 l 257
 299 611 l 257
 326 488 l 257
 284 488 l 257
 257 611 l 257
 283 698 l 257x82
198 698 m 257
 241 698 l 257
 241 488 l 257
 198 488 l 257
 198 698 l 257
126 698 m 257x86
 169 698 l 257
 169 488 l 257
 126 488 l 257x86
 126 573 l 257x46
 117 573 l 257
 117 614 l 257x4a
 126 614 l 257x46
 126 698 l 257x86
EndSplineSet
Refer: 31 36 N 1 0 0 1 322 0 2
PickledDataWithLists: "(dp1
S'com.fontlab.hintData'
p2
(dp3
S'vhints'
p4
(lp5
(dp6
S'position'
p7
I50
sS'width'
p8
I51
sa(dp9
g7
I50
sg8
I42
sa(dp10
g7
I117
sg8
I52
sa(dp11
g7
I126
sg8
I43
sa(dp12
g7
I198
sg8
I43
sa(dp13
g7
I360
sg8
I134
sa(dp14
g7
I464
sg8
I71
sa(dp15
g7
I590
sg8
I71
sa(dp16
g7
I652
sg8
I141
sasS'hhints'
p17
(lp18
(dp19
g7
I488
sg8
I210
sa(dp20
g7
I573
sg8
I41
sass."
Layer: 2
Layer: 3
EndChar

StartChar: quotedbl.alt
Encoding: 27 -1 1
GlifName: quotedbl.alt
Width: 359
VWidth: 0
Flags: W
HStem: 476 224<26 153 26 153 26 206 206 333>
VStem: 26 127<476 700> 206 127<476 700>
LayerCount: 4
Back
Fore
SplineSet
153 476 m 257
 26 476 l 257
 26 700 l 257
 153 700 l 257
 153 476 l 257
333 476 m 257
 206 476 l 257
 206 700 l 257
 333 700 l 257
 333 476 l 257
EndSplineSet
PickledDataWithLists: "(dp1
S'com.fontlab.hintData'
p2
(dp3
S'vhints'
p4
(lp5
(dp6
S'position'
p7
I26
sS'width'
p8
I127
sa(dp9
g7
I206
sg8
I127
sasS'hhints'
p10
(lp11
(dp12
g7
I476
sg8
I224
sass."
Layer: 2
Layer: 3
EndChar

StartChar: si_A
Encoding: 0 3461 2
GlifName: si_A_
Width: 548
VWidth: 0
Flags: W
HStem: 0 140<198.828 259 444 516> 304 135<201.263 315> 495 121<180.22 321.209>
VStem: 32 143<164.597 278.269> 314 202<0 140 475 486.507> 314 130<-205 0 140 507>
LayerCount: 4
Back
SplineSet
516 475 m 261
 439 455 446 430 445 389 c 262
 444 140 l 261
 516 140 l 261
 516 0 l 261
 444 0 l 261
 444 -205 l 261
 314 -205 l 261
 314 421 l 262
 314 507 362 587 516 617 c 261
 516 475 l 261
175 220 m 261
 175 168 216 136 259 136 c 260
 259 0 l 260
 139 0 33 82 32 222 c 260
 32 348 128 439 259 439 c 262
 315 438 l 261
 315 462 268 491 208 491 c 260
 163 491 114 473 81 440 c 261
 82 568 l 261
 108 592 154 613 233 613 c 260
 330 613 445 568 445 426 c 261
 444 304 l 261
 256 304 l 262
 222 304 175 278 175 220 c 261
EndSplineSet
Fore
SplineSet
516 475 m 257xf8
 439 455 446 430 445 389 c 258
 444 140 l 257xf4
 516 140 l 257
 516 0 l 257xf8
 444 0 l 257
 444 -205 l 257
 314 -205 l 257
 314 421 l 258xf4
 314 507 362 587 516 617 c 257
 516 475 l 257xf8
175 220 m 257
 175 168 216 136 259 136 c 256
 259 0 l 256
 139 0 33 82 32 222 c 256
 32 348 128 439 259 439 c 258
 315 438 l 257
 315 486.506835938 270.653320312 495 256 495 c 256
 214.905273438 495 186.90234375 494.7421875 174 461 c 257
 59 505 l 257
 79 580 164 616 243 616 c 256
 352 616 445 568 445 426 c 257
 444 304 l 257
 256 304 l 258
 222 304 175 278 175 220 c 257
EndSplineSet
Layer: 2
Layer: 3
EndChar

StartChar: si_Ba
Encoding: 13 3510 6
GlifName: si_B_a
Width: 622
VWidth: 0
Flags: HMW
LayerCount: 4
Back
SplineSet
-368.333007812 616.5 m 5
 -368.333007812 755 l 5
 -471.922851562 755 -579 672.125976562 -579 566 c 261
 -442 530 l 261
 -442 595.735351562 -405.698242188 616.5 -368.333007812 616.5 c 5
-310 757 m 260
 -166 756 -36 713 -36 491 c 262
 -36 252 l 262
 -36 68 -69 -7 -213 -7 c 260
 -306 -7 -378 40 -378 138 c 260xbd
 -378 209 -358 222 -358 267 c 260
 -358 293 -375 314 -407 314 c 260
 -456 314 -458 261 -458 223 c 260
 -458 184 -450 138 -409 138 c 261
 -410 0 l 261
 -562 0 -593 127 -593 224 c 260
 -593 338 -536 452 -386 452 c 260
 -322 452 -223 423 -223 290 c 260x7b
 -223 242 -244 202 -244 173 c 260
 -244 147 -233 127 -213 127 c 260xbd
 -176 127 -176 155 -176 222 c 262
 -176 478 l 262
 -176 612 -254 616.5 -310 616.5 c 260
 -310 757 l 260
EndSplineSet
Fore
SplineSet
253.666992188 616.5 m 1
 253.666992188 755 l 1
 150.077148438 755 43 672.125976562 43 566 c 257
 180 530 l 257
 180 595.735351562 216.301757812 616.5 253.666992188 616.5 c 1
310 755 m 256
 454 754 592 713 592 491 c 258
 592 252 l 258
 592 68 551 -7 407 -7 c 256
 314 -7 257 40 257 138 c 256
 257 253 l 256
 257 279 255 314 212 314 c 256
 164 314 162 287 162 243 c 256
 161.916992188 193 l 0
 162 151 180.45703125 140 211 140 c 257
 210 0 l 257
 90.10546875 0 30 55 30 187 c 0
 30 270 l 256
 30 389 103 452 229 452 c 256
 293 452 392 423 392 290 c 256
 392 191 l 256
 392 158 392 140 421 140 c 256
 452 140 452 154 452 191 c 258
 452 478 l 258
 452 612 366 616.5 310 616.5 c 256
 310 755 l 256
EndSplineSet
PickledDataWithLists: "(dp1
S'com.fontlab.hintData'
p2
(dp3
S'vhints'
p4
(lp5
(dp6
S'position'
p7
I236
sS'width'
p8
I142
sa(dp9
g7
I462
sg8
I143
sasS'hhints'
p10
(lp11
(dp12
g7
I-7
sg8
I142
sa(dp13
g7
I310
sg8
I142
sa(dp14
g7
I588
sg8
I142
sass."
Layer: 2
SplineSet
257 8 m 261xbd
 257 251 l 260
 257.030273438 280.508789062 256 314 210 314 c 260
 169 314 162 291 162 251 c 260
 162 202 l 4
 162 166 166.263671875 140 211 140 c 261
 210 0 l 261
 58 0 30 92 30 189 c 260
 30 273 l 4
 30.015625 396.71875 112.911132812 452 229 452 c 260
 293 452 392 423 392 290 c 262x7b
 392 -65 l 5
 257 -65 l 5
 257 8 l 261xbd
EndSplineSet
Layer: 3
EndChar

StartChar: si_Da
Encoding: 10 3503 7
GlifName: si_D_a
Width: 509
VWidth: 0
Flags: HW
LayerCount: 4
Back
Fore
SplineSet
430 402 m 257
 310 402 l 257
 310 435.333007812 296.317382812 454 250 454 c 256
 221.5 454 193 449 193 412 c 257
 84 454 l 257
 84 518.07421875 144.061523438 563 262 563 c 256
 364.7265625 563 430 497.729492188 430 402 c 257
183 -45 m 257
 183 -136.260742188 245.1171875 -204 359 -204 c 256
 450.25 -204 500.25 -139.193359375 519 -106 c 257
 419 -47 l 257
 408.713867188 -70 387 -82 363 -82 c 256
 334.3125 -82 312 -63.1064453125 312 -45 c 257
 183 -45 l 257
172 203 m 256
 172 260.501953125 189.022460938 276 230 276 c 258
 430 276 l 257
 430 402 l 257
 236 402 l 258
 107 402 30 324.071289062 30 200 c 256
 30 86.7529296875 114 -7 223 -7 c 258
 276 -7 l 258
 359.434570312 -7 458.458007812 38.4404296875 478 120 c 257
 371 172 l 257
 354 127 307.604492188 133 248 133 c 256
 202.403320312 133 172 155.033203125 172 203 c 256
EndSplineSet
Layer: 2
SplineSet
472 381 m 5xbc
 472 369.908203125 l 5
 337 370 l 5
 337 381 l 5
 337 432.395507812 309.135742188 442 277 442 c 260
 247.759765625 442 233.209960938 425 233 412 c 261
 128 452 l 261
 128 519 212.32421875 563 272 563 c 260
 309.982421875 563 366.658203125 557.693359375 404 516 c 261
 441.37890625 557.693359375 498.98046875 563 537 563 c 260
 597.217773438 563 681 517 681 452 c 261
 576 412 l 261
 576 426 560 442 532 442 c 260
 503.466796875 442 472 435.053710938 472 381 c 5xbc
EndSplineSet
Layer: 3
EndChar

StartChar: si_Ddha
Encoding: 7 3498 8
GlifName: si_D_dha
Width: 700
VWidth: 0
Flags: HMW
LayerCount: 4
Back
SplineSet
494 -6 m 260xc740
 444 -6 400 7 369 40 c 261
 341 7 296 -6 257 -6 c 260
 129 -6 70 86 69 202 c 261
 210 202 l 261
 210 182 l 262
 210 137 242 125 260 125 c 260
 276 125 309 135 309 179 c 262
 309 251 l 261
 426 251 l 261
 426 186 l 262
 425 138 452 125 482 125 c 260
 501 125 527 143 527 186 c 262
 527 202 l 261
 667 202 l 261
 667 43 592 -6 494 -6 c 260xc740
72 296 m 261xa640
 31 296 l 261
 31 396 l 261
 221 396 l 261
 208 423 185 433 157 433 c 260
 135 433 110 427 83 417 c 261
 83 536 l 261
 110 546 139 550 167 550 c 260
 212 550 254 540 276 529 c 260
 327 502 358 464 358 401 c 262
 358 296 l 261
 233 296 l 262xae40
 209 295 209 289 209 251 c 261
 69 251 l 261xc640
 69 267 70 283 72 296 c 261xa640
527 251 m 261xd6c0
 527 462 l 260
 527 462 l 260
 527 499 513 536 487 566 c 260
 474 581 452 597 415 603 c 261
 415 543 445 498 484 498 c 261
 484 409 l 261
 381 410 325 520 324 619 c 261
 299 622 275 624 249 624 c 261
 248 757 l 261
 436 757 559 739 621 624 c 260
 664 543 669 485 669 380 c 262
 669 251 l 261
 527 251 l 261xd6c0
EndSplineSet
Fore
SplineSet
494 -6 m 256
 444 -6 401 8 370 41 c 257
 342 8 296 -6 257 -6 c 256
 129 -6 70 86 69 202 c 257
 210 202 l 257
 210 182 l 258
 210 137 242 125 260 125 c 256
 276 125 310 136 310 180 c 258
 310 252 l 257
 427 252 l 257
 427 187 l 258
 426 139 452 125 482 125 c 256
 501 125 527 143 527 186 c 258
 527 202 l 257
 667 202 l 257
 667 43 592 -6 494 -6 c 256
72 296 m 257
 31 296 l 257
 31 396 l 257
 221 396 l 257
 208 423 185 433 157 433 c 256
 135 433 110 427 83 417 c 257
 83 536 l 257
 110 546 139 550 167 550 c 256
 212 550 254 540 276 529 c 256
 327 502 358 464 358 401 c 258
 358 296 l 257
 233 296 l 258
 209 295 209 289 209 251 c 257
 69 251 l 257
 69 267 70 283 72 296 c 257
527 251 m 257
 527 462 l 256
 527 462 l 256
 527 499 513 536 487 566 c 256
 474 581 452 597 415 603 c 257
 415 543 445 498 484 498 c 257
 484 409 l 257
 381 410 324 525 324 619 c 256
 324 673.129882812 324 706 324 757 c 257
 451 759 559 739 621 624 c 256
 664 543 669 485 669 380 c 258
 669 251 l 257
 527 251 l 257
EndSplineSet
PickledDataWithLists: "(dp1
S'com.fontlab.hintData'
p2
(dp3
S'vhints'
p4
(lp5
(dp6
S'position'
p7
I54
sS'width'
p8
I141
sa(dp9
g7
I294
sg8
I117
sa(dp10
g7
I309
sg8
I91
sa(dp11
g7
I512
sg8
I142
sasS'hhints'
p12
(lp13
(dp14
g7
I-6
sg8
I131
sa(dp15
g7
I251
sg8
I144
sa(dp16
g7
I296
sg8
I100
sa(dp17
g7
I409
sg8
I89
sa(dp18
g7
I433
sg8
I117
sa(dp19
g7
I624
sg8
I134
sass."
Layer: 2
Layer: 3
EndChar

StartChar: si_Ga
Encoding: 5 3484 9
GlifName: si_G_a
Width: 754
VWidth: 0
Flags: HWO
HStem: -8 143<200.011 250 298 334.701 510 553.634> 420 143<200.516 250 425.893 464 510 555.667>
VStem: 30 140<168.598 389.537> 342 136<140.373 241.147> 580 144<158.699 395.209>
LayerCount: 4
Back
SplineSet
514 -8 m 260
 710 -8 729.103515625 147.999023438 730 304 c 260
 731 478 691 615.5 514 615.5 c 261
 514 473.5 l 261
 590 473.5 584 363 584 304 c 260
 584 260 596 134 514 134 c 261
 514 -8 l 260
417 267 m 5
 416.834960938 377 l 4
 417.55859375 439.047851562 420.942382812 473.5 464 473.5 c 261
 464 616.5 l 261
 319.146484375 616.5 276 503 276 385 c 4
 276 268 l 260
 417 267 l 5
293 268 m 5
 319 268 342 256.482421875 342 206 c 260
 342 169 337 136 298 135 c 260
 298 -8 l 261
 456 -8 478 95 478 212 c 260
 478 408 340 388 293 388 c 261
 293 268 l 5
250 -7 m 260
 84 -7 24.896484375 148.999023438 24 305 c 260
 23 479 88 616.5 250 616.5 c 261
 250 474.5 l 261
 174 474.5 170 364 170 305 c 260
 170 261 175 135 250 135 c 261
 250 -7 l 260
EndSplineSet
Fore
SplineSet
250 -8 m 256
 134 -8 36 64.49609375 36 250.5 c 260
 36 485 73 562 250 562 c 257
 250 436 l 257
 169 436 169 369.714046823 169 326.5 c 260
 169 181.804370049 156.210526316 136 250 136 c 257
 250 -8 l 256
510 -8 m 256
 676 -8 724 64.49609375 724 250.5 c 256
 724 485 687 562 510 562 c 257
 510 420 l 257
 584 420 586 353.714046823 586 310.5 c 256
 586 165.804370049 598 120 510 120 c 257
 510 -8 l 256
417 243.5 m 1
 416.834960938 323.5 l 0
 417.55859375 385.547851562 411.942382812 420 464 420 c 257
 464 563 l 257
 319.146484375 563 276 464.5 276 346.5 c 0
 276 244.5 l 256
 417 243.5 l 1
293 244.5 m 1
 319 244.5 342 242.982421875 342 192.5 c 256
 342 155.5 332 135 298 135 c 256
 298 -8 l 257
 416 -8 478 71.5 478 188.5 c 256
 478 304.5 422 334 417 334 c 257
 293 334 l 1
 293 244.5 l 1
EndSplineSet
PickledDataWithLists: "(dp1
S'com.fontlab.hintData'
p2
(dp3
S'vhints'
p4
(lp5
(dp6
S'position'
p7
I29
sS'width'
p8
I142
sa(dp9
g7
I293
sg8
I142
sa(dp10
g7
I376
sg8
I142
sa(dp11
g7
I634
sg8
I142
sasS'hhints'
p12
(lp13
(dp14
g7
I-7
sg8
I142
sa(dp15
g7
I447
sg8
I142
sass."
Layer: 2
SplineSet
241.456054688 479 m 5xb8
 324.231445312 588 431 578 463 578 c 4
 482 578 l 4
 615.064453125 578 724 476.451171875 724 318 c 4
 724 206 l 4
 724 72.30859375 674.681640625 0 571 0 c 4
 510 0 l 5
 510 120 l 5x78
 514.787109375 119.995117188 l 4
 586 120 586 149.416992188 586 221 c 4
 586 318 l 4
 586 383.165039062 537 440 479.783203125 440.004882812 c 4
 456.783203125 440.004882812 l 4
 401 440 374 437 331 384 c 4
 85.5830078125 58.8623046875 l 5
 9 173 l 5
 241.456054688 479 l 5xb8
357 187 m 6
 357 208 l 260
 357 246.315429688 331.526367188 255.158203125 313 264 c 261
 387 363 l 261
 430.196289062 350.16796875 490.993164062 305.916992188 491.083984375 223 c 4
 491 186 l 262
 490.689483024 49.1992186821 387.883789062 -7.9501953125 260.390625 -7.9501953125 c 4
 66.196289062 -7.9501953125 -17 108 -17 286 c 5
 -17 346 l 261
 111 346 l 261
 111 291 l 5
 111 172 158.8671875 121.478515625 258.026367188 121.478515625 c 4x8e
 309.78515625 121.478515625 357 138.9765625 357 187 c 6
216 395.348632812 m 5
 204.631835938 430.712890625 158.881835938 434 132 434 c 260
 82.443359375 434 54.125 415.735351562 43 411 c 261
 43 544 l 261
 82.361328125 556.954101562 112.5625 563 152 563 c 260x2e
 232.264648438 563 289.352539062 527.670898438 303 508.926757812 c 5
 216 395.348632812 l 5
EndSplineSet
Layer: 3
EndChar

StartChar: si_Ka
Encoding: 4 3482 10
GlifName: si_K_a
Width: 846
VWidth: 0
Flags: HMW
LayerCount: 4
Back
SplineSet
144 436 m 261
 8 436 l 261
 8 460 -9 474 -30 474 c 260
 -54 474 -69 455 -69 436 c 261
 -190 436 l 261
 -191 455 -204 474 -230 474 c 260
 -253 474 -267 454 -267 436 c 261
 -403 436 l 261
 -403 529 -339 588 -240 588 c 260
 -195 588 -157 577 -130 557 c 261
 -99 582 -54 588 -20 588 c 260
 85 588 144 525 144 436 c 261
EndSplineSet
Fore
SplineSet
612 120 m 0
 678 120.004882812 678 149.420898438 678 221 c 0
 678 318 l 2
 678 399.171875 614.045898438 440.017578125 528.783203125 440.004882812 c 0
 496.916992188 440 441.662109375 446 393 384 c 0
 128.583007812 35.8623046875 l 1
 30 119 l 1
 303.456054688 479 l 1xb8
 397.440429688 588 518.666992188 578 555 578 c 0
 574 578 l 0
 707.064453125 578 816 476.451171875 816 318 c 0
 816 206 l 0
 816 72.30859375 766.681640625 0 663 0 c 0
 612 0 l 1
 612 120 l 0
287 395.348632812 m 1
 275.631835938 430.712890625 229.881835938 434 203 434 c 256
 153.443359375 434 125.125 415.735351562 114 411 c 257
 114 544 l 257
 153.361328125 556.954101562 183.5625 563 223 563 c 256x2e
 303.264648438 563 360.352539062 527.670898438 374 508.926757812 c 1
 287 395.348632812 l 1
406 202 m 257x67
 406 162 l 1
 406 144 414.688476562 129 434 129 c 256
 463.852539062 129 467.372070312 144.681640625 467.561523438 164 c 0
 467.592773438 226 l 0
 467.555664062 272.563476562 429.1328125 286.51171875 397 292 c 256
 462 379 l 256
 497.466796875 368.725585938 579 352.186523438 579 229 c 256
 578.763671875 150 l 0
 578.954101562 51.25 529.555664062 -8 458 -8 c 256
 417.754882812 -8 382.106445312 -4.3662109375 361 20 c 257
 340.219726562 -4.32421875 317.6875 -8 284 -8 c 256
 151.05078125 -8 188 74 128.583007812 35.8623046875 c 257
 172 166 l 257
 216 194 227.502929688 130 277 130 c 256
 295.736328125 130 306 144.55859375 306 163 c 1
 306 202 l 257
 406 202 l 257x67
EndSplineSet
Layer: 2
SplineSet
420 187 m 6x8e
 420 208 l 260
 420 246.315429688 394.526367188 255.158203125 376 264 c 261
 450 363 l 261
 493.196289062 350.16796875 553.993164062 305.916992188 554.083984375 223 c 4
 554 186 l 262
 553.689453125 49.19921875 464.297851562 -7.9501953125 353.390625 -7.9501953125 c 4
 197.505859375 -7.9501953125 203.090820312 95 147.583007812 58.8623046875 c 261
 205.666992188 179 l 261
 268.729492188 185.5390625 267.328125 121.478515625 334.026367188 121.478515625 c 4
 378.986328125 121.478515625 420 138.9765625 420 187 c 6x8e
EndSplineSet
Layer: 3
EndChar

StartChar: si_La
Encoding: 17 3517 11
GlifName: si_L_a
Width: 649
VWidth: 0
Flags: W
HStem: -211 146<241.785 298 359 460.048> -20 20G<488.5 538.908> 24 136<390.061 464.841> 229 114<217 253 385 429> 229 94<253 385> 422.5 144<228.451 298 359 430.216>
VStem: 30.333 140.667<12.4952 366.091> 253 132<165.122 323> 473 138<166.841 377.846>
LayerCount: 4
Back
SplineSet
515 0 m 261
 619 -87 l 261
 545 -202 416 -210 359 -211 c 261
 359 -65 l 261
 372 -64 462 -66 515 0 c 261
298 -63 m 261
 298 -210 l 261
 151 -210 -2 -50 -2 200 c 260
 -2 408 65 609 298 609 c 261
 298 465 l 261
 178 453 137 357 137 201 c 260
 137 -7 257 -58 298 -63 c 261
378 252 m 261
 377 213 l 262
 377 184 400 160 430 160 c 260
 483 160 492 212 492 277 c 260
 492 392 454 457 359 465 c 261
 359 609 l 261
 492 609 628 520 628 279 c 260
 628 140 570 24 429 24 c 260
 310 24 246 106 245 204 c 260
 245 219 245 236 245 252 c 261
 187 252 l 261
 187 366 l 261
 459 366 l 261
 459 252 l 261
 378 252 l 261
EndSplineSet
Fore
SplineSet
217 343 m 25xf780
 429 343 l 25
 429 229 l 25
 217 229 l 25
 217 343 l 25xf780
515 0 m 257
 619 -87 l 257
 545 -202 416 -210 359 -211 c 257
 359 -65 l 257
 372 -64 462 -66 515 0 c 257
298 -63 m 257
 298 -210 l 257
 181.415039062 -210 30.3330078125 -110 30.3330078125 101 c 0
 30.3330078125 241 l 256
 30.3330078125 384 65 566.5 298 566.5 c 257
 298 422.5 l 257
 178 410.5 171 346 171 231 c 256
 171 118 l 0
 171 -36 267.624023438 -59.2958984375 298 -63 c 257
385 323 m 257xef80
 385 223 l 258
 385 194 380 160 430 160 c 256
 466 160 473 190 473 223 c 256
 473.1953125 302 l 0
 473 389 424.198242188 417.009765625 359 422.5 c 257
 359 566.5 l 257
 473.34765625 566.5 611 526 611 336 c 0
 611 253 l 256
 611 108 544 24 433 24 c 256
 274 24 253 112 253 174 c 256
 253 189 253 307 253 323 c 257
 385 323 l 257xef80
EndSplineSet
PickledDataWithLists: "(dp1
S'com.fontlab.hintData'
p2
(dp3
S'vhints'
p4
(lp5
(dp6
S'position'
p7
I21
sS'width'
p8
I139
sa(dp9
g7
I268
sg8
I132
sa(dp10
g7
I515
sg8
I136
sasS'hhints'
p11
(lp12
(dp13
g7
I-210
sg8
I146
sa(dp14
g7
I-20
sg8
I20
sa(dp15
g7
I24
sg8
I137
sa(dp16
g7
I252
sg8
I114
sa(dp17
g7
I465
sg8
I143
sass."
Layer: 2
SplineSet
187 365 m 29
 187 251 l 29
 459 251 l 29
 459 365 l 29
 187 365 l 29
515 0 m 257
 619 -87 l 257
 545 -202 416 -210 359 -211 c 257
 359 -65 l 257
 372 -64 462 -66 515 0 c 257
298 -63 m 257
 298 -210 l 257
 181.415039062 -210 10.3330078125 -80 10.3330078125 131 c 0
 10.3330078125 271 l 256
 10.3330078125 414 65 626.5 298 626.5 c 257
 298 482.5 l 257
 178 470.5 151 376 151 261 c 256
 151 148 l 0
 151 -6 267.624023438 -59.2958984375 298 -63 c 257
377 251 m 257
 377 213 l 258
 377 184 402 160 432 160 c 256
 485 160 493 192 493 263 c 256
 493.1953125 322 l 0
 493 439 424.198242188 477.009765625 359 482.5 c 257
 359 626.5 l 257
 473.34765625 626.5 631 546 631 356 c 0
 631 263 l 256
 631 114 574 24 433 24 c 256
 314 24 246 106 245 204 c 256
 245 219 245 235 245 251 c 257
 377 251 l 257
EndSplineSet
Layer: 3
EndChar

StartChar: si_Lla
Encoding: 21 3525 12
GlifName: si_L_la
Width: 785
VWidth: 0
Flags: W
HStem: -207 131<292.087 508.246> 44 126<329.379 491.61> 288 123<233.718 671> 498 114<266.011 334.952 463.609 533.388>
VStem: 44 136<29.8226 128>
LayerCount: 4
Back
Fore
SplineSet
320 550 m 1280,0,-1
529 253 m 257,1,-1
 629 170 l 257,2,-1
 601 96 520 44 421 44 c 256,5,-1
 221 44 170 145 169 230 c 257,8,-1
 279 318 l 257,9,-1
 279 199 343 170 406 170 c 256,12,-1
 473 170 508 186 529 253 c 257,1,-1
671 412 m 257,15,-1
 671 288 l 257,16,-1
 285 288 l 258,17,-1
 196 288 180 128 180 128 c 257,20,-1
 180 -7 273 -76 406 -76 c 256,23,-1
 495 -76 584 -31 633 78 c 257,26,-1
 740 -10 l 257,27,-1
 657 -187 485 -207 427 -207 c 256,30,-1
 190 -207 44 -98 44 126 c 256,33,-1
 44 322 165 411 323 411 c 258,36,-1
 671 412 l 257,15,-1
673 460 m 257,37,-1
 537 460 l 257,38,-1
 537 484 520 498 499 498 c 256,41,-1
 475 498 460 479 460 460 c 257,44,-1
 339 460 l 257,45,-1
 338 479 325 498 299 498 c 256,48,-1
 276 498 262 478 262 460 c 257,51,-1
 126 409 l 257,52,-1
 126 460 l 257,53,-1
 126 553 190 612 289 612 c 256,56,-1
 334 612 372 601 399 581 c 257,59,-1
 430 606 475 612 509 612 c 256,62,-1
 614 612 673 549 673 460 c 257,37,-1
EndSplineSet
Layer: 2
Layer: 3
EndChar

StartChar: si_Ma
Encoding: 14 3512 13
GlifName: si_M_a
Width: 601
VWidth: 0
Flags: HMW
LayerCount: 4
Back
SplineSet
241.666992188 616.5 m 5
 241.666992188 755 l 5
 138.077148438 755 31 672.125976562 31 566 c 261
 168 530 l 261
 168 595.735351562 204.301757812 616.5 241.666992188 616.5 c 5
561 450 m 262
 561 320 l 262
 561 54.4931640625 449.330078125 -4.833984375 297 -5 c 261
 297 140 l 261
 373.625 140 421 193.522460938 421 290 c 262
 421 443 l 262
 421 571 372.95703125 616 297 616 c 261
 297 755 l 261
 396.987304688 755 561 716.96875 561 450 c 262
169 360 m 260
 150 360 153 347 153 319 c 260
 153 266 l 4
 153 183 186 140 241 140 c 261
 241 -6 l 261
 119 -6 20 112 20 252 c 260
 20 299 l 4
 20 394 42.2431640625 499 135 499 c 260
 159.666992188 499 l 4
 253 499 259 430.708984375 259 401 c 260
 259 373 261 361 278 361 c 260
 295 361 295 377 295 401 c 260
 295 499 l 261
 385 499 l 261
 385 380 l 260
 385 300 362 251 276 251 c 260
 216 251 184 293 184 329 c 260
 184 354 178 360 169 360 c 260
EndSplineSet
Fore
SplineSet
260.666992188 616.5 m 1
 260.666992188 755 l 1
 157.077148438 755 50 672.125976562 50 566 c 257
 187 530 l 257
 187 595.735351562 223.301757812 616.5 260.666992188 616.5 c 1
571 470 m 258
 571 310 l 258
 571 44.4931640625 469.330078125 -4.833984375 317 -5 c 257
 317 140 l 257
 393.625 140 431 183.522460938 431 280 c 258
 431 463 l 258
 431 591 392.95703125 616 317 616 c 257
 317 755 l 257
 416.987304688 755 571 736.96875 571 470 c 258
174 345 m 256
 158 345 158 333 158 328 c 256
 158 246 l 0
 158 163 205.666992188 140 260.666992188 140 c 257
 260.666992188 -5 l 257
 138.666992188 -5 30 72 30 212 c 256
 30 339 l 0
 30 414 82.2431640625 474 145 474 c 256
 179.666992188 474 l 0
 258 474 272 425.708984375 272 366 c 256
 272 330 l 0
 272.006835938 321.873046875 273.081054688 311 287 311 c 256
 301 311 303 320 303 328 c 260
 303 469 l 257
 395 469 l 257
 395 355 l 256
 395 275 372 221 286 221 c 256
 244.490234375 221 189 245 189 300.413085938 c 0
 189 328 l 256
 189 341 183 345 174 345 c 256
EndSplineSet
PickledDataWithLists: "(dp1
S'com.fontlab.hintData'
p2
(dp3
S'vhints'
p4
(lp5
(dp6
S'position'
p7
I54
sS'width'
p8
I40
sa(dp9
g7
I201
sg8
I40
sa(dp10
g7
I341
sg8
I40
sa(dp11
g7
I524
sg8
I41
sasS'hhints'
p12
(lp13
(dp14
g7
I0
sg8
I41
sa(dp15
g7
I253
sg8
I40
sa(dp16
g7
I435
sg8
I39
sa(dp17
g7
I712
sg8
I40
sass."
Layer: 2
SplineSet
240.666992188 140 m 261
 240.666992188 -5 l 261
 96.6669921875 -5 30 124 30 221 c 260
 29.9990234375 264.92578125 l 4
 29.9990234375 345.536132812 44.6669921875 474 240.666992188 474 c 261
 240.666992188 336 l 261
 200.666992188 336 168 322 168 262 c 260
 168 222 l 6
 168 178.845703125 189 140 240.666992188 140 c 261
241.666992188 616.5 m 5
 241.666992188 755 l 5
 138.077148438 755 31 672.125976562 31 566 c 261
 168 530 l 261
 168 595.735351562 204.301757812 616.5 241.666992188 616.5 c 5
561 480 m 262
 561 270 l 262
 561 24.4931640625 449.330078125 -4.833984375 297 -5 c 261
 297 140 l 261
 373.625 140 421 153.522460938 421 270 c 262
 421 473 l 262
 421 601 372.95703125 616 297 616 c 261
 297 755 l 261
 396.987304688 755 561 746.96875 561 480 c 262
221 291 m 260
 298 291 295 321 295 385 c 260
 295 474 l 261
 375 474 l 261
 375 365 l 260
 375 270.04296875 346 202 267 202 c 4
 221 202 l 260
 221 291 l 260
EndSplineSet
Layer: 3
EndChar

StartChar: si_MatraAe
Encoding: 22 3536 14
GlifName: si_M_atraA_e
Width: 304
VWidth: 0
Flags: W
HStem: 7 122<273 273> 465 138<35 111 35 269>
LayerCount: 4
Back
Fore
SplineSet
35 603 m 257
 269 603 l 257
 269 471 l 257
 212 399 155 327 155 217 c 256
 155 107 248 121 273 129 c 257
 273 7 l 257
 191 -13 108 13 65 66 c 256
 -22 170 50 380 111 465 c 257
 35 465 l 257
 35 603 l 257
EndSplineSet
PickledDataWithLists: "(dp1
S'com.fontlab.hintData'
p2
(dp3
S'hhints'
p4
(lp5
(dp6
S'position'
p7
I7
sS'width'
p8
I122
sa(dp9
g7
I465
sg8
I138
sass."
Layer: 2
Layer: 3
EndChar

StartChar: si_MatraIi
Encoding: 23 3538 15
GlifName: si_M_atraI_i
Width: -32
VWidth: 0
Flags: W
HStem: 676 104<-178.5 -102.5>
VStem: -391 114<605 625.5 579 679.5> -6 112<609 644>
LayerCount: 4
Back
Fore
SplineSet
105 540 m 256
 -7 540 l 256
 -6 559 -6 596 -6 618 c 256
 -6 670 -65 676 -140 676 c 256
 -217 676 -277 643 -277 608 c 256
 -277 550 -278 540 -278 540 c 257
 -390 540 l 257
 -390 560 -391 592 -391 618 c 256
 -391 741 -270 780 -140 780 c 256
 -16 780 106 753 106 628 c 256
 106 590 106 553 105 540 c 256
EndSplineSet
PickledDataWithLists: "(dp1
S'com.fontlab.hintData'
p2
(dp3
S'vhints'
p4
(lp5
(dp6
S'position'
p7
I-391
sS'width'
p8
I114
sa(dp9
g7
I-6
sg8
I112
sasS'hhints'
p10
(lp11
(dp12
g7
I676
sg8
I104
sass."
Layer: 2
Layer: 3
EndChar

StartChar: si_Na
Encoding: 11 3505 16
GlifName: si_N_a
Width: 801
VWidth: 0
Flags: HW
HStem: -7.9502 129.429<198.527 383.152> 0 120<557 622.82> 434 129<91.4659 261.569> 440.005 137.995<414.591 583.469>
VStem: 30 128<280.044 346> 404 134<143.941 252.296> 633 138<132.221 387.936>
LayerCount: 4
Back
Fore
SplineSet
288.456054688 479 m 5xb8
 371.231445312 588 478 578 510 578 c 4
 529 578 l 4
 662.064453125 578 771 476.451171875 771 318 c 4
 771 206 l 4
 771 72.30859375 721.681640625 0 618 0 c 4
 557 0 l 5
 557 120 l 5x78
 561.787109375 119.995117188 l 4
 633 120 633 149.416992188 633 221 c 4
 633 318 l 4
 633 383.165039062 584 440 526.783203125 440.004882812 c 4
 503.783203125 440.004882812 l 4
 448 440 421 437 378 384 c 4
 132.583007812 58.8623046875 l 5
 56 173 l 5
 288.456054688 479 l 5xb8
404 187 m 6
 404 208 l 260
 404 246.315429688 378.526367188 255.158203125 360 264 c 261
 434 363 l 261
 477.196289062 350.16796875 537.993164062 305.916992188 538.083984375 223 c 4
 538 186 l 262
 537.689483024 49.1992186821 434.883789062 -7.9501953125 307.390625 -7.9501953125 c 4
 113.196289062 -7.9501953125 30 108 30 286 c 5
 30 346 l 261
 158 346 l 261
 158 291 l 5
 158 172 205.8671875 121.478515625 305.026367188 121.478515625 c 4x8e
 356.78515625 121.478515625 404 138.9765625 404 187 c 6
263 395.348632812 m 5
 251.631835938 430.712890625 205.881835938 434 179 434 c 260
 129.443359375 434 101.125 415.735351562 90 411 c 261
 90 544 l 261
 129.361328125 556.954101562 159.5625 563 199 563 c 260x2e
 279.264648438 563 336.352539062 527.670898438 350 508.926757812 c 5
 263 395.348632812 l 5
EndSplineSet
Layer: 2
SplineSet
288.456054688 479 m 5x5e
 354.835035176 578 459.853972256 578 480 578 c 4
 529 578 l 4
 662.064453125 578 771 476.451171875 771 318 c 4
 771 206 l 4
 771 72.30859375 721.681640625 0 618 0 c 4
 557 0 l 5
 557 120 l 5
 561.787109375 119.995117188 l 4
 633 120 633 149.416992188 633 221 c 4
 633 318 l 4
 633 383.165039062 609.386793667 440 516.783203125 440.004882812 c 4
 493.783203125 440.004882812 l 4
 431.969184458 440 402.050169225 437 354.401367188 384 c 4
 108.984375 58.8623046875 l 5
 57 174 l 5
 288.456054688 479 l 5x5e
EndSplineSet
Layer: 3
EndChar

StartChar: si_Nna
Encoding: 8 3499 18
GlifName: si_N_na
Width: 1014
VWidth: 0
Flags: HMW
LayerCount: 4
Back
SplineSet
463 755 m 1
 570 669 l 1
 66 6 l 5
 -36 93 l 5
 463 755 l 1
276 473 m 256
 223.482421875 473 190.248046875 454.41015625 189 404 c 256
 187.732421875 352.813476562 212.185546875 326.379882812 249.969726562 326.379882812 c 0
 270.482421875 326.379882812 292.350585938 334.166015625 311 350 c 257
 311 221 l 257
 286.3125 207.91796875 260.15625 201.958984375 234.25 201.958984375 c 0
 137.377929688 201.958984375 54 285.274414062 54 391 c 256
 54 528 166 605 276 605 c 256
 476.698242188 605 508.075195312 461.18359375 508.075195312 333.452148438 c 0
 508.075195312 319.313476562 508 283.315429688 508 265 c 256
 508 117 456 0 288 0 c 256
 180 0 175 42 130 42 c 256
 98 42 72 1 72 1 c 257xc7c0
 -26 84 l 257
 -26 84 26 177 123 177 c 256
 192 177 211 130 287 130 c 256
 355 130 377 168 377 261 c 256
 377 323 l 0
 377 393.833984375 371.322265625 473 276 473 c 256
706 522 m 257
 727 543 762 563 815 563 c 256
 913.131835938 563 980 512.610351562 980 405 c 258
 981 251 l 257
 841 251 l 257
 841 372 l 258
 841 397 838 420 805 420 c 256
 774.983398438 420 768.20703125 396.998046875 768 372 c 258
 768 251 l 257
 633 251 l 257
 634 350 l 257
 634 404 615.025390625 421 595 421 c 256
 569 421 566 412 562 407 c 257
 502 508 l 257
 506 516 531 563 612 563 c 256
 657 563 687 543 706 522 c 257
840 202 m 257
 980 202 l 257
 979 181 l 256
 979 56 877 -6 760 -6 c 256
 615 -6 542 69 542 164 c 258
 542 202 l 257
 682 202 l 257
 682 187 l 258
 682 141 726 126 759 126 c 256
 794 126 840 136 840 185 c 258
 840 202 l 257
EndSplineSet
Fore
SplineSet
502 819 m 1
 616 729 l 1
 391 433 l 1
 276 521 l 1
 502 819 l 1
278 474 m 256
 225.482421875 474 191 439 191 398 c 256
 191 346.794040631 219.215820312 326 257 326 c 0
 277.512695312 326 297 326 313 326 c 257
 313 202 l 257
 303 202 262.15625 201.958984375 236.25 201.958984375 c 0
 139.377929688 201.958984375 56 275.274414062 56 398 c 256
 56 535 168 606 278 606 c 256
 488.698242188 606 510.075195312 451.18359375 510.075195312 323.452148438 c 0
 510.075195312 309.313476562 510 273.315429688 510 255 c 256
 510 107 445 0 307 0 c 256
 234 0 211 34 166 34 c 256
 122 34 116 0 116 0 c 257
 1 62 l 257
 13.2470703125 99.4677734375 61.7861328125 164.0390625 151 163 c 256
 208.637695312 162.328125 234 133 309 133 c 256
 347 133 379 158 379 251 c 256
 379 343 l 0
 379 403.833984375 373.322265625 474 278 474 c 256
708 522 m 257
 729 543 764 563 817 563 c 256
 915.131835938 563 982 512.610351562 982 405 c 258
 983 251 l 257
 843 251 l 257
 843 372 l 258
 843 397 840 420 807 420 c 256
 776.983398438 420 770.20703125 396.998046875 770 372 c 258
 770 251 l 257
 635 251 l 257
 636 350 l 257
 636 404 617.025390625 421 597 421 c 256
 571 421 568 412 564 407 c 257
 524 532 l 257
 528 538 557 563 614 563 c 256
 659 563 689 543 708 522 c 257
843 202 m 257
 983 202 l 257
 982 181 l 256
 982 56 880 -6 763 -6 c 256
 618 -6 545 69 545 164 c 258
 545 202 l 257
 685 202 l 257
 685 187 l 258
 685 141 729 126 762 126 c 256
 797 126 843 136 843 185 c 258
 843 202 l 257
EndSplineSet
PickledDataWithLists: "(dp1
S'com.fontlab.hintData'
p2
(dp3
S'vhints'
p4
(lp5
(dp6
S'position'
p7
I128
sS'width'
p8
I40
sa(dp9
g7
I579
sg8
I40
sa(dp10
g7
I686
sg8
I38
sa(dp11
g7
I777
sg8
I40
sa(dp12
g7
I1035
sg8
I40
sasS'hhints'
p13
(lp14
(dp15
g7
I0
sg8
I41
sa(dp16
g7
I66
sg8
I40
sa(dp17
g7
I529
sg8
I40
sa(dp18
g7
I537
sg8
I40
sa(dp19
g7
I573
sg8
I40
sass."
Layer: 2
SplineSet
77 25 m 257
 -22 102 l 257
 -22 102 36 197 133 197 c 256
 212 197 251 135 327 135 c 256
 395 135 439 186 439 292 c 256
 439 309 439 347 424 373 c 257
 509 471 l 257
 545 424 564 382 564 296 c 256
 564 128 474 0 328 0 c 256
 220 0 181 66 136 66 c 256
 104 66 77 25 77 25 c 257
746 522 m 257
 767 543 802 563 855 563 c 256
 855 563 856 563 857 562 c 256
 955 562 1020 512 1020 405 c 258
 1021 251 l 257
 881 251 l 257
 881 354 l 258
 881 399 875 420 844 420 c 257
 815 420 809 397 809 352 c 258
 808 251 l 257
 673 251 l 257
 674 350 l 257
 674 404 655 420 635 421 c 256
 606 421 606 410 602 407 c 257
 542 508 l 257
 546 516 571 563 652 563 c 256
 697 563 727 543 746 522 c 257
880 202 m 257
 987 195 l 257
 1019 195 l 256
 1019 70 917 -6 800 -6 c 256
 655 -6 582 69 582 164 c 258
 582 202 l 257
 722 202 l 257
 722 187 l 258
 722 141 766 126 799 126 c 256
 834 126 880 136 880 185 c 258
 880 202 l 257
294 473 m 258
 258 472 220 454 219 404 c 256
 219 325 295 316 348 361 c 257
 348 232 l 257
 231 170 84 257 84 391 c 256
 84 528 185 602 295 602 c 256
 318 602 353 601 379 592 c 257
 522 761 l 257
 621 675 l 257
 396 412 l 257
 373 448 336 473 295 473 c 256
 294 473 294 473 294 473 c 258
EndSplineSet
Layer: 3
EndChar

StartChar: si_Pa
Encoding: 12 3508 19
GlifName: si_P_a
Width: 620
VWidth: 0
Flags: HW
HStem: -12 135<195.74 424.012> 283 119<171.85 244 379 448.174> 378 24<244 379> 450 121<49.1197 229.957 392.27 572.652>
VStem: 30 140<151.819 202 251 277.921> 450 140<153.184 202 251 278.718>
LayerCount: 4
Back
SplineSet
586 422 m 261
 450 422 l 261
 450 446 433 460 412 460 c 260
 388 460 373 441 373 422 c 261
 252 422 l 261
 251 441 238 460 212 460 c 260
 189 460 175 440 175 422 c 261
 39 422 l 261
 39 515 103 574 202 574 c 260
 247 574 285 563 312 543 c 261
 343 568 388 574 422 574 c 260
 527 574 586 511 586 422 c 261
EndSplineSet
Fore
SplineSet
379 389 m 5xbc
 379 377.908203125 l 5
 244 378 l 5
 244 389 l 5
 244 440.395507812 216.136230469 450 184 450 c 260
 154.76 450 140.20952381 433 140 420 c 261
 35 460 l 261
 35 527 119.324324324 571 179 571 c 260
 216.982396176 571 273.657894737 565.693548387 311 524 c 261
 348.379084967 565.693548387 405.979990043 571 444 571 c 260
 504.218181818 571 588 525 588 460 c 261
 483 420 l 261
 483 434 467 450 439 450 c 260
 410.46654212 450 379 443.053896148 379 389 c 5xbc
450 202 m 257
 590 202 l 257
 590 64 507 -12 338 -12 c 256
 285 -12 l 0
 108 -12 30 59.24609375 30 202 c 257
 170 202 l 257
 170 148.80078125 211 123 274 123 c 0
 346 123 l 256
 411 123 450 151 450 202 c 257
422 283 m 258xdc
 205 283 l 258
 171.73828125 283 170.000976562 262.104492188 170 251 c 257
 31 251 l 257
 31 373 97 402 194 402 c 258
 419 402 l 258
 527 402 590 377 590 251 c 257
 451 251 l 257
 451 263 451 283 422 283 c 258xdc
EndSplineSet
Layer: 2
SplineSet
973 478 m 261
 970 478 l 262
 947 478 930 461 930 424 c 262
 930 420 l 261
 825 460 l 261
 825 462 l 262
 825 533 902 590 970 590 c 262
 973 590 l 261
 973 478 l 261
EndSplineSet
Layer: 3
SplineSet
379 389 m 1xbc
 379 377.908203125 l 1
 244 378 l 1
 244 389 l 1
 244 440.395507812 199.41796875 450 148 450 c 256
 127 450 73 446 48 431 c 257
 48 551 l 257
 70 564 113 571 159 571 c 256
 202.737304688 571 268 564 311 509 c 257
 354 564 420.262695312 571 464 571 c 256
 510 571 552 562 574 549 c 257
 574 431 l 257
 539 444 492 447 471 447 c 256
 419.58203125 447 379 440.395507812 379 389 c 1xbc
450 202 m 257
 590 202 l 257
 590 64 507 -12 338 -12 c 256
 285 -12 l 0
 108 -12 30 59.24609375 30 202 c 257
 170 202 l 257
 170 148.80078125 211 123 274 123 c 0
 346 123 l 256
 411 123 450 151 450 202 c 257
422 283 m 258xdc
 205 283 l 258
 171.73828125 283 170.000976562 262.104492188 170 251 c 257
 31 251 l 257
 31 373 97 402 194 402 c 258
 419 402 l 258
 527 402 590 377 590 251 c 257
 451 251 l 257
 451 263 451 283 422 283 c 258xdc
EndSplineSet
EndChar

StartChar: si_Ra
Encoding: 16 3515 20
GlifName: si_R_a
Width: 540
VWidth: 0
Flags: HW
HStem: -6 145<203.78 252 308 364.663>
VStem: 38 140<165.716 511.948> 383 140<155.129 469.209>
LayerCount: 4
Back
SplineSet
299 -5 m 261
 299 126 l 261
 306 126 l 262
 364 126 374 167 374 242 c 262
 374 366 l 262
 374 469 299 477 241 478 c 262
 224 478 l 261
 301 603 l 261
 318 602 l 260
 421 602 504 500 504 366 c 262
 504 250 l 262
 504 69 413 -5 306 -5 c 262
 299 -5 l 261
236 -5 m 262
 140 -5 38 67 38 246 c 262
 38 417 l 262
 38 455 45 515 49 526 c 260
 77 604 158 706 195 769 c 260
 206 789 214 804 215 813 c 262
 216 819 l 261
 359 819 l 261
 359 811 l 262
 358 794 347 770 330 741 c 261
 287 665 175 525 175 474 c 261
 175 440 l 261
 174 233 l 262
 174 165 196 126 236 126 c 262
 244 126 l 261
 244 -5 l 261
 236 -5 l 262
EndSplineSet
Fore
SplineSet
308 -5 m 257
 308 139 l 257
 368.5859375 139 383 165.590820312 383 234 c 258
 383 375 l 258
 383 478 369 482 278 482 c 258
 248 482 l 257
 340 616 l 257
 372 616 l 256
 473 616 523 551 523 398 c 258
 523 235 l 258
 523 42.8447265625 420.532226562 -5 308 -5 c 257
38 236 m 258
 38 427 l 258
 38 465 38 530 82 595 c 256
 279 852 l 257
 388 768 l 257
 230 559 l 256
 188 498 178 477 178 450 c 256
 178 244 l 258
 178 171.262695312 205.61328125 139 252 139 c 257
 252 -6 l 257
 149.578125 -6 38 52.1748046875 38 236 c 258
EndSplineSet
Layer: 2
SplineSet
251.666992188 615.5 m 5
 251.666992188 754 l 5
 148.077148438 754 41 671.125976562 41 565 c 261
 178 529 l 261
 178 594.735351562 214.301757812 615.5 251.666992188 615.5 c 5
308 615 m 261
 308 754 l 261
 467.408203125 754 539 672 539 519 c 4
 539 236 l 260
 539 137 504 -6 308 -6 c 261
 308 139 l 261
 377 139 399 188 399 241 c 260
 399 507 l 4
 399 602 357.5546875 615 308 615 c 261
251.666992188 139 m 261
 251.666992188 -6 l 261
 107.666992188 -6 41 123 41 220 c 260
 40.9990234375 263.92578125 l 4
 40.9990234375 344.536132812 55.6669921875 473 251.666992188 473 c 261
 251.666992188 335 l 261
 211.666992188 335 179 321 179 261 c 260
 179 221 l 6
 179 183.845703125 200 139 251.666992188 139 c 261
EndSplineSet
Layer: 3
EndChar

StartChar: si_Sa
Encoding: 20 3523 21
GlifName: si_S_a
Width: 688
VWidth: 0
Flags: HMW
LayerCount: 4
Back
SplineSet
635 422 m 261
 499 422 l 261
 499 446 482 460 461 460 c 260
 437 460 422 441 422 422 c 261
 422 391 l 5
 301 391 l 5
 301 422 l 261
 300 441 287 460 261 460 c 260
 238 460 224 440 224 422 c 261
 88 422 l 261
 88 515 152 574 251 574 c 260
 296 574 334 563 361 543 c 261
 392 568 437 574 471 574 c 260
 576 574 635 511 635 422 c 261
EndSplineSet
Fore
SplineSet
419 389 m 1xbc
 419 377.908203125 l 1
 284 378 l 1
 284 389 l 1
 284 440.395507812 256.136230469 450 224 450 c 256
 194.76 450 180.20952381 433 180 420 c 257
 75 460 l 257
 75 527 159.324324324 571 219 571 c 256
 256.982396176 571 313.657894737 565.693548387 351 524 c 257
 388.379084967 565.693548387 445.979990043 571 484 571 c 256
 544.218181818 571 628 525 628 460 c 257
 523 420 l 257
 523 434 507 450 479 450 c 256
 450.46654212 450 419 443.053896148 419 389 c 1xbc
72 283 m 257
 31 283 l 257
 31 402 l 257
 524 402 l 258
 578.26171875 402 658 391.936523438 658 279 c 2
 658 251 l 257
 519 251 l 257
 519 266 510 283 482 283 c 258
 247 283 l 258
 214 283 207 263 207 251 c 257
 68 251 l 257
 68.28125 256.169921875 69 281 72 283 c 257
488 -8 m 256
 437 -8 393 7 364 37 c 257
 334 4 295 -8 252 -8 c 256
 143.126953125 -8 68 64 68 160 c 0
 68 202 l 257
 207 202 l 257
 207 189 l 258
 207 136 227 123 255 123 c 256
 280 123 300 135 301 186 c 257
 301 202 l 257
 423 202 l 257
 423 188 l 257
 424 139 440 123 472 123 c 256
 503 123 519 142 519 189 c 258
 519 202 l 257
 658 202 l 257
 658 155 l 0
 658 58 575.205078125 -8 488 -8 c 256
EndSplineSet
PickledDataWithLists: "(dp1
S'com.fontlab.hintData'
p2
(dp3
S'vhints'
p4
(lp5
(dp6
S'position'
p7
I63
sS'width'
p8
I139
sa(dp9
g7
I316
sg8
I123
sa(dp10
g7
I554
sg8
I139
sasS'hhints'
p11
(lp12
(dp13
g7
I-6
sg8
I132
sa(dp14
g7
I251
sg8
I163
sa(dp15
g7
I295
sg8
I119
sa(dp16
g7
I498
sg8
I113
sass."
Layer: 2
SplineSet
351 366 m 262
 351 399 351.822265625 443.200195312 363 468 c 260
 404.631835938 560.3671875 521.7890625 584.802734375 656 552 c 261
 656 422 l 261
 582.7265625 458.078125 494 448.916015625 494 402 c 261
 537 402 l 262
 645 402 678 339 678 269 c 262
 678 251 l 261
 538 251 l 261
 538 254 l 262
 538 268 536 283 495 283 c 262
 351 283 l 261
 351 366 l 262
EndSplineSet
Layer: 3
SplineSet
429 389 m 5
 429 377.908203125 l 5
 294 378 l 5
 294 389 l 5
 294 440.395507812 239.41796875 450 188 450 c 260
 167 450 114 446 89 431 c 261
 89 551 l 261
 111 564 153 571 199 571 c 260
 242.737304688 571 318 564 361 509 c 261
 404 564 480.262695312 571 524 571 c 260
 570 571 612 562 634 549 c 261
 634 431 l 261
 599 444 552 447 531 447 c 260
 479.58203125 447 429 440.395507812 429 389 c 5
72 283 m 257
 31 283 l 257
 31 402 l 257
 524 402 l 258
 578.26171875 402 658 391.936523438 658 279 c 2
 658 251 l 257
 519 251 l 257
 519 266 510 283 482 283 c 258
 247 283 l 258
 214 283 207 263 207 251 c 257
 68 251 l 257
 68.28125 256.169921875 69 281 72 283 c 257
488 -8 m 256
 437 -8 393 7 364 37 c 257
 334 4 295 -8 252 -8 c 256
 143.126953125 -8 68 64 68 160 c 0
 68 202 l 257
 207 202 l 257
 207 189 l 258
 207 136 227 123 255 123 c 256
 280 123 300 135 301 186 c 257
 301 202 l 257
 423 202 l 257
 423 188 l 257
 424 139 440 123 472 123 c 256
 503 123 519 142 519 189 c 258
 519 202 l 257
 658 202 l 257
 658 155 l 0
 658 58 575.205078125 -8 488 -8 c 256
EndSplineSet
EndChar

StartChar: si_Ssa
Encoding: 19 3522 22
GlifName: si_S_sa
Width: 673
VWidth: 0
Flags: W
HStem: -6 131 296 118<228 232 232 250> 486 124<228 260>
VStem: 49 130<181.5 226 181.5 287> 267 109<155 164 164 164 164 185.5> 532 120
LayerCount: 4
Back
Fore
SplineSet
618 452 m 258
 618 442 l 257
 497 442 l 257
 497 452 l 258
 497 480 490 487 455 487 c 256
 419 487 416 471 415 451 c 258
 415 441 l 257
 288 441 l 257
 288 451 l 258
 287 476 274 486 246 486 c 256
 210 486 206 466 206 452 c 258
 206 442 l 257
 79 442 l 257
 79 452 l 258
 79 547 151 610 246 610 c 256
 289 610 324 598 349 578 c 257
 379 599 414 610 455 610 c 256
 558 610 618 541 618 452 c 258
651 220 m 256
 651 82 506 -6 359 -6 c 256
 149 -7 49 80 49 225 c 256
 49 349 158 414 228 414 c 258
 349 414 l 257
 250 296 l 257
 232 296 l 258
 217 296 180 291 179 226 c 256
 179 137 274 124 363 124 c 256
 428 124 528 149 532 219 c 256
 534 264 526 298 454 301 c 257
 403 243 l 257
 376 205 377 189 376 164 c 256
 377 157 l 257
 267 155 l 257
 267 163 l 258
 267 208 281 251 311 288 c 258
 420 414 l 257
 424 413 l 256
 620 401 651 311 651 220 c 256
EndSplineSet
PickledDataWithLists: "(dp1
S'com.fontlab.hintData'
p2
(dp3
S'vhints'
p4
(lp5
(dp6
S'position'
p7
I49
sS'width'
p8
I130
sa(dp9
g7
I267
sg8
I109
sa(dp10
g7
I532
sg8
I120
sasS'hhints'
p11
(lp12
(dp13
g7
I-6
sg8
I131
sa(dp14
g7
I296
sg8
I118
sa(dp15
g7
I486
sg8
I124
sass."
Layer: 2
Layer: 3
EndChar

StartChar: si_Ta
Encoding: 9 3501 23
GlifName: si_T_a
Width: 801
VWidth: 0
Flags: HW
HStem: -15 137.995<268.642 385.494> -5 119.792<557 627.188> 468.005 131.995<435.041 577.603>
VStem: 404 130<143.714 260.928> 633 138<127.344 409.936>
LayerCount: 4
Back
Fore
SplineSet
262 395.348632812 m 1
 250.631835938 430.712890625 204.881835938 434 178 434 c 256
 128.443359375 434 100.125 415.735351562 89 411 c 257
 89 544 l 257
 128.361328125 556.954101562 158.5625 563 198 563 c 256x2e
 278.264648438 563 335.352539062 527.670898438 349 508.926757812 c 1
 262 395.348632812 l 1
405 187 m 2x8e
 405 208 l 256
 405 246.315429688 379.526367188 255.158203125 361 264 c 257
 435 363 l 257
 478.196289062 350.16796875 538.993164062 305.916992188 539.083984375 223 c 0
 539 186 l 258
 538.689453125 49.19921875 449.297851562 -7.9501953125 338.390625 -7.9501953125 c 0
 182.505859375 -7.9501953125 188.090820312 95 132.583007812 58.8623046875 c 257
 190.666992188 179 l 257
 253.729492188 185.5390625 252.328125 121.478515625 319.026367188 121.478515625 c 0
 363.986328125 121.478515625 405 138.9765625 405 187 c 2x8e
288.456054688 479 m 5xb8
 371.231445312 588 478 578 510 578 c 4
 529 578 l 4
 662.064453125 578 771 476.451171875 771 318 c 4
 771 206 l 4
 771 72.30859375 721.681640625 0 618 0 c 4
 557 0 l 5
 557 120 l 5x78
 561.787109375 119.995117188 l 4
 633 120 633 149.416992188 633 221 c 4
 633 318 l 4
 633 383.165039062 584 440 526.783203125 440.004882812 c 4
 503.783203125 440.004882812 l 4
 448 440 421 437 378 384 c 4
 132.583007812 58.8623046875 l 5
 30.1376953125 138.346679688 l 5
 288.456054688 479 l 5xb8
EndSplineSet
PickledDataWithLists: "(dp1
S'com.fontlab.hintData'
p2
(dp3
S'vhints'
p4
(lp5
(dp6
S'position'
p7
I355
sS'width'
p8
I120
sa(dp9
g7
I584
sg8
I124
sasS'hhints'
p10
(lp11
(dp12
g7
I0
sg8
I118
sa(dp13
g7
I0
sg8
I110
sa(dp14
g7
I473
sg8
I122
sass."
Layer: 2
Layer: 3
EndChar

StartChar: si_Tta
Encoding: 6 3495 24
GlifName: si_T_ta
Width: 558
VWidth: 0
Flags: HW
HStem: -5 145<190.271 240.667 297 355.699> 616.5 138.5<187.506 240.667 297 359.086>
VStem: 30 138<164.124 318.493 566 595.186> 388 140<167.672 592.543>
LayerCount: 4
Back
SplineSet
242 759 m 261
 242 620 l 261
 205 615 163 607 137 551 c 261
 36 636 l 261
 73 707 140 758 242 759 c 261
297 620 m 261
 297 759 l 261
 513 758 546 551 546 371 c 260
 546 162 494 -1 298 -1 c 261
 298 144 l 261
 386 145 402 243 402 366 c 260
 402 522 382 611 297 620 c 261
242 144 m 261
 242 -2 l 261
 98 -2 20 128 20 255 c 260
 20 380 90 502 242 503 c 261
 242 356 l 261
 202 350 158 323 158 252 c 260
 158 197 192 145 242 144 c 261
EndSplineSet
Fore
SplineSet
240.666992188 616.5 m 1
 240.666992188 755 l 1
 137.077148438 755 30 672.125976562 30 566 c 257
 167 530 l 257
 167 595.735351562 203.301757812 616.5 240.666992188 616.5 c 1
297 616 m 257
 297 755 l 257
 456.408203125 755 528 673 528 520 c 0
 528 237 l 256
 528 138 493 -5 297 -5 c 257
 297 140 l 257
 366 140 388 189 388 242 c 256
 388 508 l 0
 388 603 346.5546875 616 297 616 c 257
240.666992188 140 m 257
 240.666992188 -5 l 257
 96.6669921875 -5 30 124 30 221 c 256
 29.9990234375 264.92578125 l 0
 29.9990234375 345.536132812 44.6669921875 474 240.666992188 474 c 257
 240.666992188 336 l 257
 200.666992188 336 168 322 168 262 c 256
 168 222 l 2
 168 184.845703125 189 140 240.666992188 140 c 257
EndSplineSet
PickledDataWithLists: "(dp1
S'com.fontlab.hintData'
p2
(dp3
S'vhints'
p4
(lp5
(dp6
S'position'
p7
I73
sS'width'
p8
I40
sa(dp9
g7
I524
sg8
I41
sasS'hhints'
p10
(lp11
(dp12
g7
I0
sg8
I40
sa(dp13
g7
I434
sg8
I40
sa(dp14
g7
I712
sg8
I40
sass."
Layer: 2
Layer: 3
EndChar

StartChar: si_Va
Encoding: 18 3520 25
GlifName: si_V_a
Width: 558
VWidth: 0
Flags: HMW
LayerCount: 4
Back
Fore
SplineSet
240.666992188 616.5 m 5
 240.666992188 755 l 5
 137.077148438 755 30 672.125976562 30 566 c 261
 167 530 l 261
 167 595.735351562 203.301757812 616.5 240.666992188 616.5 c 5
241 140 m 261
 241 -5 l 261
 117.130859375 -5 33 87.232421875 33 192 c 260
 33 241 35 290 91 333 c 260
 123 357 158 369 209 369 c 261
 209 387.973632812 175.794921875 399.184570312 137.34375 399.184570312 c 4
 106.890625 399.184570312 73.146484375 391.034179688 50 382 c 261
 50 492 l 261
 77.0361328125 501.293945312 112.129882812 506.6484375 147.934570312 506.6484375 c 4
 196.887695312 506.6484375 247.168945312 496.638671875 280 473 c 260
 307 454 327 416 327 349 c 262
 327 252 l 261
 230 252 l 262
 200 252 171 242 171 195 c 260
 171 168.215820312 191.7265625 140 241 140 c 261
528 520 m 262
 528 250 l 262
 528 78.4931640625 449.330078125 -4.833984375 297 -5 c 261
 297 140 l 261
 337.625 140 388 153.522460938 388 250 c 262
 388 498 l 262
 388 577 371.95703125 616 297 616 c 261
 297 755 l 261
 428.987304688 755 528 699.96875 528 520 c 262
EndSplineSet
PickledDataWithLists: "(dp1
S'com.fontlab.hintData'
p2
(dp3
S'vhints'
p4
(lp5
(dp6
S'position'
p7
I18
sS'width'
p8
I127
sa(dp9
g7
I398
sg8
I134
sasS'hhints'
p10
(lp11
(dp12
g7
I-4
sg8
I132
sa(dp13
g7
I629
sg8
I131
sass."
Layer: 2
SplineSet
240.666992188 616.5 m 5
 240.666992188 755 l 5
 137.077148438 755 30 672.125976562 30 566 c 261
 167 530 l 261
 167 595.735351562 203.301757812 616.5 240.666992188 616.5 c 5
297 616 m 257
 297 755 l 257
 456.408203125 755 528 673 528 520 c 0
 528 237 l 256
 528 138 493 -5 297 -5 c 257
 297 140 l 257
 366 140 388 189 388 242 c 256
 388 508 l 0
 388 603 346.5546875 616 297 616 c 257
240.666992188 140 m 257
 240.666992188 -5 l 257
 96.6669921875 -5 30 124 30 221 c 256
 29.9990234375 264.92578125 l 0
 29.9990234375 345.536132812 44.6669921875 474 240.666992188 474 c 257
 240.666992188 336 l 257
 200.666992188 336 168 322 168 262 c 256
 168 222 l 2
 168 184.845703125 189 140 240.666992188 140 c 257
EndSplineSet
Layer: 3
SplineSet
240.666992188 616.5 m 5
 240.666992188 755 l 5
 137.077148438 755 30 672.125976562 30 566 c 261
 167 530 l 261
 167 595.735351562 203.301757812 616.5 240.666992188 616.5 c 5
241 140 m 261
 241 -5 l 261
 117.130859375 -5 33 87.232421875 33 192 c 260
 33 241 35 290 91 333 c 260
 123 357 158 369 209 369 c 261
 209 387.973632812 175.794921875 399.184570312 137.34375 399.184570312 c 4
 106.890625 399.184570312 73.146484375 391.034179688 50 382 c 261
 50 492 l 261
 77.0361328125 501.293945312 112.129882812 506.6484375 147.934570312 506.6484375 c 4
 196.887695312 506.6484375 247.168945312 496.638671875 280 473 c 260
 307 454 327 416 327 349 c 262
 327 252 l 261
 230 252 l 262
 200 252 171 242 171 195 c 260
 171 168.215820312 191.7265625 140 241 140 c 261
528 520 m 262
 528 250 l 262
 528 78.4931640625 449.330078125 -4.833984375 297 -5 c 261
 297 140 l 261
 337.625 140 388 153.522460938 388 250 c 262
 388 498 l 262
 388 577 371.95703125 616 297 616 c 261
 297 755 l 261
 428.987304688 755 528 699.96875 528 520 c 262
EndSplineSet
EndChar

StartChar: si_Ya
Encoding: 15 3514 26
GlifName: si_Y_a
Width: 691
VWidth: 0
Flags: HMW
LayerCount: 4
Back
Fore
SplineSet
428 -8 m 256
 377 -8 354 7 325 37 c 257
 295 4 266 -8 223 -8 c 256
 92 -8 29 79 29 202 c 257
 168 202 l 257
 168 189 l 258
 168 147 188 132 213 132 c 256
 236 132 262 141 262 186 c 257
 262 202 l 257
 385 202 l 257
 385 188 l 257
 385 145 404 132 432 132 c 256
 457 132 478 142 478 189 c 258
 478 202 l 257
 617 202 l 257
 617 51 530 -8 428 -8 c 256
291 366 m 262
 291 399 291.822004978 443.199749451 303 468 c 260
 344.631835938 560.3671875 461.7890625 584.802734375 596 552 c 261
 596 422 l 261
 522.7265625 458.078125 434 448.916015625 434 402 c 261
 477 402 l 262
 585 402 618 339 618 269 c 262
 618 251 l 261
 478 251 l 261
 478 254 l 262
 478 268 476 283 435 283 c 262
 291 283 l 261
 291 366 l 262
264 433 m 257
 244 433 l 258
 223 433 181 417 169 349 c 256
 168 339 168 314 168 277 c 258
 168 251 l 257
 29 251 l 257
 29 290 l 258
 29 369 40.1825241623 433.865302315 60 461 c 256
 125 550 206 563 247 563 c 258
 264 563 l 257
 264 433 l 257
EndSplineSet
PickledDataWithLists: "(dp1
S'com.fontlab.hintData'
p2
(dp3
S'vhints'
p4
(lp5
(dp6
S'position'
p7
I42
sS'width'
p8
I129
sa(dp9
g7
I279
sg8
I115
sa(dp10
g7
I505
sg8
I124
sasS'hhints'
p11
(lp12
(dp13
g7
I-11
sg8
I129
sa(dp14
g7
I251
sg8
I159
sa(dp15
g7
I297
sg8
I113
sa(dp16
g7
I481
sg8
I122
sass."
Layer: 2
Layer: 3
EndChar

StartChar: uni0021
Encoding: 28 33 28
GlifName: uni0021
Width: 329
VWidth: 0
Flags: W
LayerCount: 4
Back
Fore
SplineSet
88 53 m 256
 88 95 121 129 163 129 c 256
 205 129 238 95 238 53 c 256
 238 11 205 -22 163 -22 c 256
 121 -22 88 11 88 53 c 256
100 166 m 257
 100 700 l 257
 229 700 l 257
 229 166 l 257
 100 166 l 257
EndSplineSet
Layer: 2
Layer: 3
EndChar

StartChar: uni0022
Encoding: 29 34 29
GlifName: uni0022
Width: 407
VWidth: 0
Flags: W
LayerCount: 4
Back
Fore
SplineSet
177 465 m 257
 50 465 l 257
 50 736 l 257
 177 736 l 257
 177 465 l 257
357 465 m 257
 230 465 l 257
 230 736 l 257
 357 736 l 257
 357 465 l 257
EndSplineSet
Layer: 2
Layer: 3
EndChar

StartChar: uni0023
Encoding: 30 35 30
GlifName: uni0023
Width: 888
VWidth: 0
Flags: W
HStem: 176 121<126 241 101 263 126 362 126 383 126 467> 404 121<157 281 135 303 157 402 157 507>
LayerCount: 4
Back
Fore
SplineSet
335 22 m 257
 214 22 l 257
 241 176 l 257
 101 176 l 257
 126 297 l 257
 263 297 l 257
 281 404 l 257
 135 404 l 257
 157 525 l 257
 303 525 l 257
 330 682 l 257
 451 682 l 257
 423 524 l 257
 529 524 l 257
 556 682 l 257
 677 682 l 257
 649 524 l 257
 787 524 l 257
 768 403 l 257
 628 404 l 257
 609 296 l 257
 752 296 l 257
 734 175 l 257
 588 176 l 257
 561 22 l 257
 441 22 l 257
 467 176 l 257
 362 176 l 257
 335 22 l 257
507 404 m 257
 402 404 l 257
 383 297 l 257
 489 296 l 257
 507 404 l 257
EndSplineSet
PickledDataWithLists: "(dp1
S'com.fontlab.hintData'
p2
(dp3
S'hhints'
p4
(lp5
(dp6
S'position'
p7
I176
sS'width'
p8
I121
sa(dp9
g7
I404
sg8
I121
sass."
Layer: 2
Layer: 3
EndChar

StartChar: uni0024
Encoding: 31 36 31
GlifName: uni0024
Width: 501
VWidth: 0
Flags: W
VStem: 38 134<499.5 525 499.5 553.5> 142 71<-47 13 13 13 679 750> 268 71<-47 -3 -3 12 -47 127 682 750> 330 141<176.5 222>
LayerCount: 4
Back
Fore
SplineSet
268 428 m 257x20
 294 418 320 407 343 394 c 256
 404 358 471 311 471 209 c 256x10
 471 122 414 44 339 12 c 257
 339 -47 l 257
 268 -47 l 257
 268 -3 l 256
 268 127 l 257x20
 292 130 330 150 330 203 c 256x10
 330 241 303 263 268 280 c 257
 268 428 l 257x20
213 750 m 257x40
 213 568 l 257x40
 192 562 172 537 172 513 c 256x80
 172 486 189 469 213 454 c 257
 213 302 l 257x40
 194 309 176 316 161 323 c 256
 90 357 38 403 38 508 c 256x80
 38 599 91 652 142 679 c 257
 142 750 l 257
 213 750 l 257x40
339 682 m 257x20
 402 649 438 580 443 553 c 257
 313 510 l 257
 308 557 268 568 268 568 c 257
 268 750 l 257
 339 750 l 257
 339 682 l 257x20
213 -47 m 257x40
 142 -47 l 257
 142 13 l 257
 73 45 31 116 30 158 c 257
 157 203 l 257
 159 147 213 127 213 127 c 257
 213 -47 l 257x40
EndSplineSet
PickledDataWithLists: "(dp1
S'com.fontlab.hintData'
p2
(dp3
S'vhints'
p4
(lp5
(dp6
S'position'
p7
I38
sS'width'
p8
I134
sa(dp9
g7
I142
sg8
I71
sa(dp10
g7
I268
sg8
I71
sa(dp11
g7
I330
sg8
I141
sass."
Layer: 2
Layer: 3
EndChar

StartChar: uni0025
Encoding: 32 37 32
GlifName: uni0025
Width: 629
VWidth: 0
Flags: W
HStem: 9 216<465 525> 467 216<104 164>
VStem: 26 216<545 605> 387 216<87 147>
LayerCount: 4
Back
Fore
SplineSet
160 -23 m 257
 335 716 l 257
 461 716 l 257
 287 -23 l 257
 160 -23 l 257
26 575 m 256
 26 635 74 683 134 683 c 256
 194 683 242 635 242 575 c 256
 242 515 194 467 134 467 c 256
 74 467 26 515 26 575 c 256
387 117 m 256
 387 177 435 225 495 225 c 256
 555 225 603 177 603 117 c 256
 603 57 555 9 495 9 c 256
 435 9 387 57 387 117 c 256
EndSplineSet
PickledDataWithLists: "(dp1
S'com.fontlab.hintData'
p2
(dp3
S'vhints'
p4
(lp5
(dp6
S'position'
p7
I26
sS'width'
p8
I216
sa(dp9
g7
I387
sg8
I216
sasS'hhints'
p10
(lp11
(dp12
g7
I9
sg8
I216
sa(dp13
g7
I467
sg8
I216
sass."
Layer: 2
Layer: 3
EndChar

StartChar: uni0026
Encoding: 33 38 33
GlifName: uni0026
Width: 687
VWidth: 0
Flags: W
HStem: 682 20<257 257>
VStem: 26 157<182 227.5 182 260> 94 137<518.5 552.5 518.5 574.5> 344 133<518.5 545>
LayerCount: 4
Back
Fore
SplineSet
257 578 m 257xb0
 257 578 231 569 231 536 c 256xb0
 231 501 251 495 257 489 c 257
 257 269 l 257
 233 297 l 257
 208 275 183 251 183 204 c 256
 183 160 210 135 257 135 c 257
 257 3 l 257
 107 3 26 93 26 214 c 256xd0
 26 306 81 370 151 404 c 257
 124 424 94 486 94 528 c 256
 94 621 153 681 257 702 c 257
 257 578 l 257xb0
317 700 m 257
 424 681 477 618 477 520 c 256
 477 445 417 383 363 361 c 257
 431 280 l 257
 443 299 451 320 455 345 c 257
 594 345 l 257
 584 274 559 227 520 180 c 257
 661 16 l 257
 464 16 l 257
 417 72 l 257
 393 50 352 26 317 16 c 257
 317 168 l 257
 324 173 325 174 332 180 c 257
 317 198 l 257
 317 486 l 257
 328 495 344 504 344 533 c 256
 344 557 340 570 317 582 c 257
 317 700 l 257
EndSplineSet
PickledDataWithLists: "(dp1
S'com.fontlab.hintData'
p2
(dp3
S'vhints'
p4
(lp5
(dp6
S'position'
p7
I26
sS'width'
p8
I157
sa(dp9
g7
I94
sg8
I137
sa(dp10
g7
I344
sg8
I133
sasS'hhints'
p11
(lp12
(dp13
g7
I682
sg8
I20
sass."
Layer: 2
Layer: 3
EndChar

StartChar: uni0027
Encoding: 34 39 34
GlifName: uni0027
Width: 227
VWidth: 0
Flags: W
LayerCount: 4
Back
Fore
SplineSet
177 465 m 257
 50 465 l 257
 50 736 l 257
 177 736 l 257
 177 465 l 257
EndSplineSet
Layer: 2
Layer: 3
EndChar

StartChar: uni0028
Encoding: 35 40 35
GlifName: uni0028
Width: 262
VWidth: 0
Flags: W
LayerCount: 4
Back
Fore
SplineSet
212 735 m 257
 213 648 l 257
 174 625 154 593 153 521 c 258
 153 208 l 258
 153 206 153 204 153 202 c 256
 153 104 178 73 213 51 c 257
 213 -37 l 257
 71 22 50 93 50 189 c 257
 50 510 l 257
 50 652 113 696 212 735 c 257
EndSplineSet
Layer: 2
Layer: 3
EndChar

StartChar: uni0029
Encoding: 36 41 36
GlifName: uni0029
Width: 330
VWidth: 0
Flags: W
VStem: 161 119<202 208 208 510>
LayerCount: 4
Back
Fore
SplineSet
101 746 m 257
 209 706 280 650 280 510 c 257
 280 189 l 257
 280 93 243 9 101 -47 c 257
 101 51 l 257
 136 73 161 104 161 202 c 256
 161 204 161 206 161 208 c 258
 161 521 l 258
 160 593 139 626 100 649 c 257
 101 746 l 257
EndSplineSet
PickledDataWithLists: "(dp1
S'com.fontlab.hintData'
p2
(dp3
S'vhints'
p4
(lp5
(dp6
S'position'
p7
I161
sS'width'
p8
I119
sass."
Layer: 2
Layer: 3
EndChar

StartChar: uni002A
Encoding: 37 42 37
GlifName: uni002A_
Width: 394
VWidth: 0
Flags: W
HStem: 478 307<160 231 160 231> 517 21<92 92>
VStem: 160 71<478 564 564 564 704 785>
LayerCount: 4
Back
Fore
SplineSet
231 478 m 257xa0
 160 478 l 257xa0
 160 564 l 257
 92 517 l 257x60
 51 574 l 257
 138 633 l 257
 50 691 l 257
 92 748 l 257
 160 704 l 257
 160 785 l 257
 231 785 l 257
 231 702 l 257
 302 748 l 257
 344 691 l 257
 256 632 l 257
 343 572 l 257
 302 515 l 257
 231 565 l 257
 231 478 l 257xa0
EndSplineSet
PickledDataWithLists: "(dp1
S'com.fontlab.hintData'
p2
(dp3
S'vhints'
p4
(lp5
(dp6
S'position'
p7
I160
sS'width'
p8
I71
sasS'hhints'
p9
(lp10
(dp11
g7
I478
sg8
I307
sa(dp12
g7
I517
sg8
I21
sass."
Layer: 2
Layer: 3
EndChar

StartChar: uni002B
Encoding: 38 43 38
GlifName: uni002B_
Width: 475
VWidth: 0
Flags: W
LayerCount: 4
Back
Fore
SplineSet
425 357 m 257
 425 230 l 257
 300 230 l 257
 300 87 l 257
 173 87 l 257
 173 230 l 257
 50 230 l 257
 50 357 l 257
 173 357 l 257
 173 498 l 257
 300 498 l 257
 300 357 l 257
 425 357 l 257
EndSplineSet
Layer: 2
Layer: 3
EndChar

StartChar: uni002C
Encoding: 39 44 39
GlifName: uni002C_
Width: 265
VWidth: 0
Flags: W
LayerCount: 4
Back
Fore
SplineSet
178 -23 m 257
 51 -23 l 257
 88 129 l 257
 215 129 l 257
 178 -23 l 257
EndSplineSet
Layer: 2
Layer: 3
EndChar

StartChar: uni002D
Encoding: 40 45 40
GlifName: uni002D_
Width: 416
VWidth: 0
Flags: W
LayerCount: 4
Back
Fore
SplineSet
366 357 m 257
 366 230 l 257
 50 230 l 257
 50 357 l 257
 366 357 l 257
EndSplineSet
Layer: 2
Layer: 3
EndChar

StartChar: uni002E
Encoding: 41 46 41
GlifName: uni002E_
Width: 250
VWidth: 0
Flags: W
LayerCount: 4
Back
Fore
SplineSet
50 53 m 256
 50 95 83 129 125 129 c 256
 167 129 200 95 200 53 c 256
 200 11 167 -22 125 -22 c 256
 83 -22 50 11 50 53 c 256
EndSplineSet
Layer: 2
Layer: 3
EndChar

StartChar: uni002F
Encoding: 42 47 42
GlifName: uni002F_
Width: 401
VWidth: 0
Flags: W
LayerCount: 4
Back
Fore
SplineSet
50 -23 m 257
 225 716 l 257
 351 716 l 257
 177 -23 l 257
 50 -23 l 257
EndSplineSet
Layer: 2
Layer: 3
EndChar

StartChar: uni0030
Encoding: 43 48 43
GlifName: uni0030
Width: 1024
VWidth: 0
Flags: W
LayerCount: 4
Back
Fore
SplineSet
404 698 m 257
 404 573 l 257
 351 560 346 461 346 398 c 256
 346 371 346 360 346 339 c 256
 346 248 348 137 403 124 c 257
 403 0 l 257
 337 3 221 60 221 353 c 256
 221 602 315 693 404 698 c 257
464 698 m 257
 553 693 647 602 647 353 c 256
 647 60 531 3 465 0 c 257
 465 124 l 257
 520 137 522 248 522 339 c 256
 522 360 522 371 522 398 c 256
 522 461 517 560 464 573 c 257
 464 698 l 257
EndSplineSet
Layer: 2
Layer: 3
EndChar

StartChar: uni0031
Encoding: 44 49 44
GlifName: uni0031
Width: 266
VWidth: 0
Flags: W
HStem: 0 21<106 236 106 106> 0 21<106 236 106 106> 679 20<106 236 236 236> 679 20<106 236 236 236>
VStem: 30 206<439 640 640 640> 106 130<0 499 499 499 0 699>
LayerCount: 4
Back
Fore
SplineSet
106 499 m 257xa4
 30 439 l 257
 30 640 l 257xa8
 106 699 l 257
 236 699 l 257
 236 0 l 257
 106 0 l 257
 106 499 l 257xa4
EndSplineSet
PickledDataWithLists: "(dp1
S'com.fontlab.hintData'
p2
(dp3
S'vhints'
p4
(lp5
(dp6
S'position'
p7
I30
sS'width'
p8
I206
sa(dp9
g7
I106
sg8
I130
sasS'hhints'
p10
(lp11
(dp12
g7
I0
sg8
I21
sa(dp13
g7
I0
sg8
I21
sa(dp14
g7
I679
sg8
I20
sa(dp15
g7
I679
sg8
I20
sass."
Layer: 2
Layer: 3
EndChar

StartChar: uni0032
Encoding: 45 50 45
GlifName: uni0032
Width: 480
VWidth: 0
Flags: W
HStem: 0 127<43 447 43 447> 574 126<245 324>
VStem: 330 123<465 497 444 522>
LayerCount: 4
Back
Fore
SplineSet
447 127 m 257
 447 0 l 257
 43 0 l 257
 43 127 l 257
 447 127 l 257
190 699 m 257
 190 573 l 258
 189 573 142 557 142 495 c 257
 24 520 l 257
 33 604 95 687 190 699 c 257
245 574 m 257
 245 700 l 257
 403 700 452 579 453 497 c 256
 453 391 404 359 342 315 c 256
 271 265 231 232 197 179 c 257
 45 179 l 257
 105 302 205 359 235 384 c 256
 278 421 330 433 330 497 c 256
 330 547 300 572 245 574 c 257
EndSplineSet
PickledDataWithLists: "(dp1
S'com.fontlab.hintData'
p2
(dp3
S'vhints'
p4
(lp5
(dp6
S'position'
p7
I330
sS'width'
p8
I123
sasS'hhints'
p9
(lp10
(dp11
g7
I0
sg8
I127
sa(dp12
g7
I574
sg8
I126
sass."
Layer: 2
Layer: 3
EndChar

StartChar: uni0033
Encoding: 46 51 46
GlifName: uni0033
Width: 484
VWidth: 0
Flags: W
HStem: 0 122<255 257 255 255.5> 286 124<188 247> 574 124<156 256 156 252.5>
VStem: 327 131<181 231>
LayerCount: 4
Back
Fore
SplineSet
132 537 m 257
 26 600 l 257
 59 656 117 698 195 698 c 257
 195 572 l 257
 166 570 146 558 132 537 c 257
254 122 m 257
 297 122 327 161 327 201 c 256
 327 261 306 286 188 286 c 257
 188 410 l 257
 308 410 327 439 327 499 c 256
 327 553 286 574 256 574 c 256
 255 574 253 574 252 574 c 257
 252 698 l 257
 386 695 453 582 453 508 c 256
 453 411 422 366 391 350 c 257
 419 331 458 284 458 199 c 256
 458 75 337 0 257 0 c 256
 256 0 256 0 255 0 c 257
 254 122 l 257
132 160 m 257
 146 139 166 127 195 125 c 257
 195 -1 l 257
 117 -1 60 30 26 97 c 257
 132 160 l 257
EndSplineSet
PickledDataWithLists: "(dp1
S'com.fontlab.hintData'
p2
(dp3
S'vhints'
p4
(lp5
(dp6
S'position'
p7
I327
sS'width'
p8
I131
sasS'hhints'
p9
(lp10
(dp11
g7
I0
sg8
I122
sa(dp12
g7
I286
sg8
I124
sa(dp13
g7
I574
sg8
I124
sass."
Layer: 2
Layer: 3
EndChar

StartChar: uni0034
Encoding: 47 52 47
GlifName: uni0034
Width: 483
VWidth: 0
Flags: W
HStem: 0 21<273 403 273 273> 0 21<273 403 273 273> 145 127<170 216 26 26 403 457> 681 20<273 403 403 403>
VStem: 26 190<145 272 145 272> 273 184<145 272 145 701> 273 130<0 145 0 272 272 701>
LayerCount: 4
Back
Fore
SplineSet
216 272 m 257x38
 216 145 l 257
 26 145 l 257
 26 272 l 257
 216 598 l 257
 216 351 l 257
 170 272 l 257
 216 272 l 257x38
457 272 m 257xbc
 457 145 l 257xbc
 403 145 l 257
 403 0 l 257
 273 0 l 257xba
 273 701 l 257xbc
 403 701 l 257
 403 272 l 257xba
 457 272 l 257xbc
EndSplineSet
PickledDataWithLists: "(dp1
S'com.fontlab.hintData'
p2
(dp3
S'vhints'
p4
(lp5
(dp6
S'position'
p7
I26
sS'width'
p8
I190
sa(dp9
g7
I273
sg8
I184
sa(dp10
g7
I273
sg8
I130
sasS'hhints'
p11
(lp12
(dp13
g7
I0
sg8
I21
sa(dp14
g7
I0
sg8
I21
sa(dp15
g7
I145
sg8
I127
sa(dp16
g7
I681
sg8
I20
sass."
Layer: 2
Layer: 3
EndChar

StartChar: uni0035
Encoding: 48 53 48
GlifName: uni0035
Width: 492
VWidth: 0
Flags: W
HStem: 0 126<162 204 204 258> 324 123<195.5 204 195.5 258> 573 127<171 171>
VStem: 338 128<199 252>
LayerCount: 4
Back
Fore
SplineSet
409 574 m 257
 171 573 l 257
 159 442 l 257
 172 445 187 447 204 447 c 257
 204 324 l 257
 170 321 148 301 136 286 c 257
 26 354 l 257
 55 700 l 257
 409 700 l 257
 409 574 l 257
258 447 m 257
 401 444 466 333 466 223 c 256
 466 82 363 2 258 0 c 257
 258 126 l 257
 307 135 338 174 338 224 c 256
 338 280 296 319 258 324 c 257
 258 447 l 257
131 175 m 257
 147 144 177 131 204 126 c 257
 204 0 l 257
 120 0 60 46 28 107 c 257
 131 175 l 257
EndSplineSet
PickledDataWithLists: "(dp1
S'com.fontlab.hintData'
p2
(dp3
S'vhints'
p4
(lp5
(dp6
S'position'
p7
I338
sS'width'
p8
I128
sasS'hhints'
p9
(lp10
(dp11
g7
I0
sg8
I126
sa(dp12
g7
I324
sg8
I123
sa(dp13
g7
I573
sg8
I127
sass."
Layer: 2
Layer: 3
EndChar

StartChar: uni0036
Encoding: 49 54 49
GlifName: uni0036
Width: 497
VWidth: 0
Flags: W
HStem: -1 125<140.5 228 228 282> 307 118<227 228 227 227> 573 125<282 293 282 284>
VStem: 26 124<399 416.5> 356 115<183.5 249>
LayerCount: 4
Back
Fore
SplineSet
282 425 m 257
 406 425 471 327 471 209 c 256
 471 84 383 0 282 -1 c 257
 282 123 l 257
 317 127 356 159 356 208 c 256
 356 290 302 304 283 309 c 257
 282 425 l 257
355 537 m 257
 339 559 321 573 293 573 c 256
 289 573 286 573 282 573 c 257
 282 698 l 257
 360 698 415 659 450 600 c 257
 355 537 l 257
228 697 m 257
 228 572 l 257
 165 565 150 448 150 399 c 257
 169 414 198 425 228 425 c 257
 228 307 l 257
 227 307 l 256
 207 302 160 286 160 209 c 256
 160 170 190 128 228 124 c 257
 228 -1 l 257
 53 -1 26 186 26 358 c 256
 26 475 55 675 228 697 c 257
EndSplineSet
PickledDataWithLists: "(dp1
S'com.fontlab.hintData'
p2
(dp3
S'vhints'
p4
(lp5
(dp6
S'position'
p7
I26
sS'width'
p8
I124
sa(dp9
g7
I356
sg8
I115
sasS'hhints'
p10
(lp11
(dp12
g7
I-1
sg8
I125
sa(dp13
g7
I307
sg8
I118
sa(dp14
g7
I573
sg8
I125
sass."
Layer: 2
Layer: 3
EndChar

StartChar: uni0037
Encoding: 50 55 50
GlifName: uni0037
Width: 435
VWidth: 0
Flags: W
HStem: 0 21<136 273 136 136> 0 21<136 273 136 136> 510 188<236 371 236 236> 572 126<20 260 20 409>
LayerCount: 4
Back
Fore
SplineSet
20 698 m 257x10
 409 698 l 257x10
 409 573 l 257
 397 562 378 529 371 510 c 257
 236 510 l 257x20
 260 572 l 257
 20 572 l 257
 20 698 l 257x10
223 450 m 257
 356 450 l 257
 317 300 289 154 273 0 c 257
 136 0 l 257x80
 153 158 181 295 223 450 c 257
EndSplineSet
PickledDataWithLists: "(dp1
S'com.fontlab.hintData'
p2
(dp3
S'hhints'
p4
(lp5
(dp6
S'position'
p7
I0
sS'width'
p8
I21
sa(dp9
g7
I0
sg8
I21
sa(dp10
g7
I510
sg8
I188
sa(dp11
g7
I572
sg8
I126
sass."
Layer: 2
Layer: 3
EndChar

StartChar: uni0038
Encoding: 51 56 51
GlifName: uni0038
Width: 486
VWidth: 0
Flags: W
HStem: 0 125<190 212 210 212 212 276 212 275> 571 127<179 214 179 272>
VStem: 26 128<183 226 183 234> 329 123<471.5 524> 332 128<183 226>
LayerCount: 4
Back
Fore
SplineSet
274 125 m 257xe8
 307 134 332 165 332 201 c 256xe8
 332 251 305 274 273 283 c 257
 273 413 l 257
 309 424 329 446 329 497 c 256
 329 551 290 568 272 571 c 257
 272 698 l 257
 342 698 452 619 452 499 c 256xf0
 452 415 409 352 395 349 c 257
 423 330 460 269 460 199 c 256
 460 53 316 0 276 0 c 258
 275 0 l 257
 274 125 l 257xe8
212 125 m 257
 211 0 l 257
 210 0 l 258
 170 0 26 53 26 199 c 256
 26 269 63 330 91 349 c 257
 77 352 33 415 33 499 c 256
 33 619 144 698 214 698 c 257
 214 571 l 257
 196 568 157 551 157 497 c 256
 157 446 177 424 213 413 c 257
 213 283 l 257
 181 274 154 251 154 201 c 256
 154 165 179 134 212 125 c 257
EndSplineSet
PickledDataWithLists: "(dp1
S'com.fontlab.hintData'
p2
(dp3
S'vhints'
p4
(lp5
(dp6
S'position'
p7
I26
sS'width'
p8
I128
sa(dp9
g7
I329
sg8
I123
sa(dp10
g7
I332
sg8
I128
sasS'hhints'
p11
(lp12
(dp13
g7
I0
sg8
I125
sa(dp14
g7
I571
sg8
I127
sass."
Layer: 2
Layer: 3
EndChar

StartChar: uni0039
Encoding: 52 57 52
GlifName: uni0039
Width: 504
VWidth: 0
Flags: W
HStem: 1 126<179 218> 274 118<156 273 272 273 272 287> 576 124<218 218>
VStem: 26 119<450 515.5 450 547.5> 349 129<282.5 300>
LayerCount: 4
Back
Fore
SplineSet
218 274 m 257
 94 274 26 359 26 485 c 256
 26 610 117 699 218 700 c 257
 218 576 l 257
 183 572 145 540 145 491 c 256
 145 409 198 395 217 390 c 257
 218 274 l 257
142 178 m 257
 164 150 175 132 218 127 c 257
 218 1 l 257
 140 1 76 51 43 115 c 257
 142 178 l 257
272 2 m 257
 272 127 l 257
 344 142 349 248 349 300 c 257
 330 285 302 274 272 274 c 257
 272 392 l 257
 273 392 l 256
 293 397 340 413 340 490 c 256
 340 529 310 571 272 575 c 257
 272 700 l 257
 447 700 478 513 478 341 c 256
 478 224 444 6 272 2 c 257
EndSplineSet
PickledDataWithLists: "(dp1
S'com.fontlab.hintData'
p2
(dp3
S'vhints'
p4
(lp5
(dp6
S'position'
p7
I26
sS'width'
p8
I119
sa(dp9
g7
I349
sg8
I129
sasS'hhints'
p10
(lp11
(dp12
g7
I1
sg8
I126
sa(dp13
g7
I274
sg8
I118
sa(dp14
g7
I576
sg8
I124
sass."
Layer: 2
Layer: 3
EndChar

StartChar: uni003A
Encoding: 53 58 53
GlifName: uni003A_
Width: 250
VWidth: 0
Flags: W
HStem: -5 151<104 146> 285 151<104 146>
VStem: 50 150<49 91 339 381>
LayerCount: 4
Back
Fore
SplineSet
50 70 m 256
 50 112 83 146 125 146 c 256
 167 146 200 112 200 70 c 256
 200 28 167 -5 125 -5 c 256
 83 -5 50 28 50 70 c 256
50 360 m 256
 50 402 83 436 125 436 c 256
 167 436 200 402 200 360 c 256
 200 318 167 285 125 285 c 256
 83 285 50 318 50 360 c 256
EndSplineSet
PickledDataWithLists: "(dp1
S'com.fontlab.hintData'
p2
(dp3
S'vhints'
p4
(lp5
(dp6
S'position'
p7
I50
sS'width'
p8
I150
sasS'hhints'
p9
(lp10
(dp11
g7
I-5
sg8
I151
sa(dp12
g7
I285
sg8
I151
sass."
Layer: 2
Layer: 3
EndChar

StartChar: uni003B
Encoding: 54 59 54
GlifName: uni003B_
Width: 291
VWidth: 0
Flags: W
HStem: -23 152<87 177 50 214> 285 151<145 187>
VStem: 91 150<339 381>
LayerCount: 4
Back
Fore
SplineSet
91 360 m 256
 91 402 124 436 166 436 c 256
 208 436 241 402 241 360 c 256
 241 318 208 285 166 285 c 256
 124 285 91 318 91 360 c 256
177 -23 m 257
 50 -23 l 257
 87 129 l 257
 214 129 l 257
 177 -23 l 257
EndSplineSet
PickledDataWithLists: "(dp1
S'com.fontlab.hintData'
p2
(dp3
S'vhints'
p4
(lp5
(dp6
S'position'
p7
I91
sS'width'
p8
I150
sasS'hhints'
p9
(lp10
(dp11
g7
I-23
sg8
I152
sa(dp12
g7
I285
sg8
I151
sass."
Layer: 2
Layer: 3
EndChar

StartChar: uni003C
Encoding: 55 60 55
GlifName: uni003C_
Width: 414
VWidth: 0
Flags: W
LayerCount: 4
Back
Fore
SplineSet
384 500 m 257
 384 370 l 257
 208 292 l 257
 384 206 l 257
 384 79 l 257
 30 258 l 257
 30 322 l 257
 384 500 l 257
EndSplineSet
Layer: 2
Layer: 3
EndChar

StartChar: uni003D
Encoding: 56 61 56
GlifName: uni003D_
Width: 418
VWidth: 0
Flags: W
HStem: 131 127<50 368 50 368> 325 127<50 368 50 368>
VStem: 50 318<131 258 131 258 325 452 131 452>
LayerCount: 4
Back
Fore
SplineSet
368 258 m 257
 368 131 l 257
 50 131 l 257
 50 258 l 257
 368 258 l 257
368 452 m 257
 368 325 l 257
 50 325 l 257
 50 452 l 257
 368 452 l 257
EndSplineSet
PickledDataWithLists: "(dp1
S'com.fontlab.hintData'
p2
(dp3
S'vhints'
p4
(lp5
(dp6
S'position'
p7
I50
sS'width'
p8
I318
sasS'hhints'
p9
(lp10
(dp11
g7
I131
sg8
I127
sa(dp12
g7
I325
sg8
I127
sass."
Layer: 2
Layer: 3
EndChar

StartChar: uni003E
Encoding: 57 62 57
GlifName: uni003E_
Width: 414
VWidth: 0
Flags: W
LayerCount: 4
Back
Fore
SplineSet
30 500 m 257
 384 322 l 257
 384 258 l 257
 30 79 l 257
 30 206 l 257
 206 292 l 257
 30 370 l 257
 30 500 l 257
EndSplineSet
Layer: 2
Layer: 3
EndChar

StartChar: uni003F
Encoding: 58 63 58
GlifName: uni003F_
Width: 460
VWidth: 0
Flags: W
HStem: -22 151<176 218> 166 220<134 263 134 134> 575 128<188.5 233.5>
VStem: 122 151<32 74> 134 129<166 276 166 386 166 386> 302 128<446.5 491 393 519>
LayerCount: 4
Back
Fore
SplineSet
122 53 m 256xf4
 122 95 155 129 197 129 c 256
 239 129 273 95 273 53 c 256
 273 11 239 -22 197 -22 c 256
 155 -22 122 11 122 53 c 256xf4
112 526 m 257
 30 611 l 257
 60 649 110 703 218 703 c 256
 346 703 426 620 430 491 c 257
 430 295 263 276 263 276 c 257
 263 166 l 257
 134 166 l 257
 134 386 l 257xec
 251 388 302 400 302 493 c 256
 302 545 257 575 210 575 c 256
 167 575 133 554 112 526 c 257
EndSplineSet
PickledDataWithLists: "(dp1
S'com.fontlab.hintData'
p2
(dp3
S'vhints'
p4
(lp5
(dp6
S'position'
p7
I122
sS'width'
p8
I151
sa(dp9
g7
I134
sg8
I129
sa(dp10
g7
I302
sg8
I128
sasS'hhints'
p11
(lp12
(dp13
g7
I-22
sg8
I151
sa(dp14
g7
I166
sg8
I220
sa(dp15
g7
I575
sg8
I128
sass."
Layer: 2
Layer: 3
EndChar

StartChar: uni0040
Encoding: 59 64 59
GlifName: uni0040
Width: 803
VWidth: 0
InSpiro: 1
Flags: W
HStem: -87 109<300.084 551.032> 116 403<326.449 430.329> 116 124<513 612.557> 602 113<332.61 547.83>
VStem: 16 120<185.906 417.659> 205 340<240.742 366.985> 666 120<304.625 493.205>
LayerCount: 4
Back
Fore
SplineSet
667 103 m 257xbe
 717 12 l 257
 658 -45 538 -87 423 -87 c 256
 195 -87 16 47 16 309 c 256
 16 533 191 715 448 715 c 256
 610 715 786 612 786 412 c 256
 786 201 654 116 532 116 c 256xbe
 494 116 463 137 453 161 c 257
 439 139 407 116 344 116 c 256
 268 116 205 193 205 289 c 256
 205 444 327 519 409 519 c 256xde
 473 519 495 493 510 477 c 257
 518 504 l 257
 602 504 l 257
 552 308 l 258
 549 297 545 280 545 266 c 256
 545 249 549 240 563 240 c 256
 598 240 666 280 666 412 c 256
 666 530 549 602 451 602 c 256
 284 602 136 481 136 312 c 256
 136 122 260 22 414 22 c 256
 501 22 587 47 667 103 c 257xbe
  Spiro
    667 103 v
    717 12 v
    640.203 -38.956 o
    537.111 -74.025 o
    423 -87 o
    216.329 -42.6442 o
    70.747 90.0649 o
    16 309 o
    70.7826 513.634 o
    221.97 659.624 o
    448 715 o
    607.479 680.957 o
    734.467 579.31 o
    786 412 o
    747.331 241.613 o
    651.961 145.791 o
    532 116 o
    496.884 122.321 o
    469.459 138.687 o
    453 161 v
    432.546 139.576 o
    397.104 122.765 o
    344 116 o
    274.247 139.474 o
    224.112 201.558 o
    205 289 o
    239.603 417.416 o
    319.757 493.865 o
    409 519 o
    460.256 511.68 o
    491.394 494.981 o
    510 477 v
    518 504 v
    602 504 v
    552 308 ]
    548.855 295.347 o
    546.146 280.652 o
    545 266 o
    546.552 251.715 o
    552.119 242.957 o
    563 240 o
    605.213 255.227 o
    647.108 308.817 o
    666 412 o
    632.1 513.619 o
    550.201 579.008 o
    451 602 o
    295.251 564.443 o
    180.471 462.167 o
    136 312 o
    173.78 152.499 o
    273.605 54.8974 o
    414 22 o
    500.396 30.5382 o
    585.269 57.1471 o
    0 0 z
  EndSpiro
EndSplineSet
PickledDataWithLists: "(dp1
S'com.fontlab.hintData'
p2
(dp3
S'vhints'
p4
(lp5
(dp6
S'position'
p7
I16
sS'width'
p8
I120
sa(dp9
g7
I205
sg8
I340
sa(dp10
g7
I666
sg8
I120
sasS'hhints'
p11
(lp12
(dp13
g7
I-87
sg8
I109
sa(dp14
g7
I116
sg8
I403
sa(dp15
g7
I116
sg8
I124
sa(dp16
g7
I602
sg8
I113
sass."
Layer: 2
Layer: 3
EndChar

StartChar: uni0041
Encoding: 60 65 60
GlifName: uni0041
Width: 516
VWidth: 0
Flags: W
HStem: 0 21<26 164 26 26 353 353 353 490> 0 21<26 164 26 26 353 353 353 490> 679 20<200 339 339 339> 679 20<200 339 339 339>
VStem: 155 15<582 582>
LayerCount: 4
Back
Fore
SplineSet
155 582 m 257x88
 170 582 l 257
 230 302 l 257
 164 0 l 257
 26 0 l 257
 155 582 l 257x88
200 699 m 257xa8
 339 699 l 257
 490 0 l 257
 353 0 l 257
 333 85 l 257
 239 85 l 257
 269 223 l 257
 305 223 l 257
 200 699 l 257xa8
EndSplineSet
PickledDataWithLists: "(dp1
S'com.fontlab.hintData'
p2
(dp3
S'vhints'
p4
(lp5
(dp6
S'position'
p7
I155
sS'width'
p8
I15
sasS'hhints'
p9
(lp10
(dp11
g7
I0
sg8
I21
sa(dp12
g7
I0
sg8
I21
sa(dp13
g7
I679
sg8
I20
sa(dp14
g7
I679
sg8
I20
sass."
Layer: 2
Layer: 3
EndChar

StartChar: uni0042
Encoding: 61 66 61
GlifName: uni0042
Width: 484
VWidth: 0
Flags: W
HStem: 0 122<26 264.5 221 264.5> 289 122<221 251 221 266> 577 123<26 221>
VStem: 26 141<0 700 0 700> 324 134<197 201 197 216>
LayerCount: 4
Back
Fore
SplineSet
221 122 m 257
 308 122 324 179 324 205 c 256
 324 227 311 289 221 289 c 257
 221 411 l 257
 281 411 322 446 322 497 c 256
 322 547 280 576 221 577 c 257
 221 700 l 257
 229 701 237 701 245 701 c 256
 397 701 454 574 454 514 c 258
 454 513 l 258
 453 421 420 378 385 352 c 257
 423 322 458 285 458 201 c 256
 458 199 458 198 458 197 c 256
 457 86 366 -2 249 -2 c 256
 240 -2 230 -1 221 0 c 257
 221 122 l 257
26 700 m 257
 167 700 l 257
 167 0 l 257
 26 0 l 257
 26 700 l 257
EndSplineSet
PickledDataWithLists: "(dp1
S'com.fontlab.hintData'
p2
(dp3
S'vhints'
p4
(lp5
(dp6
S'position'
p7
I26
sS'width'
p8
I141
sa(dp9
g7
I324
sg8
I134
sasS'hhints'
p10
(lp11
(dp12
g7
I0
sg8
I122
sa(dp13
g7
I289
sg8
I122
sa(dp14
g7
I577
sg8
I123
sass."
Layer: 2
Layer: 3
EndChar

StartChar: uni0043
Encoding: 62 67 62
GlifName: uni0043
Width: 494
VWidth: 0
Flags: W
HStem: 685 20<157.5 229 283 329>
VStem: 32 141<181 518> 330 138<129 215 129 215>
LayerCount: 4
Back
Fore
SplineSet
283 564 m 257
 283 705 l 257
 375 705 468 612 468 516 c 257
 330 480 l 257
 330 495 l 258
 330 509 330 520 325 532 c 256
 315 555 283 564 283 564 c 257
283 136 m 257
 283 136 315 143 325 166 c 256
 330 178 330 189 330 203 c 258
 330 215 l 257
 468 182 l 257
 468 76 375 -5 283 -5 c 257
 283 136 l 257
229 705 m 257
 229 564 l 257
 183 563 173 523 173 518 c 257
 173 181 l 257
 173 176 183 136 229 136 c 257
 229 -5 l 257
 86 -5 32 121 32 181 c 257
 32 518 l 257
 32 578 86 705 229 705 c 257
EndSplineSet
PickledDataWithLists: "(dp1
S'com.fontlab.hintData'
p2
(dp3
S'vhints'
p4
(lp5
(dp6
S'position'
p7
I32
sS'width'
p8
I141
sa(dp9
g7
I330
sg8
I138
sasS'hhints'
p10
(lp11
(dp12
g7
I685
sg8
I20
sass."
Layer: 2
Layer: 3
EndChar

StartChar: uni0044
Encoding: 63 68 63
GlifName: uni0044
Width: 452
VWidth: 0
Flags: W
HStem: 0 21<32 32 32 173 227 257> 0 21<32 32 32 173 227 257> 680 20<32 173 173 173 227 298.5>
VStem: 32 141<0 700 0 700> 283 141<197 503>
LayerCount: 4
Back
Fore
SplineSet
227 0 m 257xb8
 227 141 l 257
 233 141 282 149 283 197 c 258
 283 503 l 257
 283 508 275 558 227 559 c 257
 227 700 l 257
 370 700 424 566 424 503 c 257
 424 197 l 257
 424 50 287 0 227 0 c 257xb8
32 0 m 257
 32 700 l 257
 173 700 l 257
 173 0 l 257
 32 0 l 257
EndSplineSet
PickledDataWithLists: "(dp1
S'com.fontlab.hintData'
p2
(dp3
S'vhints'
p4
(lp5
(dp6
S'position'
p7
I32
sS'width'
p8
I141
sa(dp9
g7
I283
sg8
I141
sasS'hhints'
p10
(lp11
(dp12
g7
I0
sg8
I21
sa(dp13
g7
I0
sg8
I21
sa(dp14
g7
I680
sg8
I20
sass."
Layer: 2
Layer: 3
EndChar

StartChar: uni0045
Encoding: 64 69 64
GlifName: uni0045
Width: 422
VWidth: 0
Flags: W
HStem: 0 141<173 396 173 396> 277 141<173 302 173 302> 560 140<173 396 173 173>
VStem: 32 364<0 141 560 700> 32 141<141 277 418 560>
LayerCount: 4
Back
Fore
SplineSet
396 141 m 257xf0
 396 0 l 257
 32 0 l 257
 32 700 l 257
 396 700 l 257
 396 560 l 257xf0
 173 560 l 257
 173 418 l 257
 302 418 l 257
 302 277 l 257
 173 277 l 257
 173 141 l 257xe8
 396 141 l 257xf0
EndSplineSet
PickledDataWithLists: "(dp1
S'com.fontlab.hintData'
p2
(dp3
S'vhints'
p4
(lp5
(dp6
S'position'
p7
I32
sS'width'
p8
I364
sa(dp9
g7
I32
sg8
I141
sasS'hhints'
p10
(lp11
(dp12
g7
I0
sg8
I141
sa(dp13
g7
I277
sg8
I141
sa(dp14
g7
I560
sg8
I140
sass."
Layer: 2
Layer: 3
EndChar

StartChar: uni0046
Encoding: 65 70 65
GlifName: uni0046
Width: 422
VWidth: 0
Flags: W
HStem: 1 21<32 173 32 32> 1 21<32 173 32 32> 277 141<173 302 173 302> 560 140<173 396 173 173>
VStem: 32 141<1 277 418 560>
LayerCount: 4
Back
Fore
SplineSet
302 418 m 257xb8
 302 277 l 257
 173 277 l 257
 173 1 l 257
 32 1 l 257
 32 700 l 257
 396 700 l 257
 396 560 l 257
 173 560 l 257
 173 418 l 257
 302 418 l 257xb8
EndSplineSet
PickledDataWithLists: "(dp1
S'com.fontlab.hintData'
p2
(dp3
S'vhints'
p4
(lp5
(dp6
S'position'
p7
I32
sS'width'
p8
I141
sasS'hhints'
p9
(lp10
(dp11
g7
I1
sg8
I21
sa(dp12
g7
I1
sg8
I21
sa(dp13
g7
I277
sg8
I141
sa(dp14
g7
I560
sg8
I140
sass."
Layer: 2
Layer: 3
EndChar

StartChar: uni0047
Encoding: 66 71 66
GlifName: uni0047
Width: 493
VWidth: 0
Flags: W
HStem: -5 141<219.5 222 219.5 222 219.5 276> 685 20<156 222 276 322.5>
VStem: 26 141<192 508 192 524 192 524> 276 185<135.5 136 136 136 223 353 135.5 353> 319 142<190 223 223 223>
LayerCount: 4
Back
Fore
SplineSet
276 564 m 257xf0
 276 705 l 257xf0
 369 705 461 612 461 516 c 257xe8
 323 465 l 257
 323 495 l 258
 323 509 323 520 318 532 c 256
 308 555 276 564 276 564 c 257xf0
461 353 m 257
 461 176 l 258
 461 95 358 -4 276 -5 c 257
 276 136 l 257xf0
 282 136 319 155 319 190 c 258
 319 223 l 257xe8
 276 223 l 257
 276 353 l 257
 461 353 l 257
222 -5 m 257
 162 -5 26 48 26 192 c 257
 26 524 l 257
 34 589 90 705 222 705 c 257
 222 564 l 257
 176 563 167 513 167 508 c 257
 167 192 l 258
 168 146 217 136 222 136 c 257
 222 -5 l 257
EndSplineSet
PickledDataWithLists: "(dp1
S'com.fontlab.hintData'
p2
(dp3
S'vhints'
p4
(lp5
(dp6
S'position'
p7
I26
sS'width'
p8
I141
sa(dp9
g7
I276
sg8
I185
sa(dp10
g7
I319
sg8
I142
sasS'hhints'
p11
(lp12
(dp13
g7
I-5
sg8
I141
sa(dp14
g7
I685
sg8
I20
sass."
Layer: 2
Layer: 3
EndChar

StartChar: uni0048
Encoding: 67 72 67
GlifName: uni0048
Width: 458
VWidth: 0
Flags: W
HStem: 0 21<32 173 32 32 285 285 285 426> 0 21<32 173 32 32 285 285 285 426> 680 20<32 173 173 173 285 426 426 426>
VStem: 32 170<283 421 283 700> 32 141<0 283 0 421 421 700> 256 170<283 421 421 421> 285 141<0 283 283 283 421 700 0 700>
LayerCount: 4
Back
Fore
SplineSet
202 421 m 257xb0
 202 283 l 257xb0
 173 283 l 257
 173 0 l 257
 32 0 l 257xa8
 32 700 l 257xb0
 173 700 l 257
 173 421 l 257xa8
 202 421 l 257xb0
285 700 m 257xa2
 426 700 l 257
 426 0 l 257
 285 0 l 257
 285 283 l 257xa2
 256 283 l 257
 256 421 l 257xa4
 285 421 l 257
 285 700 l 257xa2
EndSplineSet
PickledDataWithLists: "(dp1
S'com.fontlab.hintData'
p2
(dp3
S'vhints'
p4
(lp5
(dp6
S'position'
p7
I32
sS'width'
p8
I170
sa(dp9
g7
I32
sg8
I141
sa(dp10
g7
I256
sg8
I170
sa(dp11
g7
I285
sg8
I141
sasS'hhints'
p12
(lp13
(dp14
g7
I0
sg8
I21
sa(dp15
g7
I0
sg8
I21
sa(dp16
g7
I680
sg8
I20
sass."
Layer: 2
Layer: 3
EndChar

StartChar: uni0049
Encoding: 68 73 68
GlifName: uni0049
Width: 209
VWidth: 0
Flags: W
HStem: 0 21<34 175 34 34> 0 21<34 175 34 34> 680 20<34 175 175 175>
VStem: 34 141<0 700 0 700>
LayerCount: 4
Back
Fore
SplineSet
34 700 m 257xb0
 175 700 l 257
 175 0 l 257
 34 0 l 257
 34 700 l 257xb0
EndSplineSet
PickledDataWithLists: "(dp1
S'com.fontlab.hintData'
p2
(dp3
S'vhints'
p4
(lp5
(dp6
S'position'
p7
I34
sS'width'
p8
I141
sasS'hhints'
p9
(lp10
(dp11
g7
I0
sg8
I21
sa(dp12
g7
I0
sg8
I21
sa(dp13
g7
I680
sg8
I20
sass."
Layer: 2
Layer: 3
EndChar

StartChar: uni004A
Encoding: 69 74 69
GlifName: uni004A_
Width: 495
VWidth: 0
Flags: W
HStem: -5 142<210.5 213 210.5 213 267 269.5 210.5 297> 680 20<323 463 463 463>
VStem: 26 141<193 242 193 242> 323 140<193 700>
LayerCount: 4
Back
Fore
SplineSet
213 -5 m 257
 153 -5 26 54 26 193 c 257
 26 242 l 257
 167 242 l 257
 167 193 l 258
 168 147 208 137 213 137 c 257
 213 -5 l 257
267 -5 m 257
 267 137 l 257
 272 137 322 147 323 193 c 258
 323 700 l 257
 463 700 l 257
 463 193 l 257
 463 49 327 -5 267 -5 c 257
EndSplineSet
PickledDataWithLists: "(dp1
S'com.fontlab.hintData'
p2
(dp3
S'vhints'
p4
(lp5
(dp6
S'position'
p7
I26
sS'width'
p8
I141
sa(dp9
g7
I323
sg8
I140
sasS'hhints'
p10
(lp11
(dp12
g7
I-5
sg8
I142
sa(dp13
g7
I680
sg8
I20
sass."
Layer: 2
Layer: 3
EndChar

StartChar: uni004B
Encoding: 70 75 70
GlifName: uni004B_
Width: 475
VWidth: 0
Flags: W
HStem: 0 21<26 167 26 26 319 457 319 319> 0 21<26 167 26 26 319 457 319 319> 680 20<26 167 167 167 314 453 453 453>
VStem: 26 141<0 700 0 700>
LayerCount: 4
Back
Fore
SplineSet
314 700 m 257xb0
 453 700 l 257
 347 341 l 257
 457 0 l 257
 319 0 l 257
 207 341 l 257
 314 700 l 257xb0
26 700 m 257
 167 700 l 257
 167 0 l 257
 26 0 l 257
 26 700 l 257
EndSplineSet
PickledDataWithLists: "(dp1
S'com.fontlab.hintData'
p2
(dp3
S'vhints'
p4
(lp5
(dp6
S'position'
p7
I26
sS'width'
p8
I141
sasS'hhints'
p9
(lp10
(dp11
g7
I0
sg8
I21
sa(dp12
g7
I0
sg8
I21
sa(dp13
g7
I680
sg8
I20
sass."
Layer: 2
Layer: 3
EndChar

StartChar: uni004C
Encoding: 71 76 71
GlifName: uni004C_
Width: 428
VWidth: 0
Flags: W
HStem: 0 139<167 402 167 402> 680 20<26 167 167 167>
VStem: 26 141<139 700 139 700 139 700>
LayerCount: 4
Back
Fore
SplineSet
402 139 m 257
 402 0 l 257
 26 0 l 257
 26 700 l 257
 167 700 l 257
 167 139 l 257
 402 139 l 257
EndSplineSet
PickledDataWithLists: "(dp1
S'com.fontlab.hintData'
p2
(dp3
S'vhints'
p4
(lp5
(dp6
S'position'
p7
I26
sS'width'
p8
I141
sasS'hhints'
p9
(lp10
(dp11
g7
I0
sg8
I139
sa(dp12
g7
I680
sg8
I20
sass."
Layer: 2
Layer: 3
EndChar

StartChar: uni004D
Encoding: 72 77 72
GlifName: uni004D_
Width: 676
VWidth: 0
Flags: W
HStem: 0 21<32 32 32 173 285 285 285 382 503 503 503 644> 0 21<32 32 32 173 285 285 285 382 503 503 503 644> 680 20<32 142 142 142 503 644 644 644>
VStem: 32 141<0 127 0 444> 503 141<0 700 0 700>
LayerCount: 4
Back
Fore
SplineSet
32 0 m 257xb8
 32 444 l 257
 41 444 l 257
 173 127 l 257
 173 0 l 257
 32 0 l 257xb8
32 700 m 257
 142 700 l 257
 333 237 l 257
 439 476 l 257
 449 476 l 257
 449 151 l 257
 382 0 l 257
 285 0 l 257
 32 608 l 257
 32 700 l 257
503 700 m 257
 644 700 l 257
 644 0 l 257
 503 0 l 257
 503 700 l 257
EndSplineSet
PickledDataWithLists: "(dp1
S'com.fontlab.hintData'
p2
(dp3
S'vhints'
p4
(lp5
(dp6
S'position'
p7
I32
sS'width'
p8
I141
sa(dp9
g7
I503
sg8
I141
sasS'hhints'
p10
(lp11
(dp12
g7
I0
sg8
I21
sa(dp13
g7
I0
sg8
I21
sa(dp14
g7
I680
sg8
I20
sass."
Layer: 2
Layer: 3
EndChar

StartChar: uni004E
Encoding: 73 78 73
GlifName: uni004E_
Width: 509
VWidth: 0
Flags: W
HStem: 0 21<32 32 32 173 410 410 410 477> 0 21<32 32 32 173 410 410 410 477> 680 20<32 147 147 147 336 477 477 477>
VStem: 32 141<0 278 0 492> 336 141<498 700>
LayerCount: 4
Back
Fore
SplineSet
32 0 m 257xb8
 32 492 l 257
 40 492 l 257
 173 278 l 257
 173 0 l 257
 32 0 l 257xb8
477 700 m 257
 477 284 l 257
 469 284 l 257
 336 498 l 257
 336 700 l 257
 477 700 l 257
32 700 m 257
 147 700 l 257
 477 168 l 257
 477 0 l 257
 410 0 l 257
 32 608 l 257
 32 700 l 257
EndSplineSet
PickledDataWithLists: "(dp1
S'com.fontlab.hintData'
p2
(dp3
S'vhints'
p4
(lp5
(dp6
S'position'
p7
I32
sS'width'
p8
I141
sa(dp9
g7
I336
sg8
I141
sasS'hhints'
p10
(lp11
(dp12
g7
I0
sg8
I21
sa(dp13
g7
I0
sg8
I21
sa(dp14
g7
I680
sg8
I20
sass."
Layer: 2
Layer: 3
EndChar

StartChar: uni004F
Encoding: 74 79 74
GlifName: uni004F_
Width: 508
VWidth: 0
Flags: W
HStem: -5 142<223.5 226 223.5 226 281 283.5 223.5 311> 564 141<161 227 161 281>
VStem: 30 141<195 508> 337 141<195 508 508 510.5>
LayerCount: 4
Back
Fore
SplineSet
226 -5 m 257
 166 -5 30 51 30 195 c 258
 30 524 l 258
 30 584 95 705 227 705 c 257
 227 564 l 257
 181 563 171 513 171 508 c 258
 171 195 l 258
 171 149 221 137 226 137 c 257
 226 -5 l 257
281 -5 m 257
 281 137 l 257
 286 137 336 149 337 195 c 258
 337 508 l 258
 337 513 327 563 281 564 c 257
 281 705 l 257
 412 705 478 583 478 524 c 258
 478 195 l 258
 478 51 341 -5 281 -5 c 257
EndSplineSet
PickledDataWithLists: "(dp1
S'com.fontlab.hintData'
p2
(dp3
S'vhints'
p4
(lp5
(dp6
S'position'
p7
I30
sS'width'
p8
I141
sa(dp9
g7
I337
sg8
I141
sasS'hhints'
p10
(lp11
(dp12
g7
I-5
sg8
I142
sa(dp13
g7
I564
sg8
I141
sass."
Layer: 2
Layer: 3
EndChar

StartChar: uni0050
Encoding: 75 80 75
GlifName: uni0050
Width: 474
VWidth: 0
Flags: W
HStem: 0 21<26 167 26 26> 0 21<26 167 26 26> 318 139<221 254 254 257.5 221 299.5> 561 139<221 254 26 221>
VStem: 26 141<0 700 0 700> 305 143<483 533.5>
LayerCount: 4
Back
Fore
SplineSet
221 457 m 257x3c
 254 457 l 258
 261 457 305 458 305 508 c 256
 305 559 263 561 254 561 c 258
 221 561 l 257
 221 700 l 257
 402 700 448 626 448 512 c 256
 448 369 378 318 221 318 c 257
 221 457 l 257x3c
26 700 m 257
 167 700 l 257
 167 0 l 257
 26 0 l 257xbc
 26 700 l 257
EndSplineSet
PickledDataWithLists: "(dp1
S'com.fontlab.hintData'
p2
(dp3
S'vhints'
p4
(lp5
(dp6
S'position'
p7
I26
sS'width'
p8
I141
sa(dp9
g7
I305
sg8
I143
sasS'hhints'
p10
(lp11
(dp12
g7
I0
sg8
I21
sa(dp13
g7
I0
sg8
I21
sa(dp14
g7
I318
sg8
I139
sa(dp15
g7
I561
sg8
I139
sass."
Layer: 2
Layer: 3
EndChar

StartChar: uni0051
Encoding: 76 81 76
GlifName: uni0051
Width: 500
VWidth: 0
Flags: W
HStem: 564 141<157 223 157 277>
VStem: 26 141<195 508> 333 141<195 508 508 510.5>
LayerCount: 4
Back
Fore
SplineSet
222 -5 m 257
 162 -5 26 51 26 195 c 258
 26 524 l 258
 26 584 91 705 223 705 c 257
 223 564 l 257
 177 563 167 513 167 508 c 258
 167 195 l 258
 167 149 217 137 222 137 c 257
 222 -5 l 257
405 47 m 257
 460 -32 l 257
 348 -107 l 257
 277 -5 l 257
 277 137 l 257
 282 137 332 149 333 195 c 258
 333 508 l 258
 333 513 323 563 277 564 c 257
 277 705 l 257
 408 705 474 583 474 524 c 258
 474 195 l 258
 474 127 444 79 405 47 c 257
EndSplineSet
PickledDataWithLists: "(dp1
S'com.fontlab.hintData'
p2
(dp3
S'vhints'
p4
(lp5
(dp6
S'position'
p7
I26
sS'width'
p8
I141
sa(dp9
g7
I333
sg8
I141
sasS'hhints'
p10
(lp11
(dp12
g7
I564
sg8
I141
sass."
Layer: 2
Layer: 3
EndChar

StartChar: uni0052
Encoding: 77 82 77
GlifName: uni0052
Width: 495
VWidth: 0
Flags: W
HStem: 0 21<32 173 32 32 343 469 343 343> 0 21<32 173 32 32 343 469 343 343> 286 125<227 240> 567 133<227 240 32 227>
VStem: 32 141<0 700 0 700> 326 127<467.5 512>
LayerCount: 4
Back
Fore
SplineSet
227 411 m 257xbc
 240 411 l 258
 300 411 326 447 326 488 c 256
 326 536 289 567 240 567 c 258
 227 567 l 257
 227 700 l 257
 377 700 453 616 453 496 c 256
 453 428 432 381 386 352 c 257
 422 325 448 266 452 217 c 258
 469 0 l 257
 343 0 l 257
 328 178 l 258
 321 257 298 285 227 286 c 257
 227 411 l 257xbc
32 700 m 257
 173 700 l 257
 173 0 l 257
 32 0 l 257
 32 700 l 257
EndSplineSet
PickledDataWithLists: "(dp1
S'com.fontlab.hintData'
p2
(dp3
S'vhints'
p4
(lp5
(dp6
S'position'
p7
I32
sS'width'
p8
I141
sa(dp9
g7
I326
sg8
I127
sasS'hhints'
p10
(lp11
(dp12
g7
I0
sg8
I21
sa(dp13
g7
I0
sg8
I21
sa(dp14
g7
I286
sg8
I125
sa(dp15
g7
I567
sg8
I133
sass."
Layer: 2
Layer: 3
EndChar

StartChar: uni0053
Encoding: 78 83 78
GlifName: uni0053
Width: 497
VWidth: 0
Flags: W
HStem: 680 20<216 216 271 324>
VStem: 41 134<479.5 525 479.5 577.5> 333 141<176.5 240.5>
LayerCount: 4
Back
Fore
SplineSet
216 700 m 257
 216 568 l 257
 195 562 175 537 175 513 c 256
 175 446 279 434 346 394 c 256
 407 358 474 311 474 209 c 256
 474 96 379 -3 271 -3 c 257
 271 127 l 257
 295 130 333 150 333 203 c 256
 333 278 224 294 164 323 c 256
 93 357 41 403 41 508 c 256
 41 647 165 699 216 700 c 257
271 700 m 257
 377 700 440 589 446 553 c 257
 316 510 l 257
 311 557 271 568 271 568 c 257
 271 700 l 257
216 -3 m 257
 107 -3 34 103 33 158 c 257
 160 203 l 257
 162 147 216 127 216 127 c 257
 216 -3 l 257
EndSplineSet
PickledDataWithLists: "(dp1
S'com.fontlab.hintData'
p2
(dp3
S'vhints'
p4
(lp5
(dp6
S'position'
p7
I41
sS'width'
p8
I134
sa(dp9
g7
I333
sg8
I141
sasS'hhints'
p10
(lp11
(dp12
g7
I680
sg8
I20
sass."
Layer: 2
Layer: 3
EndChar

StartChar: uni0054
Encoding: 79 84 79
GlifName: uni0054
Width: 485
VWidth: 0
Flags: W
HStem: 0 21<172 313 172 172> 0 21<172 313 172 172> 562 138<26 172 26 459 313 459 313 313>
VStem: 172 141<0 562 0 562>
LayerCount: 4
Back
Fore
SplineSet
459 700 m 257xb0
 459 562 l 257
 313 562 l 257
 313 0 l 257
 172 0 l 257
 172 562 l 257
 26 562 l 257
 26 700 l 257
 459 700 l 257xb0
EndSplineSet
PickledDataWithLists: "(dp1
S'com.fontlab.hintData'
p2
(dp3
S'vhints'
p4
(lp5
(dp6
S'position'
p7
I172
sS'width'
p8
I141
sasS'hhints'
p9
(lp10
(dp11
g7
I0
sg8
I21
sa(dp12
g7
I0
sg8
I21
sa(dp13
g7
I562
sg8
I138
sass."
Layer: 2
Layer: 3
EndChar

StartChar: uni0055
Encoding: 80 85 80
GlifName: uni0055
Width: 512
VWidth: 0
Flags: W
HStem: -5 142<226.5 229 226.5 229 283 285.5 226.5 313.5> 680 20<32 173 173 173 339 479 479 479>
VStem: 32 141<193 700 193 700> 339 140<193 700>
LayerCount: 4
Back
Fore
SplineSet
229 -5 m 257
 169 -5 32 49 32 193 c 258
 32 700 l 257
 173 700 l 257
 173 193 l 257
 174 147 224 137 229 137 c 257
 229 -5 l 257
283 -5 m 257
 283 137 l 257
 288 137 338 147 339 193 c 257
 339 700 l 257
 479 700 l 257
 479 193 l 258
 479 48 344 -5 283 -5 c 257
EndSplineSet
PickledDataWithLists: "(dp1
S'com.fontlab.hintData'
p2
(dp3
S'vhints'
p4
(lp5
(dp6
S'position'
p7
I32
sS'width'
p8
I141
sa(dp9
g7
I339
sg8
I140
sasS'hhints'
p10
(lp11
(dp12
g7
I-5
sg8
I142
sa(dp13
g7
I680
sg8
I20
sass."
Layer: 2
Layer: 3
EndChar

StartChar: uni0056
Encoding: 81 86 81
GlifName: uni0056
Width: 508
VWidth: 0
Flags: W
HStem: 0 21<229 276 229 229> 0 21<229 276 229 229> 680 20<26 170 170 170 338 482 482 482>
LayerCount: 4
Back
Fore
SplineSet
26 700 m 257xa0
 170 700 l 257
 329 158 l 257
 276 0 l 257
 229 0 l 257
 26 700 l 257xa0
482 700 m 257
 442 569 401 430 359 290 c 257
 349 290 l 257
 283 514 l 257
 338 700 l 257
 482 700 l 257
EndSplineSet
PickledDataWithLists: "(dp1
S'com.fontlab.hintData'
p2
(dp3
S'hhints'
p4
(lp5
(dp6
S'position'
p7
I0
sS'width'
p8
I21
sa(dp9
g7
I0
sg8
I21
sa(dp10
g7
I680
sg8
I20
sass."
Layer: 2
Layer: 3
EndChar

StartChar: uni0057
Encoding: 82 87 82
GlifName: uni0057
Width: 725
VWidth: 0
Flags: W
HStem: 0 21<229 276 229 229 442 442 442 489> 0 21<229 276 229 229 442 442 442 489> 680 20<26 170 170 170 239 383 383 383 555 699 699 699>
LayerCount: 4
Back
Fore
SplineSet
26 700 m 257xa0
 170 700 l 257
 328 158 l 257
 276 0 l 257
 229 0 l 257
 26 700 l 257xa0
239 700 m 257
 383 700 l 257
 541 158 l 257
 489 0 l 257
 442 0 l 257
 239 700 l 257
699 700 m 257
 576 290 l 257
 566 290 l 257
 500 514 l 257
 555 700 l 257
 699 700 l 257
EndSplineSet
PickledDataWithLists: "(dp1
S'com.fontlab.hintData'
p2
(dp3
S'hhints'
p4
(lp5
(dp6
S'position'
p7
I0
sS'width'
p8
I21
sa(dp9
g7
I0
sg8
I21
sa(dp10
g7
I680
sg8
I20
sass."
Layer: 2
Layer: 3
EndChar

StartChar: uni0058
Encoding: 83 88 83
GlifName: uni0058
Width: 464
VWidth: 0
Flags: W
HStem: 0 21<26 171 26 26 293 438 293 293> 0 21<26 171 26 26 293 438 293 293> 680 20<38 175 175 175 289 426 426 426>
LayerCount: 4
Back
Fore
SplineSet
426 700 m 257xa0
 302 361 l 257
 438 0 l 257
 293 0 l 257
 232 167 l 257
 171 0 l 257
 26 0 l 257
 162 361 l 257
 38 700 l 257
 175 700 l 257
 232 548 l 257
 289 700 l 257
 426 700 l 257xa0
EndSplineSet
PickledDataWithLists: "(dp1
S'com.fontlab.hintData'
p2
(dp3
S'hhints'
p4
(lp5
(dp6
S'position'
p7
I0
sS'width'
p8
I21
sa(dp9
g7
I0
sg8
I21
sa(dp10
g7
I680
sg8
I20
sass."
Layer: 2
Layer: 3
EndChar

StartChar: uni0059
Encoding: 84 89 84
GlifName: uni0059
Width: 479
VWidth: 0
Flags: W
HStem: 0 21<157 303 157 157> 0 21<157 303 157 157> 680 20<26 173 173 173 308 453 453 453>
VStem: 157 146<0 252 252 252>
LayerCount: 4
Back
Fore
SplineSet
26 700 m 257xb0
 173 700 l 257
 303 253 l 257
 303 0 l 257
 157 0 l 257
 157 252 l 257
 26 700 l 257xb0
269 565 m 257
 308 700 l 257
 453 700 l 257
 344 331 l 257
 335 331 l 257
 269 565 l 257
EndSplineSet
PickledDataWithLists: "(dp1
S'com.fontlab.hintData'
p2
(dp3
S'vhints'
p4
(lp5
(dp6
S'position'
p7
I157
sS'width'
p8
I146
sasS'hhints'
p9
(lp10
(dp11
g7
I0
sg8
I21
sa(dp12
g7
I0
sg8
I21
sa(dp13
g7
I680
sg8
I20
sass."
Layer: 2
Layer: 3
EndChar

StartChar: uni005A
Encoding: 85 90 85
GlifName: uni005A_
Width: 418
VWidth: 0
Flags: W
HStem: 0 144<182 392 182 392> 560 140<26 236 26 392>
VStem: 26 366<0 141 141 141 563 700>
LayerCount: 4
Back
Fore
SplineSet
182 144 m 257
 392 144 l 257
 392 0 l 257
 26 0 l 257
 26 141 l 257
 236 560 l 257
 26 560 l 257
 26 700 l 257
 392 700 l 257
 392 563 l 257
 182 144 l 257
EndSplineSet
PickledDataWithLists: "(dp1
S'com.fontlab.hintData'
p2
(dp3
S'vhints'
p4
(lp5
(dp6
S'position'
p7
I26
sS'width'
p8
I366
sasS'hhints'
p9
(lp10
(dp11
g7
I0
sg8
I144
sa(dp12
g7
I560
sg8
I140
sass."
Layer: 2
Layer: 3
EndChar

StartChar: uni005B
Encoding: 86 91 86
GlifName: uni005B_
Width: 258
VWidth: 0
Flags: W
HStem: -36 110<180 244 180 244> 629 110<183 244 183 183>
VStem: 50 194<-36 74 629 739> 50 130<74 74 74 739>
LayerCount: 4
Back
Fore
SplineSet
244 739 m 257xe0
 244 629 l 257xe0
 183 629 l 257
 180 74 l 257xd0
 244 74 l 257
 244 -36 l 257
 50 -36 l 257
 50 739 l 257
 244 739 l 257xe0
EndSplineSet
PickledDataWithLists: "(dp1
S'com.fontlab.hintData'
p2
(dp3
S'vhints'
p4
(lp5
(dp6
S'position'
p7
I50
sS'width'
p8
I194
sa(dp9
g7
I50
sg8
I130
sasS'hhints'
p10
(lp11
(dp12
g7
I-36
sg8
I110
sa(dp13
g7
I629
sg8
I110
sass."
Layer: 2
Layer: 3
EndChar

StartChar: uni005C
Encoding: 87 92 87
GlifName: uni005C_
Width: 402
VWidth: 0
Flags: W
VStem: 50 301
LayerCount: 4
Back
Fore
SplineSet
351 -23 m 257
 224 -23 l 257
 50 716 l 257
 176 716 l 257
 351 -23 l 257
EndSplineSet
PickledDataWithLists: "(dp1
S'com.fontlab.hintData'
p2
(dp3
S'vhints'
p4
(lp5
(dp6
S'position'
p7
I50
sS'width'
p8
I301
sass."
Layer: 2
Layer: 3
EndChar

StartChar: uni005D
Encoding: 88 93 88
GlifName: uni005D_
Width: 258
VWidth: 0
Flags: W
HStem: -36 110<14 78 14 208 14 78> 629 110<14 75 14 208>
VStem: 14 194<-36 74 74 74 629 739 -36 739> 78 130<74 74>
LayerCount: 4
Back
Fore
SplineSet
14 739 m 257xe0
 208 739 l 257
 208 -36 l 257
 14 -36 l 257
 14 74 l 257xe0
 78 74 l 257xd0
 75 629 l 257
 14 629 l 257
 14 739 l 257xe0
EndSplineSet
PickledDataWithLists: "(dp1
S'com.fontlab.hintData'
p2
(dp3
S'vhints'
p4
(lp5
(dp6
S'position'
p7
I14
sS'width'
p8
I194
sa(dp9
g7
I78
sg8
I130
sasS'hhints'
p10
(lp11
(dp12
g7
I-36
sg8
I110
sa(dp13
g7
I629
sg8
I110
sass."
Layer: 2
Layer: 3
EndChar

StartChar: uni005E
Encoding: 89 94 89
GlifName: uni005E_
Width: 374
VWidth: 0
Flags: W
HStem: 460 296<27 264 27 264 176 290 176 413>
LayerCount: 4
Back
Fore
SplineSet
27 460 m 257
 176 756 l 257
 264 756 l 257
 413 460 l 257
 290 460 l 257
 219 603 l 257
 149 460 l 257
 27 460 l 257
EndSplineSet
PickledDataWithLists: "(dp1
S'com.fontlab.hintData'
p2
(dp3
S'hhints'
p4
(lp5
(dp6
S'position'
p7
I460
sS'width'
p8
I296
sass."
Layer: 2
Layer: 3
EndChar

StartChar: uni005F
Encoding: 90 95 90
GlifName: uni005F_
Width: 510
VWidth: 0
Flags: W
HStem: -205 107<30 480 30 480>
LayerCount: 4
Back
Fore
SplineSet
480 -205 m 257
 30 -205 l 257
 30 -98 l 257
 480 -98 l 257
 480 -205 l 257
EndSplineSet
PickledDataWithLists: "(dp1
S'com.fontlab.hintData'
p2
(dp3
S'hhints'
p4
(lp5
(dp6
S'position'
p7
I-205
sS'width'
p8
I107
sass."
Layer: 2
Layer: 3
EndChar

StartChar: uni0060
Encoding: 91 96 91
GlifName: uni0060
Width: 263
VWidth: 0
Flags: W
HStem: 605 152<122 122 122 176 49 213>
VStem: 49 164<605 757>
LayerCount: 4
Back
Fore
SplineSet
122 605 m 257
 49 757 l 257
 176 757 l 257
 213 605 l 257
 122 605 l 257
EndSplineSet
PickledDataWithLists: "(dp1
S'com.fontlab.hintData'
p2
(dp3
S'vhints'
p4
(lp5
(dp6
S'position'
p7
I49
sS'width'
p8
I164
sasS'hhints'
p9
(lp10
(dp11
g7
I605
sg8
I152
sass."
Layer: 2
Layer: 3
EndChar

StartChar: uni0061
Encoding: 92 97 92
GlifName: uni0061
Width: 435
VWidth: 0
Flags: W
HStem: 1 112<163 180 163 180 229 232 163 229>
VStem: 26 101<139 149 149 162 139 167 139 183.5> 268 116<149 227 227 227 351 363 361 375>
LayerCount: 4
Back
Fore
SplineSet
228 519 m 257
 231 519 l 258
 334 519 384 424 384 380 c 258
 384 143 l 258
 384 138 386 114 407 114 c 258
 410 114 l 257
 410 1 l 257
 407 1 l 258
 370 1 341 13 321 30 c 257
 298 12 268 1 232 1 c 258
 229 1 l 257
 229 113 l 257
 232 113 l 258
 262 114 268 146 268 149 c 258
 268 227 l 257
 230 205 153 190 139 183 c 256
 133 180 127 173 127 162 c 258
 127 149 l 258
 127 129 137 113 163 113 c 258
 180 113 l 257
 180 1 l 257
 83 1 26 64 26 121 c 258
 26 167 l 258
 26 200 33 233 75 257 c 256
 118 282 268 311 268 351 c 256
 268 355 268 359 268 363 c 256
 268 387 266 404 231 407 c 256
 228 408 l 257
 228 519 l 257
181 407 m 261
 178 407 l 262
 155 405 138 390 138 353 c 262
 138 349 l 261
 33 389 l 261
 33 391 l 262
 33 462 110 519 178 519 c 262
 181 519 l 261
 181 407 l 261
EndSplineSet
PickledDataWithLists: "(dp1
S'com.fontlab.hintData'
p2
(dp3
S'vhints'
p4
(lp5
(dp6
S'position'
p7
I26
sS'width'
p8
I101
sa(dp9
g7
I268
sg8
I116
sasS'hhints'
p10
(lp11
(dp12
g7
I1
sg8
I112
sass."
Layer: 2
Layer: 3
EndChar

StartChar: uni0062
Encoding: 93 98 93
GlifName: uni0062
Width: 414
VWidth: 0
Flags: W
HStem: 0 118<30 236 203 236 203 236> 398 118<203 236 236 237 203 236> 679 20<30 155 155 155> 679 20<30 155 155 155>
VStem: 30 125<0 699 0 699> 270 118<143 373 373 374>
LayerCount: 4
Back
Fore
SplineSet
30 0 m 257xec
 30 699 l 257
 155 699 l 257
 155 0 l 257
 30 0 l 257xec
270 373 m 257
 270 375 264 397 237 398 c 258
 203 398 l 257
 203 516 l 257
 236 516 l 258
 338 516 387 422 388 377 c 257
 388 141 l 258
 388 97 339 0 236 0 c 258
 203 0 l 257
 203 118 l 257
 236 118 l 258
 264 118 270 142 270 143 c 257
 270 373 l 257
EndSplineSet
PickledDataWithLists: "(dp1
S'com.fontlab.hintData'
p2
(dp3
S'vhints'
p4
(lp5
(dp6
S'position'
p7
I30
sS'width'
p8
I125
sa(dp9
g7
I270
sg8
I118
sasS'hhints'
p10
(lp11
(dp12
g7
I0
sg8
I118
sa(dp13
g7
I398
sg8
I118
sa(dp14
g7
I679
sg8
I20
sa(dp15
g7
I679
sg8
I20
sass."
Layer: 2
Layer: 3
EndChar

StartChar: uni0063
Encoding: 94 99 94
GlifName: uni0063
Width: 418
VWidth: 0
Flags: W
HStem: -1 117<243 249 243 249 249 250> 496 20<185 191 191 191 233 239 239 275.5>
VStem: 30 119<141 375>
LayerCount: 4
Back
Fore
SplineSet
266 383 m 257
 261 397 239 399 239 399 c 258
 238 399 237 399 236 399 c 258
 233 399 l 257
 233 516 l 257
 239 516 l 258
 312 516 381 448 381 376 c 258
 381 372 l 257
 270 330 l 257
 270 360 l 258
 270 370 270 375 266 383 c 257
243 -1 m 257
 243 116 l 257
 249 116 l 257
 251 116 272 119 277 132 c 257
 281 140 281 146 281 156 c 258
 281 186 l 257
 392 144 l 257
 392 140 l 258
 392 68 323 -1 250 -1 c 258
 243 -1 l 257
30 377 m 257
 31 421 80 516 185 516 c 258
 191 516 l 257
 191 400 l 257
 185 400 l 258
 154 400 149 377 149 375 c 258
 149 141 l 258
 149 139 154 115 194 115 c 256
 199 114 l 257
 199 0 l 257
 194 0 l 258
 79 0 30 97 30 141 c 258
 30 377 l 257
EndSplineSet
PickledDataWithLists: "(dp1
S'com.fontlab.hintData'
p2
(dp3
S'vhints'
p4
(lp5
(dp6
S'position'
p7
I30
sS'width'
p8
I119
sasS'hhints'
p9
(lp10
(dp11
g7
I-1
sg8
I117
sa(dp12
g7
I496
sg8
I20
sass."
Layer: 2
Layer: 3
EndChar

StartChar: uni0064
Encoding: 95 100 95
GlifName: uni0064
Width: 414
VWidth: 0
Flags: W
HStem: 0 118<130 210 182 210 182 258 182 384> 398 118<180 210 180 210> 678 20<258 384 384 384>
VStem: 30 118<142 143 143 373> 258 126<0 698>
LayerCount: 4
Back
Fore
SplineSet
180 516 m 258
 210 516 l 257
 210 398 l 257
 180 398 l 257
 153 397 148 375 148 373 c 258
 148 143 l 257
 148 141 154 118 182 118 c 258
 210 118 l 257
 210 0 l 257
 182 0 l 258
 78 0 30 97 30 141 c 258
 30 377 l 257
 31 422 79 516 180 516 c 258
384 0 m 257
 258 0 l 257
 258 698 l 257
 384 698 l 257
 384 0 l 257
EndSplineSet
PickledDataWithLists: "(dp1
S'com.fontlab.hintData'
p2
(dp3
S'vhints'
p4
(lp5
(dp6
S'position'
p7
I30
sS'width'
p8
I118
sa(dp9
g7
I258
sg8
I126
sasS'hhints'
p10
(lp11
(dp12
g7
I0
sg8
I118
sa(dp13
g7
I398
sg8
I118
sa(dp14
g7
I678
sg8
I20
sass."
Layer: 2
Layer: 3
EndChar

StartChar: uni0065
Encoding: 96 101 96
GlifName: uni0065
Width: 424
VWidth: 0
Flags: W
HStem: 0 111<131 242 183 242 236 242 236 242> 208 116<148 283 148 397 148 283> 402 114<236 240 182 236>
VStem: 26 122<141 208 324 369> 283 114<324 369 369 378>
LayerCount: 4
Back
Fore
SplineSet
240 402 m 258
 236 402 l 257
 236 516 l 257
 242 516 l 258
 312 516 397 450 397 378 c 258
 397 208 l 257
 148 208 l 257
 148 141 l 258
 148 138 155 109 183 108 c 258
 188 108 l 257
 188 0 l 257
 183 0 l 258
 79 0 26 96 26 141 c 258
 26 377 l 257
 27 422 80 516 182 516 c 258
 187 516 l 257
 187 400 l 257
 184 400 l 258
 155 400 148 380 148 369 c 258
 148 324 l 257
 283 324 l 257
 283 369 l 258
 283 396 260 402 240 402 c 258
236 0 m 257
 236 111 l 257
 242 111 l 258
 273 113 294 132 298 153 c 258
 299 157 l 257
 398 120 l 257
 397 118 l 256
 382 54 312 0 242 0 c 258
 236 0 l 257
EndSplineSet
PickledDataWithLists: "(dp1
S'com.fontlab.hintData'
p2
(dp3
S'vhints'
p4
(lp5
(dp6
S'position'
p7
I26
sS'width'
p8
I122
sa(dp9
g7
I283
sg8
I114
sasS'hhints'
p10
(lp11
(dp12
g7
I0
sg8
I111
sa(dp13
g7
I208
sg8
I116
sa(dp14
g7
I402
sg8
I114
sass."
Layer: 2
Layer: 3
EndChar

StartChar: uni0066
Encoding: 97 102 97
GlifName: uni0066
Width: 304
VWidth: 0
Flags: W
HStem: 0 21<89 211 89 89> 0 21<89 211 89 89> 400 116<26 89 26 89> 579 117<244 277 244 244>
VStem: 89 122<0 400 0 400 516 552>
LayerCount: 4
Back
Fore
SplineSet
89 552 m 258xb8
 89 597 140 695 243 696 c 258
 304 696 l 257
 277 579 l 257
 244 579 l 257
 216 578 211 555 211 552 c 258
 211 515 l 257
 277 516 l 257
 277 400 l 257
 211 400 l 257
 211 0 l 257
 89 0 l 257
 89 400 l 257
 26 400 l 257
 26 516 l 257
 89 516 l 257
 89 552 l 258xb8
EndSplineSet
PickledDataWithLists: "(dp1
S'com.fontlab.hintData'
p2
(dp3
S'vhints'
p4
(lp5
(dp6
S'position'
p7
I89
sS'width'
p8
I122
sasS'hhints'
p9
(lp10
(dp11
g7
I0
sg8
I21
sa(dp12
g7
I0
sg8
I21
sa(dp13
g7
I400
sg8
I116
sa(dp14
g7
I579
sg8
I117
sass."
Layer: 2
Layer: 3
EndChar

StartChar: uni0067
Encoding: 98 103 98
GlifName: uni0067
Width: 415
VWidth: 0
Flags: W
HStem: -181 112<54 234 54 236 26 234> -1 113<136.5 192 189 192 189 234 189 231> 403 113<173 192 189 192 231 234 189 231>
VStem: 35 115<139 140 140 375> 231 158<-1 109 109 109 403 516> 272 117<-40 3 3 3 139 374 374 375.5 511 516>
LayerCount: 4
Back
Fore
SplineSet
236 -181 m 257xf4
 26 -181 l 257
 54 -69 l 257
 234 -69 l 257
 265 -68 272 -43 272 -40 c 258
 272 3 l 257xf4
 260 0 248 -1 234 -1 c 258
 231 -1 l 257
 231 109 l 257xf8
 234 109 l 258
 265 110 272 136 272 139 c 258
 272 374 l 258xf4
 272 377 265 403 234 403 c 258
 231 403 l 257
 231 516 l 257xf8
 234 516 l 258
 247 516 261 514 272 511 c 257
 272 516 l 257xf4
 389 516 l 257xf8
 389 -40 l 258
 389 -83 339 -180 236 -181 c 257xf4
189 516 m 258
 192 516 l 257
 192 403 l 257
 189 403 l 258
 157 403 150 378 150 375 c 258
 150 140 l 258
 150 137 158 112 189 112 c 258
 192 112 l 257
 192 -1 l 257
 189 -1 l 258
 84 -1 35 96 35 139 c 258
 35 378 l 257
 36 422 85 516 189 516 c 258
EndSplineSet
PickledDataWithLists: "(dp1
S'com.fontlab.hintData'
p2
(dp3
S'vhints'
p4
(lp5
(dp6
S'position'
p7
I35
sS'width'
p8
I115
sa(dp9
g7
I231
sg8
I158
sa(dp10
g7
I272
sg8
I117
sasS'hhints'
p11
(lp12
(dp13
g7
I-181
sg8
I112
sa(dp14
g7
I-1
sg8
I113
sa(dp15
g7
I403
sg8
I113
sass."
Layer: 2
Layer: 3
EndChar

StartChar: uni0068
Encoding: 99 104 99
GlifName: uni0068
Width: 421
VWidth: 0
Flags: W
HStem: 1 21<30 145 30 30 281 281 281 395> 1 21<30 145 30 30 281 281 281 395> 399 112<190 193 190 193 190 238 238 241> 678 20<30 144 144 144>
VStem: 30 163<399 511 399 698> 30 115<1 365> 281 114<1 365 365 367>
LayerCount: 4
Back
Fore
SplineSet
145 1 m 257xb6
 30 1 l 257xb6
 30 698 l 257
 144 698 l 257
 144 505 l 257
 147 506 l 258
 159 509 176 511 190 511 c 258
 193 511 l 257
 193 399 l 257xba
 190 399 l 258
 158 396 145 370 145 365 c 258
 145 1 l 257xb6
238 511 m 257
 241 511 l 256
 338 507 395 444 395 374 c 258
 395 1 l 257
 281 1 l 257
 281 365 l 258
 281 369 275 396 241 399 c 258
 238 399 l 257
 238 511 l 257
EndSplineSet
PickledDataWithLists: "(dp1
S'com.fontlab.hintData'
p2
(dp3
S'vhints'
p4
(lp5
(dp6
S'position'
p7
I30
sS'width'
p8
I163
sa(dp9
g7
I30
sg8
I115
sa(dp10
g7
I281
sg8
I114
sasS'hhints'
p11
(lp12
(dp13
g7
I1
sg8
I21
sa(dp14
g7
I1
sg8
I21
sa(dp15
g7
I399
sg8
I112
sa(dp16
g7
I678
sg8
I20
sass."
Layer: 2
Layer: 3
EndChar

StartChar: uni0069
Encoding: 100 105 100
GlifName: uni0069
Width: 199
VWidth: 0
Flags: W
HStem: 0 21<39 161 39 39> 0 21<39 161 39 39> 496 20<39 161 161 161> 558 145<79 119>
VStem: 26 146<610.5 650> 39 122<0 516>
LayerCount: 4
Back
Fore
SplineSet
172 630 m 256x38
 172 591 139 558 99 558 c 256
 59 558 26 591 26 630 c 256
 26 670 59 703 99 703 c 256
 139 703 172 670 172 630 c 256x38
161 0 m 257xb4
 39 0 l 257
 39 516 l 257
 161 516 l 257
 161 0 l 257xb4
EndSplineSet
PickledDataWithLists: "(dp1
S'com.fontlab.hintData'
p2
(dp3
S'vhints'
p4
(lp5
(dp6
S'position'
p7
I26
sS'width'
p8
I146
sa(dp9
g7
I39
sg8
I122
sasS'hhints'
p10
(lp11
(dp12
g7
I0
sg8
I21
sa(dp13
g7
I0
sg8
I21
sa(dp14
g7
I496
sg8
I20
sa(dp15
g7
I558
sg8
I145
sass."
Layer: 2
Layer: 3
EndChar

StartChar: uni006A
Encoding: 101 106 101
GlifName: uni006A_
Width: 194
VWidth: 0
Flags: W
HStem: -181 117<-23 4 -23 7 -50 4> 496 20<37 159 159 159> 556 146<77 117>
VStem: 24 146<608 648> 37 122<-38 516>
LayerCount: 4
Back
Fore
SplineSet
159 -38 m 258xe8
 159 -85 109 -181 7 -181 c 258
 -50 -181 l 257
 -23 -64 l 257
 4 -64 l 257
 32 -63 37 -40 37 -38 c 258
 37 516 l 257
 159 516 l 257
 159 -38 l 258xe8
170 628 m 256xf0
 170 588 137 556 97 556 c 256
 57 556 24 588 24 628 c 256
 24 668 57 702 97 702 c 256
 137 702 170 668 170 628 c 256xf0
EndSplineSet
PickledDataWithLists: "(dp1
S'com.fontlab.hintData'
p2
(dp3
S'vhints'
p4
(lp5
(dp6
S'position'
p7
I24
sS'width'
p8
I146
sa(dp9
g7
I37
sg8
I122
sasS'hhints'
p10
(lp11
(dp12
g7
I-181
sg8
I117
sa(dp13
g7
I496
sg8
I20
sa(dp14
g7
I556
sg8
I146
sass."
Layer: 2
Layer: 3
EndChar

StartChar: uni006B
Encoding: 102 107 102
GlifName: uni006B_
Width: 452
VWidth: 0
Flags: W
HStem: 0 21<30 155 30 30 296 428 296 296> 0 21<30 155 30 30 296 428 296 296> 494 20<295 428 428 428> 678 20<30 155 155 155>
VStem: 30 125<0 698>
LayerCount: 4
Back
Fore
SplineSet
155 0 m 257xb8
 30 0 l 257
 30 698 l 257
 155 698 l 257
 155 0 l 257xb8
296 0 m 257
 183 257 l 257
 295 514 l 257
 428 514 l 257
 313 257 l 257
 428 0 l 257
 296 0 l 257
EndSplineSet
PickledDataWithLists: "(dp1
S'com.fontlab.hintData'
p2
(dp3
S'vhints'
p4
(lp5
(dp6
S'position'
p7
I30
sS'width'
p8
I125
sasS'hhints'
p9
(lp10
(dp11
g7
I0
sg8
I21
sa(dp12
g7
I0
sg8
I21
sa(dp13
g7
I494
sg8
I20
sa(dp14
g7
I678
sg8
I20
sass."
Layer: 2
Layer: 3
EndChar

StartChar: uni006C
Encoding: 103 108 103
GlifName: uni006C_
Width: 184
VWidth: 0
Flags: W
HStem: 0 21<30 161 30 30> 0 21<30 161 30 30> 678 20<30 161 161 161>
VStem: 30 131<0 698>
LayerCount: 4
Back
Fore
SplineSet
161 0 m 257xb0
 30 0 l 257
 30 698 l 257
 161 698 l 257
 161 0 l 257xb0
EndSplineSet
PickledDataWithLists: "(dp1
S'com.fontlab.hintData'
p2
(dp3
S'vhints'
p4
(lp5
(dp6
S'position'
p7
I30
sS'width'
p8
I131
sasS'hhints'
p9
(lp10
(dp11
g7
I0
sg8
I21
sa(dp12
g7
I0
sg8
I21
sa(dp13
g7
I678
sg8
I20
sass."
Layer: 2
Layer: 3
EndChar

StartChar: uni006D
Encoding: 104 109 104
GlifName: uni006D_
Width: 684
VWidth: 0
Flags: W
HStem: 0 21<30 154 30 30 280 404 280 280 530 530 530 654> 0 21<30 154 30 30 280 404 280 280 530 530 530 654> 398 121<174 195 189 195 189 237 237 243 441 447 488 494>
VStem: 30 124<0 372 0 377 0 401> 280 124<0 372 0 373.5> 530 124<0 372 372 373.5>
CounterMasks: 1 1c
LayerCount: 4
Back
Fore
SplineSet
154 372 m 257xbc
 154 0 l 257
 30 0 l 257
 30 377 l 258
 30 425 84 519 189 519 c 258
 195 519 l 257
 195 398 l 257
 189 398 l 258
 159 398 154 374 154 372 c 257xbc
530 372 m 257
 530 375 524 398 494 398 c 258
 488 398 l 257
 488 519 l 257
 494 519 l 258
 600 519 654 422 654 377 c 258
 654 0 l 257
 530 0 l 257
 530 372 l 257
280 0 m 257
 280 372 l 258
 280 375 273 398 243 398 c 258
 237 398 l 257
 237 519 l 257
 243 519 l 258
 285 519 317 505 342 486 c 257
 367 506 399 519 441 519 c 258
 447 519 l 257
 447 398 l 257
 441 398 l 258
 410 398 404 374 404 372 c 257
 404 0 l 257
 280 0 l 257
EndSplineSet
PickledDataWithLists: "(dp1
S'com.fontlab.hintData'
p2
(dp3
S'vhints'
p4
(lp5
(dp6
S'position'
p7
I30
sS'width'
p8
I124
sa(dp9
g7
I280
sg8
I124
sa(dp10
g7
I530
sg8
I124
sasS'hhints'
p11
(lp12
(dp13
g7
I0
sg8
I21
sa(dp14
g7
I0
sg8
I21
sa(dp15
g7
I398
sg8
I121
sass."
Layer: 2
Layer: 3
EndChar

StartChar: uni006E
Encoding: 105 110 105
GlifName: uni006E_
Width: 434
VWidth: 0
Flags: W
HStem: 0 21<30 154 30 30 280 404 280 280> 0 21<30 154 30 30 280 404 280 280> 398 121<175.5 196 191 196 238 243 191 238>
VStem: 30 124<0 372 0 377 0 401> 280 124<0 372 372 373.5>
LayerCount: 4
Back
Fore
SplineSet
280 372 m 257xb8
 280 375 273 398 243 398 c 258
 238 398 l 257
 238 519 l 257
 243 519 l 258
 350 519 404 422 404 377 c 258
 404 0 l 257
 280 0 l 257
 280 372 l 257xb8
154 372 m 257
 154 0 l 257
 30 0 l 257
 30 377 l 258
 30 425 84 519 191 519 c 258
 196 519 l 257
 196 398 l 257
 191 398 l 258
 160 398 154 374 154 372 c 257
EndSplineSet
PickledDataWithLists: "(dp1
S'com.fontlab.hintData'
p2
(dp3
S'vhints'
p4
(lp5
(dp6
S'position'
p7
I30
sS'width'
p8
I124
sa(dp9
g7
I280
sg8
I124
sasS'hhints'
p10
(lp11
(dp12
g7
I0
sg8
I21
sa(dp13
g7
I0
sg8
I21
sa(dp14
g7
I398
sg8
I121
sass."
Layer: 2
Layer: 3
EndChar

StartChar: uni006F
Encoding: 106 111 106
GlifName: uni006F_
Width: 420
VWidth: 0
Flags: W
HStem: -1 118<132 192 186 192 186 233 233 239> 398 118<169.5 192 186 192 233 239 186 233>
VStem: 28 120<144.5 154 154 363> 275 117<152 363 363 371.5>
LayerCount: 4
Back
Fore
SplineSet
28 376 m 258
 28 421 79 516 186 516 c 258
 192 516 l 257
 192 398 l 257
 186 398 l 258
 153 398 148 373 148 363 c 257
 148 154 l 257
 148 135 156 117 186 117 c 258
 192 117 l 257
 192 -1 l 257
 186 -1 l 258
 78 -1 28 97 28 141 c 258
 28 376 l 258
233 398 m 257
 233 516 l 257
 239 516 l 258
 342 516 392 421 392 376 c 258
 392 141 l 258
 392 96 343 -1 239 -1 c 258
 233 -1 l 257
 233 117 l 257
 239 117 l 258
 270 118 275 141 275 152 c 257
 275 363 l 257
 275 380 269 398 239 398 c 258
 233 398 l 257
EndSplineSet
PickledDataWithLists: "(dp1
S'com.fontlab.hintData'
p2
(dp3
S'vhints'
p4
(lp5
(dp6
S'position'
p7
I28
sS'width'
p8
I120
sa(dp9
g7
I275
sg8
I117
sasS'hhints'
p10
(lp11
(dp12
g7
I-1
sg8
I118
sa(dp13
g7
I398
sg8
I118
sass."
Layer: 2
Layer: 3
EndChar

StartChar: uni0070
Encoding: 107 112 107
GlifName: uni0070
Width: 422
VWidth: 0
Flags: W
HStem: 0 118<203 232 203 234> 398 118<196 228 30 196>
VStem: 30 125<-182 516 -182 516> 276 120<143 372 372 375>
LayerCount: 4
Back
Fore
SplineSet
232 0 m 258
 203 0 l 257
 203 118 l 257
 234 118 l 257
 271 119 276 134 276 143 c 258
 276 372 l 257
 276 385 258 398 228 398 c 258
 196 398 l 257
 196 516 l 257
 228 516 l 258
 335 516 396 431 396 375 c 258
 396 139 l 257
 396 86 345 0 232 0 c 258
30 516 m 257
 155 516 l 257
 155 -182 l 257
 30 -182 l 257
 30 516 l 257
EndSplineSet
PickledDataWithLists: "(dp1
S'com.fontlab.hintData'
p2
(dp3
S'vhints'
p4
(lp5
(dp6
S'position'
p7
I30
sS'width'
p8
I125
sa(dp9
g7
I276
sg8
I120
sasS'hhints'
p10
(lp11
(dp12
g7
I0
sg8
I118
sa(dp13
g7
I398
sg8
I118
sass."
Layer: 2
Layer: 3
EndChar

StartChar: uni0071
Encoding: 108 113 108
GlifName: uni0071
Width: 416
VWidth: 0
Flags: W
HStem: 0 118<188 190 190 219> 398 118<167 214 183 214>
VStem: 26 120<142 143 143 373> 262 124<-182 -182>
LayerCount: 4
Back
Fore
SplineSet
146 143 m 258
 146 141 150 119 188 118 c 258
 219 118 l 257
 219 0 l 257
 190 0 l 258
 77 0 27 93 26 139 c 257
 26 375 l 258
 26 420 76 516 183 516 c 258
 214 516 l 257
 214 398 l 257
 183 398 l 258
 151 398 146 375 146 373 c 257
 146 143 l 258
385 516 m 257
 386 -182 l 257
 262 -182 l 257
 261 516 l 257
 385 516 l 257
EndSplineSet
PickledDataWithLists: "(dp1
S'com.fontlab.hintData'
p2
(dp3
S'vhints'
p4
(lp5
(dp6
S'position'
p7
I26
sS'width'
p8
I120
sa(dp9
g7
I262
sg8
I124
sasS'hhints'
p10
(lp11
(dp12
g7
I0
sg8
I118
sa(dp13
g7
I398
sg8
I118
sass."
Layer: 2
Layer: 3
EndChar

StartChar: uni0072
Encoding: 109 114 109
GlifName: uni0072
Width: 316
VWidth: 0
Flags: W
HStem: 0 21<36 160 36 36> 395 121<289 289>
VStem: 36 124<0 271 454 516>
LayerCount: 4
Back
Fore
SplineSet
36 516 m 257
 160 516 l 257
 160 454 l 257
 181 481 229 516 284 516 c 258
 317 516 l 257
 289 395 l 257
 222 394 160 331 160 271 c 258
 160 0 l 257
 36 0 l 257
 36 516 l 257
EndSplineSet
PickledDataWithLists: "(dp1
S'com.fontlab.hintData'
p2
(dp3
S'vhints'
p4
(lp5
(dp6
S'position'
p7
I36
sS'width'
p8
I124
sasS'hhints'
p9
(lp10
(dp11
g7
I0
sg8
I21
sa(dp12
g7
I395
sg8
I121
sass."
Layer: 2
Layer: 3
EndChar

StartChar: uni0073
Encoding: 110 115 110
GlifName: uni0073
Width: 418
VWidth: 0
Flags: W
HStem: 404 113<224 226 179 223>
VStem: 26 112<353 369.5 353 422> 280 117<136.5 175.5>
LayerCount: 4
Back
Fore
SplineSet
22 134 m 256
 21 136 l 257
 133 157 l 257
 133 154 l 258
 135 135 157 113 181 111 c 256
 184 110 l 257
 184 -5 l 257
 181 -5 l 258
 87 -5 25 70 22 134 c 256
388 376 m 258
 388 374 l 257
 276 355 l 257
 276 358 l 256
 272 399 234 404 226 404 c 258
 223 404 l 257
 224 517 l 257
 227 517 l 258
 321 517 388 440 388 376 c 258
182 406 m 257
 180 406 l 256
 140 402 138 377 138 362 c 256
 138 344 153 323 294 296 c 256
 346 286 397 243 397 160 c 256
 397 57 321 -5 228 -5 c 258
 225 -5 l 257
 225 109 l 257
 228 109 l 258
 243 110 280 120 280 153 c 256
 280 198 168 206 111 232 c 256
 62 256 26 287 26 371 c 256
 26 473 125 517 179 517 c 258
 182 517 l 257
 182 406 l 257
EndSplineSet
PickledDataWithLists: "(dp1
S'com.fontlab.hintData'
p2
(dp3
S'vhints'
p4
(lp5
(dp6
S'position'
p7
I26
sS'width'
p8
I112
sa(dp9
g7
I280
sg8
I117
sasS'hhints'
p10
(lp11
(dp12
g7
I404
sg8
I113
sass."
Layer: 2
Layer: 3
EndChar

StartChar: uni0074
Encoding: 111 116 111
GlifName: uni0074
Width: 324
VWidth: 0
Flags: W
HStem: 0 125<244 271 244 298 243 271> 398 118<26 89 26 89 211 271> 680 20<89 211 211 211>
VStem: 89 122<168 398 516 700>
LayerCount: 4
Back
Fore
SplineSet
244 125 m 258
 271 125 l 257
 298 0 l 257
 243 0 l 258
 121 1 89 66 89 168 c 258
 89 398 l 257
 26 398 l 257
 26 516 l 257
 89 516 l 257
 89 700 l 257
 211 700 l 257
 211 516 l 257
 271 516 l 257
 271 398 l 257
 211 398 l 257
 211 159 l 258
 211 145 216 126 244 125 c 258
EndSplineSet
PickledDataWithLists: "(dp1
S'com.fontlab.hintData'
p2
(dp3
S'vhints'
p4
(lp5
(dp6
S'position'
p7
I89
sS'width'
p8
I122
sasS'hhints'
p9
(lp10
(dp11
g7
I0
sg8
I125
sa(dp12
g7
I398
sg8
I118
sa(dp13
g7
I680
sg8
I20
sass."
Layer: 2
Layer: 3
EndChar

StartChar: uni0075
Encoding: 112 117 112
GlifName: uni0075
Width: 434
VWidth: 0
Flags: W
HStem: -5 121<137.5 196 191 196 238 243 191 238> 494 20<30 154 154 154 280 404 404 404>
VStem: 30 124<140.5 142 142 514> 280 124<142 514>
LayerCount: 4
Back
Fore
SplineSet
238 116 m 257
 243 116 l 258
 274 116 280 140 280 142 c 257
 280 514 l 257
 404 514 l 257
 404 137 l 258
 404 92 350 -5 243 -5 c 258
 238 -5 l 257
 238 116 l 257
30 514 m 257
 154 514 l 257
 154 142 l 257
 154 139 160 116 191 116 c 258
 196 116 l 257
 196 -5 l 257
 191 -5 l 258
 84 -5 30 89 30 137 c 258
 30 514 l 257
EndSplineSet
PickledDataWithLists: "(dp1
S'com.fontlab.hintData'
p2
(dp3
S'vhints'
p4
(lp5
(dp6
S'position'
p7
I30
sS'width'
p8
I124
sa(dp9
g7
I280
sg8
I124
sasS'hhints'
p10
(lp11
(dp12
g7
I-5
sg8
I121
sa(dp13
g7
I494
sg8
I20
sass."
Layer: 2
Layer: 3
EndChar

StartChar: uni0076
Encoding: 113 118 113
GlifName: uni0076
Width: 400
VWidth: 0
Flags: W
HStem: 0 21<174 174 174 243> 0 21<174 174 174 243> 496 20<151 151 269 269>
LayerCount: 4
Back
Fore
SplineSet
174 0 m 257xa0
 16 515 l 257
 151 516 l 257
 286 120 l 257
 243 0 l 257
 174 0 l 257xa0
269 516 m 257
 400 515 l 257
 308 208 l 257
 296 208 l 257
 232 394 l 257
 269 516 l 257
EndSplineSet
PickledDataWithLists: "(dp1
S'com.fontlab.hintData'
p2
(dp3
S'hhints'
p4
(lp5
(dp6
S'position'
p7
I0
sS'width'
p8
I21
sa(dp9
g7
I0
sg8
I21
sa(dp10
g7
I496
sg8
I20
sass."
Layer: 2
Layer: 3
EndChar

StartChar: uni0077
Encoding: 114 119 114
GlifName: uni0077
Width: 577
VWidth: 0
Flags: W
HStem: 0 21<160 160 160 222 348 412 348 348> 0 21<160 160 160 222 348 412 348 348> 496 20<144 144 328 328 443 443>
LayerCount: 4
Back
Fore
SplineSet
160 0 m 257xa0
 8 515 l 257
 144 516 l 257
 261 120 l 257
 222 0 l 257
 160 0 l 257xa0
348 0 m 257
 190 515 l 257
 328 516 l 257
 449 120 l 257
 412 0 l 257
 348 0 l 257
443 516 m 257
 569 515 l 257
 471 208 l 257
 463 208 l 257
 407 394 l 257
 443 516 l 257
EndSplineSet
PickledDataWithLists: "(dp1
S'com.fontlab.hintData'
p2
(dp3
S'hhints'
p4
(lp5
(dp6
S'position'
p7
I0
sS'width'
p8
I21
sa(dp9
g7
I0
sg8
I21
sa(dp10
g7
I496
sg8
I20
sass."
Layer: 2
Layer: 3
EndChar

StartChar: uni0078
Encoding: 115 120 115
GlifName: uni0078
Width: 381
VWidth: 0
Flags: W
HStem: 0 21<18 143 18 18 257 382 257 257> 0 21<18 143 18 18 257 382 257 257> 496 19
LayerCount: 4
Back
Fore
SplineSet
132 262 m 257xa0
 22 516 l 257
 147 516 l 257
 200 399 l 257
 252 515 l 257
 378 515 l 257
 269 262 l 257
 382 0 l 257
 257 0 l 257
 200 126 l 257
 143 0 l 257
 18 0 l 257
 132 262 l 257xa0
EndSplineSet
PickledDataWithLists: "(dp1
S'com.fontlab.hintData'
p2
(dp3
S'hhints'
p4
(lp5
(dp6
S'position'
p7
I0
sS'width'
p8
I21
sa(dp9
g7
I0
sg8
I21
sa(dp10
g7
I496
sg8
I19
sass."
Layer: 2
Layer: 3
EndChar

StartChar: uni0079
Encoding: 116 121 116
GlifName: uni0079
Width: 383
VWidth: 0
Flags: W
HStem: 495 20<131 131 251 251>
VStem: 188 1
LayerCount: 4
Back
Fore
SplineSet
118 113 m 257
 0 514 l 257
 131 515 l 257
 188 327 l 257
 188 328 189 328 189 329 c 257
 252 111 l 257
 155 -182 l 257
 29 -182 l 257
 118 113 l 257
251 515 m 257
 382 514 l 257
 279 208 l 257
 267 208 l 257
 213 393 l 257
 251 515 l 257
EndSplineSet
PickledDataWithLists: "(dp1
S'com.fontlab.hintData'
p2
(dp3
S'vhints'
p4
(lp5
(dp6
S'position'
p7
I188
sS'width'
p8
I1
sasS'hhints'
p9
(lp10
(dp11
g7
I495
sg8
I20
sass."
Layer: 2
Layer: 3
EndChar

StartChar: uni007A
Encoding: 117 122 117
GlifName: uni007A_
Width: 348
VWidth: 0
Flags: W
HStem: 0 118<169 169 169 322> 394 120<26 183 26 322>
VStem: 26 296<0 116 116 116 400 514>
LayerCount: 4
Back
Fore
SplineSet
322 400 m 257
 169 118 l 257
 322 117 l 257
 322 0 l 257
 26 0 l 257
 26 116 l 257
 183 394 l 257
 26 394 l 257
 26 514 l 257
 322 514 l 257
 322 400 l 257
EndSplineSet
PickledDataWithLists: "(dp1
S'com.fontlab.hintData'
p2
(dp3
S'vhints'
p4
(lp5
(dp6
S'position'
p7
I26
sS'width'
p8
I296
sasS'hhints'
p9
(lp10
(dp11
g7
I0
sg8
I118
sa(dp12
g7
I394
sg8
I120
sass."
Layer: 2
Layer: 3
EndChar

StartChar: uni007B
Encoding: 118 123 118
GlifName: uni007B_
Width: 407
VWidth: 0
Flags: W
HStem: -38 99<280 292 289 307> 635 100<273 307>
VStem: 112 127<192 207 207 290 290 304 146.5 306 408 469>
LayerCount: 4
Back
Fore
SplineSet
307 735 m 257
 307 635 l 257
 239 635 240 591 239 469 c 257
 239 383 l 258
 239 366 219 354 195 348 c 257
 220 340 239 325 239 304 c 258
 239 207 l 258
 239 86 253 61 307 61 c 257
 307 -38 l 257
 301 -38 295 -38 289 -38 c 256
 200 -38 112 -31 112 192 c 258
 112 290 l 258
 112 322 86 329 50 348 c 257
 86 363 111 370 112 408 c 258
 112 504 l 258
 112 715 198 735 307 735 c 257
EndSplineSet
PickledDataWithLists: "(dp1
S'com.fontlab.hintData'
p2
(dp3
S'vhints'
p4
(lp5
(dp6
S'position'
p7
I112
sS'width'
p8
I127
sasS'hhints'
p9
(lp10
(dp11
g7
I-38
sg8
I99
sa(dp12
g7
I635
sg8
I100
sass."
Layer: 2
Layer: 3
EndChar

StartChar: uni007C
Encoding: 119 124 119
GlifName: uni007C_
Width: 205
VWidth: 0
Flags: W
VStem: 50 105<-134 754 -134 754>
LayerCount: 4
Back
Fore
SplineSet
50 754 m 257
 155 754 l 257
 155 -134 l 257
 50 -134 l 257
 50 754 l 257
EndSplineSet
PickledDataWithLists: "(dp1
S'com.fontlab.hintData'
p2
(dp3
S'vhints'
p4
(lp5
(dp6
S'position'
p7
I50
sS'width'
p8
I105
sass."
Layer: 2
Layer: 3
EndChar

StartChar: uni007D
Encoding: 120 125 120
GlifName: uni007D_
Width: 407
VWidth: 0
Flags: W
HStem: -38 99<100 118 100 103> 635 100<100 134>
VStem: 168 127<208 290 80.5 304 80.5 314.5 408 469 469 469>
LayerCount: 4
Back
Fore
SplineSet
100 735 m 257
 209 735 295 715 295 504 c 258
 295 408 l 258
 296 370 321 363 357 348 c 257
 321 329 295 322 295 290 c 258
 295 192 l 258
 295 -31 207 -38 118 -38 c 256
 112 -38 106 -38 100 -38 c 257
 100 61 l 257
 154 61 168 87 168 208 c 258
 168 304 l 258
 168 325 187 340 212 348 c 257
 188 354 168 366 168 383 c 256
 168 384 168 384 168 384 c 256
 168 469 l 258
 167 591 168 635 100 635 c 257
 100 735 l 257
EndSplineSet
PickledDataWithLists: "(dp1
S'com.fontlab.hintData'
p2
(dp3
S'vhints'
p4
(lp5
(dp6
S'position'
p7
I168
sS'width'
p8
I127
sasS'hhints'
p9
(lp10
(dp11
g7
I-38
sg8
I99
sa(dp12
g7
I635
sg8
I100
sass."
Layer: 2
Layer: 3
EndChar

StartChar: uni007E
Encoding: 121 126 121
GlifName: uni007E_
Width: 568
VWidth: 0
Flags: W
HStem: 235 132<343 399.5> 308 132<147.5 198>
LayerCount: 4
Back
Fore
SplineSet
518 281 m 257x80
 462 247 418 235 381 235 c 256x80
 289 235 239 308 157 308 c 256
 127 308 92 299 50 272 c 257
 50 405 l 257
 95 431 132 440 163 440 c 256x40
 250 440 299 367 387 367 c 256
 422 367 464 379 518 412 c 257
 518 281 l 257x80
EndSplineSet
PickledDataWithLists: "(dp1
S'com.fontlab.hintData'
p2
(dp3
S'hhints'
p4
(lp5
(dp6
S'position'
p7
I235
sS'width'
p8
I132
sa(dp9
g7
I308
sg8
I132
sass."
Layer: 2
Layer: 3
EndChar

StartChar: uni00A2
Encoding: 123 162 123
GlifName: uni00A_2
Width: 494
VWidth: 0
Flags: W
VStem: 32 141<181 518> 158 71<-48 -5 -5 7 7 7 693 705 705 749> 283 71<-48 -5 -5 11 -48 86 687 705 705 749> 330 138<143 215 143 215>
LayerCount: 4
Back
Fore
SplineSet
158 749 m 257x40
 229 749 l 257
 229 705 l 257
 229 595 l 257
 229 564 l 257x40
 183 563 173 523 173 518 c 258
 173 181 l 258x80
 173 176 183 136 229 136 c 257
 229 86 l 257
 229 -5 l 257
 229 -48 l 257
 158 -48 l 257
 158 7 l 257x40
 68 40 32 132 32 181 c 258
 32 518 l 258x80
 32 567 68 660 158 693 c 257
 158 749 l 257x40
283 749 m 257x20
 354 749 l 257
 354 687 l 257x20
 417 656 468 587 468 516 c 257
 330 480 l 257
 330 495 l 258x10
 330 509 330 520 325 532 c 256
 315 555 283 564 283 564 c 257
 283 595 l 257
 283 705 l 257
 283 749 l 257x20
283 136 m 257
 283 136 315 143 325 166 c 256
 330 178 330 189 330 203 c 258
 330 215 l 257
 468 182 l 257x10
 468 104 417 40 354 11 c 257
 354 -48 l 257
 283 -48 l 257
 283 -5 l 257
 283 86 l 257
 283 136 l 257
EndSplineSet
PickledDataWithLists: "(dp1
S'com.fontlab.hintData'
p2
(dp3
S'vhints'
p4
(lp5
(dp6
S'position'
p7
I32
sS'width'
p8
I141
sa(dp9
g7
I158
sg8
I71
sa(dp10
g7
I283
sg8
I71
sa(dp11
g7
I330
sg8
I138
sass."
Layer: 2
Layer: 3
EndChar

StartChar: uni00A3
Encoding: 124 163 124
GlifName: uni00A_3
Width: 520
VWidth: 0
Flags: W
HStem: 0 108<238 462 238 462> 289 107<239 378 239 378 238 378> 584 121<291 293 293 307 291 319>
VStem: 106 132<108 288 288 288 108 514>
LayerCount: 4
Back
Fore
SplineSet
371 520 m 257
 361 551 341 584 297 584 c 256
 265 584 239 568 239 517 c 258
 239 396 l 257
 378 396 l 257
 378 289 l 257
 238 289 l 257
 238 108 l 257
 462 108 l 257
 462 0 l 257
 106 0 l 257
 106 288 l 257
 50 288 l 257
 50 395 l 257
 106 395 l 257
 106 514 l 258
 106 617 161 705 291 705 c 256
 292 705 292 705 293 705 c 256
 321 705 345 700 366 691 c 256
 424 668 459 618 470 570 c 257
 371 520 l 257
EndSplineSet
PickledDataWithLists: "(dp1
S'com.fontlab.hintData'
p2
(dp3
S'vhints'
p4
(lp5
(dp6
S'position'
p7
I106
sS'width'
p8
I132
sasS'hhints'
p9
(lp10
(dp11
g7
I0
sg8
I108
sa(dp12
g7
I289
sg8
I107
sa(dp13
g7
I584
sg8
I121
sass."
Layer: 2
Layer: 3
EndChar

StartChar: uni00A4
Encoding: 125 164 125
GlifName: uni00A_4
Width: 656
VWidth: 0
Flags: W
HStem: 133 118<281 310 304 310 304 357 304 351> 477 118<287.5 310 304 310 304 351 351 357>
VStem: 146 120<275 275 275 276 276 452> 393 117<275 451 451 452.5>
LayerCount: 4
Back
Fore
SplineSet
351 477 m 257
 351 595 l 257
 357 595 l 258
 400 595 434 578 459 555 c 257
 534 622 l 257
 606 540 l 257
 510 456 l 258
 510 455 510 455 510 455 c 256
 510 275 l 256
 510 275 510 275 510 275 c 256
 605 190 l 257
 534 109 l 257
 460 174 l 257
 435 150 401 133 357 133 c 258
 351 133 l 257
 351 247 l 257
 357 247 l 258
 388 248 393 272 393 274 c 258
 393 451 l 258
 393 454 387 477 357 477 c 258
 351 477 l 257
50 540 m 257
 122 622 l 257
 198 555 l 257
 223 578 259 595 304 595 c 258
 310 595 l 257
 310 477 l 257
 304 477 l 258
 271 477 266 453 266 452 c 258
 266 276 l 258
 266 273 274 251 304 251 c 258
 310 251 l 257
 310 133 l 257
 304 133 l 258
 258 133 222 151 197 175 c 257
 122 109 l 257
 51 190 l 257
 146 275 l 256
 146 275 146 275 146 275 c 256
 146 455 l 256
 146 455 146 455 146 456 c 258
 50 540 l 257
EndSplineSet
PickledDataWithLists: "(dp1
S'com.fontlab.hintData'
p2
(dp3
S'vhints'
p4
(lp5
(dp6
S'position'
p7
I146
sS'width'
p8
I120
sa(dp9
g7
I393
sg8
I117
sasS'hhints'
p10
(lp11
(dp12
g7
I133
sg8
I118
sa(dp13
g7
I477
sg8
I118
sass."
Layer: 2
Layer: 3
EndChar

StartChar: uni00A5
Encoding: 126 165 126
GlifName: uni00A_5
Width: 542
VWidth: 0
Flags: W
HStem: 0 21<203 340 203 203> 0 21<203 340 203 203> 238 57<50 193 50 203 50 193> 351 58<50 162 50 177 50 162> 678 20<73 210 210 210 333 470 470 470>
VStem: 203 137<0 236 0 238 0 238>
LayerCount: 4
Back
Fore
SplineSet
73 698 m 257xbc
 210 698 l 257
 273 485 l 257
 333 698 l 257
 470 698 l 257
 382 408 l 257
 492 408 l 257
 492 350 l 257
 365 350 l 257
 351 295 l 257
 492 295 l 257
 492 236 l 257
 340 236 l 257
 340 0 l 257
 203 0 l 257
 203 238 l 257
 50 238 l 257
 50 295 l 257
 193 295 l 257
 177 351 l 257
 50 351 l 257
 50 409 l 257
 162 409 l 257
 73 698 l 257xbc
EndSplineSet
PickledDataWithLists: "(dp1
S'com.fontlab.hintData'
p2
(dp3
S'vhints'
p4
(lp5
(dp6
S'position'
p7
I203
sS'width'
p8
I137
sasS'hhints'
p9
(lp10
(dp11
g7
I0
sg8
I21
sa(dp12
g7
I0
sg8
I21
sa(dp13
g7
I238
sg8
I57
sa(dp14
g7
I351
sg8
I58
sa(dp15
g7
I678
sg8
I20
sass."
Layer: 2
Layer: 3
EndChar

StartChar: uni00A6
Encoding: 127 166 127
GlifName: uni00A_6
Width: 222
VWidth: 0
Flags: W
VStem: 50 122<-134 221 -134 221 399 754>
LayerCount: 4
Back
Fore
SplineSet
50 754 m 257
 172 754 l 257
 172 399 l 257
 50 399 l 257
 50 754 l 257
50 221 m 257
 172 221 l 257
 172 -134 l 257
 50 -134 l 257
 50 221 l 257
EndSplineSet
PickledDataWithLists: "(dp1
S'com.fontlab.hintData'
p2
(dp3
S'vhints'
p4
(lp5
(dp6
S'position'
p7
I50
sS'width'
p8
I122
sass."
Layer: 2
Layer: 3
EndChar

StartChar: uni00A7
Encoding: 128 167 128
GlifName: uni00A_7
Width: 547
VWidth: 0
Flags: W
HStem: -136 132<170 274 274 282 170 274> 627 132<265 273 273 377>
VStem: 26 141<335.5 368.5 335.5 382> 88 131<565.5 591 565.5 640.5> 328 131<32 57.5> 380 141<254.5 288>
LayerCount: 4
Back
Fore
SplineSet
363 223 m 257xc8
 373 231 380 243 380 266 c 256
 380 310 343 333 300 351 c 257
 300 498 l 257
 331 485 365 473 393 457 c 256
 454 421 521 374 521 272 c 256xc4
 521 210 493 158 449 124 c 257
 456 104 459 80 459 52 c 256
 459 -87 350 -136 282 -136 c 258
 170 -136 l 257
 170 -4 l 257
 274 -4 l 258
 307 -4 328 17 328 47 c 256
 328 68 317 84 300 97 c 257
 300 252 l 257
 313 247 325 242 336 237 c 256
 345 232 354 228 363 223 c 257xc8
265 759 m 258
 377 759 l 257
 377 627 l 257
 273 627 l 258
 240 627 219 606 219 576 c 256xd0
 219 555 230 540 246 527 c 257
 246 372 l 257
 233 377 221 381 211 386 c 256
 202 391 193 395 184 400 c 257
 174 392 167 380 167 357 c 256
 167 314 204 290 246 272 c 257
 246 125 l 257
 215 138 181 150 154 166 c 256
 93 202 26 249 26 351 c 256xe0
 26 413 54 465 98 499 c 257
 91 519 88 543 88 571 c 256xd0
 88 710 197 759 265 759 c 258
EndSplineSet
PickledDataWithLists: "(dp1
S'com.fontlab.hintData'
p2
(dp3
S'vhints'
p4
(lp5
(dp6
S'position'
p7
I26
sS'width'
p8
I141
sa(dp9
g7
I88
sg8
I131
sa(dp10
g7
I328
sg8
I131
sa(dp11
g7
I380
sg8
I141
sasS'hhints'
p12
(lp13
(dp14
g7
I-136
sg8
I132
sa(dp15
g7
I627
sg8
I132
sass."
Layer: 2
Layer: 3
EndChar

StartChar: uni00A8
Encoding: 129 168 129
GlifName: uni00A_8
Width: 320
VWidth: 0
Flags: W
LayerCount: 4
Back
Fore
SplineSet
170 678 m 256
 170 720 203 754 245 754 c 256
 287 754 320 720 320 678 c 256
 320 636 287 603 245 603 c 256
 203 603 170 636 170 678 c 256
0 678 m 256
 0 720 33 754 75 754 c 256
 117 754 150 720 150 678 c 256
 150 636 117 603 75 603 c 256
 33 603 0 636 0 678 c 256
EndSplineSet
Layer: 2
Layer: 3
EndChar

StartChar: uni00A9
Encoding: 130 169 130
GlifName: uni00A_9
Width: 859
VWidth: 0
Flags: W
HStem: -49 93<412 412 412 447> 112 89<366.5 447 447 476.5> 476 90<397.5 412 366.5 447> 636 90<412 412 412 447>
VStem: 50 89<332 339 332 339 337 339 332 464> 287 90<231 447> 720 89<332 339 338 339 327 427.5>
LayerCount: 4
Back
Fore
SplineSet
412 44 m 257
 412 -49 l 257
 240 -43 56 104 50 327 c 256
 50 331 50 335 50 339 c 256
 50 589 264 725 412 726 c 257
 412 636 l 257
 283 635 139 516 139 339 c 256
 139 337 139 334 139 332 c 256
 142 179 266 51 412 44 c 257
447 476 m 257
 447 566 l 257
 506 566 565 507 565 446 c 257
 477 413 l 257
 477 432 l 258
 477 441 477 448 474 456 c 256
 468 470 447 476 447 476 c 257
447 201 m 257
 447 201 468 207 474 222 c 256
 477 229 477 236 477 245 c 258
 477 264 l 257
 565 232 l 257
 565 171 506 112 447 112 c 257
 447 201 l 257
412 566 m 257
 412 476 l 257
 383 476 377 450 377 447 c 257
 377 231 l 257
 377 228 383 203 412 203 c 257
 412 112 l 257
 321 112 287 193 287 231 c 257
 287 447 l 257
 287 485 321 566 412 566 c 257
447 44 m 257
 593 51 717 179 720 332 c 256
 720 334 720 337 720 339 c 256
 720 516 576 635 447 636 c 257
 447 726 l 257
 595 725 809 589 809 339 c 256
 809 335 809 331 809 327 c 256
 803 104 619 -43 447 -49 c 257
 447 44 l 257
EndSplineSet
PickledDataWithLists: "(dp1
S'com.fontlab.hintData'
p2
(dp3
S'vhints'
p4
(lp5
(dp6
S'position'
p7
I50
sS'width'
p8
I89
sa(dp9
g7
I287
sg8
I90
sa(dp10
g7
I720
sg8
I89
sasS'hhints'
p11
(lp12
(dp13
g7
I-49
sg8
I93
sa(dp14
g7
I112
sg8
I89
sa(dp15
g7
I476
sg8
I90
sa(dp16
g7
I636
sg8
I90
sass."
Layer: 2
Layer: 3
EndChar

StartChar: uni00AA
Encoding: 131 170 131
GlifName: uni00A_A_
Width: 227
VWidth: 0
Flags: W
LayerCount: 4
Back
Fore
SplineSet
26 430 m 257
 201 430 l 257
 201 362 l 257
 26 362 l 257
 26 430 l 257
96 649 m 258
 87 648 80 643 80 627 c 258
 80 623 l 257
 31 642 l 257
 31 644 l 258
 31 676 65 701 96 701 c 258
 99 701 l 257
 99 649 l 257
 96 649 l 258
116 701 m 257
 119 701 l 258
 165 701 188 659 188 639 c 258
 188 535 l 258
 188 533 189 523 197 523 c 258
 200 523 l 257
 200 471 l 257
 197 471 l 258
 181 471 168 476 159 483 c 257
 148 475 136 471 120 471 c 258
 117 471 l 257
 117 523 l 257
 120 523 l 258
 132 523 134 536 134 537 c 258
 134 569 l 257
 115 559 85 554 79 551 c 256
 77 550 75 547 75 543 c 258
 75 537 l 258
 75 529 78 523 89 523 c 258
 99 523 l 257
 99 471 l 257
 97 471 l 258
 54 471 28 494 28 520 c 258
 28 551 l 258
 28 566 31 575 50 586 c 256
 70 598 134 610 134 626 c 258
 134 631 l 258
 134 641 133 648 119 649 c 258
 116 650 l 257
 116 701 l 257
EndSplineSet
Layer: 2
Layer: 3
EndChar

StartChar: uni00AB
Encoding: 132 171 132
GlifName: uni00A_B_
Width: 475
VWidth: 0
Flags: W
LayerCount: 4
Back
Fore
SplineSet
238 477 m 257
 238 352 l 257
 149 292 l 257
 238 224 l 257
 238 102 l 257
 27 259 l 257
 27 321 l 257
 238 477 l 257
449 477 m 257
 449 352 l 257
 360 292 l 257
 449 224 l 257
 449 102 l 257
 238 259 l 257
 238 321 l 257
 449 477 l 257
EndSplineSet
Layer: 2
Layer: 3
EndChar

StartChar: uni00AC
Encoding: 133 172 133
GlifName: uni00A_C_
Width: 502
VWidth: 0
Flags: W
HStem: 327 115<26 358 26 476>
VStem: 358 118<208 327 327 327>
LayerCount: 4
Back
Fore
SplineSet
476 208 m 257
 358 208 l 257
 358 327 l 257
 26 327 l 257
 26 442 l 257
 476 442 l 257
 476 208 l 257
EndSplineSet
PickledDataWithLists: "(dp1
S'com.fontlab.hintData'
p2
(dp3
S'vhints'
p4
(lp5
(dp6
S'position'
p7
I358
sS'width'
p8
I118
sasS'hhints'
p9
(lp10
(dp11
g7
I327
sg8
I115
sass."
Layer: 2
Layer: 3
EndChar

StartChar: uni00AE
Encoding: 135 174 135
GlifName: uni00A_E_
Width: 404
VWidth: 0
Flags: W
HStem: 354 42<191 192 191 211> 511 36<206 210 210 216> 591 37<206 210 206 227> 662 41<193 195 193 195 193 240.5>
VStem: 30 40<523 567.5 526 567.5 526 587> 151 39<430 627 430 627> 234 36<562.5 575> 334 40<525 527 526.5 528 473 567.5>
LayerCount: 4
Back
Fore
SplineSet
191 396 m 257
 192 354 l 257
 111 355 30 432 30 523 c 256
 30 524 30 524 30 525 c 256
 30 649 133 703 193 703 c 256
 194 703 194 703 195 703 c 257
 195 662 l 257
 136 662 70 609 70 526 c 256
 71 457 126 399 191 396 c 257
211 396 m 257
 276 399 332 456 334 525 c 256
 334 526 334 526 334 527 c 256
 334 608 270 662 211 662 c 257
 211 703 l 257
 277 702 374 641 374 528 c 256
 374 526 374 525 374 523 c 256
 374 423 288 357 211 354 c 257
 211 396 l 257
206 547 m 257
 210 547 l 258
 227 547 234 557 234 568 c 256
 234 582 224 591 210 591 c 258
 206 591 l 257
 206 628 l 257
 248 628 270 604 270 570 c 256
 270 551 264 538 251 530 c 257
 261 522 269 506 270 492 c 258
 270 431 l 257
 235 431 l 257
 235 481 l 258
 235 504 226 511 206 511 c 257
 206 547 l 257
151 627 m 257
 190 627 l 257
 190 430 l 257
 151 430 l 257
 151 627 l 257
EndSplineSet
PickledDataWithLists: "(dp1
S'com.fontlab.hintData'
p2
(dp3
S'vhints'
p4
(lp5
(dp6
S'position'
p7
I30
sS'width'
p8
I40
sa(dp9
g7
I151
sg8
I39
sa(dp10
g7
I234
sg8
I36
sa(dp11
g7
I334
sg8
I40
sasS'hhints'
p12
(lp13
(dp14
g7
I354
sg8
I42
sa(dp15
g7
I511
sg8
I36
sa(dp16
g7
I591
sg8
I37
sa(dp17
g7
I662
sg8
I41
sass."
Layer: 2
Layer: 3
EndChar

StartChar: uni00B0
Encoding: 137 176 137
GlifName: uni00B_0
Width: 282
VWidth: 0
Flags: W
HStem: 468 77<129.5 151 129.5 172> 622 77
VStem: 25 77<572.5 594 572.5 615> 179 77<572.5 594>
LayerCount: 4
Back
Fore
SplineSet
102 583 m 256
 102 562 119 545 140 545 c 256
 162 545 179 562 179 583 c 256
 179 605 162 622 140 622 c 256
 119 622 102 605 102 583 c 256
25 583 m 256
 25 647 77 698 140 698 c 256
 204 698 256 647 256 583 c 256
 256 520 204 468 140 468 c 256
 77 468 25 520 25 583 c 256
EndSplineSet
PickledDataWithLists: "(dp1
S'com.fontlab.hintData'
p2
(dp3
S'vhints'
p4
(lp5
(dp6
S'position'
p7
I25
sS'width'
p8
I77
sa(dp9
g7
I179
sg8
I77
sasS'hhints'
p10
(lp11
(dp12
g7
I468
sg8
I77
sa(dp13
g7
I622
sg8
I77
sass."
Layer: 2
Layer: 3
EndChar

StartChar: uni00B1
Encoding: 138 177 138
GlifName: uni00B_1
Width: 575
VWidth: 0
Flags: W
HStem: 40 127<100 476 100 476> 391 127
VStem: 223 127
LayerCount: 4
Back
Fore
SplineSet
476 167 m 257
 476 40 l 257
 100 40 l 257
 100 167 l 257
 476 167 l 257
EndSplineSet
Refer: 38 43 N 1 0 0 1 0 161 2
PickledDataWithLists: "(dp1
S'com.fontlab.hintData'
p2
(dp3
S'vhints'
p4
(lp5
(dp6
S'position'
p7
I223
sS'width'
p8
I127
sasS'hhints'
p9
(lp10
(dp11
g7
I40
sg8
I127
sa(dp12
g7
I391
sg8
I127
sass."
Layer: 2
Layer: 3
EndChar

StartChar: uni00B2
Encoding: 139 178 139
GlifName: uni00B_2
Width: 245
VWidth: 0
Flags: W
LayerCount: 4
Back
Fore
SplineSet
102 638 m 258
 98 636 85 629 85 608 c 258
 85 604 l 257
 26 616 l 257
 26 619 l 257
 30 657 58 695 101 700 c 257
 105 700 l 257
 105 645 l 257
 105 638 l 257
 102 638 l 258
216 451 m 257
 216 389 l 257
 34 389 l 257
 34 451 l 257
 216 451 l 257
122 639 m 257
 122 700 l 257
 129 700 l 258
 198 700 219 643 219 609 c 256
 219 560 196 546 170 527 c 256
 139 505 123 493 109 471 c 258
 108 469 l 257
 34 469 l 257
 37 475 l 258
 63 529 107 553 119 563 c 256
 139 580 159 584 159 608 c 256
 159 629 148 638 125 639 c 258
 122 639 l 257
EndSplineSet
Layer: 2
Layer: 3
EndChar

StartChar: uni00B3
Encoding: 140 179 140
GlifName: uni00B_3
Width: 247
VWidth: 0
Flags: W
HStem: 392 60<86.5 129 104 129 126 129 126 129 129 131> 516 61<97 101 97 101> 640 61<104 107 104 107 125 128 104 130 104 125>
VStem: 157 64<475 495>
LayerCount: 4
Back
Fore
SplineSet
80 467 m 258
 85 459 92 455 104 454 c 258
 107 453 l 257
 107 392 l 257
 104 392 l 258
 69 392 43 406 28 436 c 257
 26 439 l 257
 78 470 l 257
 80 467 l 258
129 452 m 258
 145 452 157 467 157 483 c 256
 157 507 151 516 101 516 c 258
 97 516 l 257
 97 577 l 257
 101 577 l 258
 152 577 157 588 157 612 c 256
 157 633 141 640 130 640 c 258
 125 640 l 257
 125 701 l 257
 128 701 l 258
 188 700 219 650 219 616 c 256
 219 578 208 557 195 547 c 257
 207 537 221 516 221 482 c 256
 221 426 167 392 131 392 c 258
 126 392 l 257
 126 452 l 257
 129 452 l 258
78 623 m 257
 26 654 l 257
 28 657 l 258
 43 682 69 701 104 701 c 258
 107 701 l 257
 107 640 l 257
 104 640 l 258
 92 639 85 634 80 626 c 258
 78 623 l 257
EndSplineSet
PickledDataWithLists: "(dp1
S'com.fontlab.hintData'
p2
(dp3
S'vhints'
p4
(lp5
(dp6
S'position'
p7
I157
sS'width'
p8
I64
sasS'hhints'
p9
(lp10
(dp11
g7
I392
sg8
I60
sa(dp12
g7
I516
sg8
I61
sa(dp13
g7
I640
sg8
I61
sass."
Layer: 2
Layer: 3
EndChar

StartChar: uni00B4
Encoding: 141 180 141
GlifName: uni00B_4
Width: 263
VWidth: 0
Flags: W
HStem: 605 152<87 141 50 214>
VStem: 50 164<605 757>
LayerCount: 4
Back
Fore
SplineSet
141 605 m 257
 50 605 l 257
 87 757 l 257
 214 757 l 257
 141 605 l 257
EndSplineSet
PickledDataWithLists: "(dp1
S'com.fontlab.hintData'
p2
(dp3
S'vhints'
p4
(lp5
(dp6
S'position'
p7
I50
sS'width'
p8
I164
sasS'hhints'
p9
(lp10
(dp11
g7
I605
sg8
I152
sass."
Layer: 2
Layer: 3
EndChar

StartChar: uni00B5
Encoding: 142 181 142
GlifName: uni00B_5
Width: 468
VWidth: 0
Flags: W
HStem: 0 21<26 150 26 26> 0 21<26 150 26 26> 179 121<180.5 192 187 192 187 234 234 239> 678 20<26 150 150 150 276 276 400 400> 680 20<276 400 400 400>
VStem: 26 166<179 300 179 321 179 356 179 698> 26 124<0 183 0 321 324.5 326 326 356 356 698> 276 124<326.5 328 328 698 698 700>
LayerCount: 4
Back
Fore
SplineSet
26 698 m 257xb5
 150 698 l 257
 150 356 l 257
 150 326 l 258xb3
 150 323 156 300 187 300 c 258
 192 300 l 257
 192 179 l 257xb5
 187 179 l 258
 174 179 162 180 150 183 c 257
 150 0 l 257
 26 0 l 257xb3
 26 321 l 257
 26 356 l 257
 26 698 l 257xb5
276 700 m 257x29
 400 700 l 257x29
 400 698 l 257
 400 328 l 258
 400 325 406 302 437 302 c 258
 442 302 l 257
 442 181 l 257
 437 181 l 258
 397 181 364 194 339 213 c 257
 313 193 280 179 239 179 c 258
 234 179 l 257
 234 300 l 257
 239 300 l 258
 270 300 276 324 276 326 c 258
 276 698 l 257x31
 276 700 l 257x29
EndSplineSet
PickledDataWithLists: "(dp1
S'com.fontlab.hintData'
p2
(dp3
S'vhints'
p4
(lp5
(dp6
S'position'
p7
I26
sS'width'
p8
I166
sa(dp9
g7
I26
sg8
I124
sa(dp10
g7
I276
sg8
I124
sasS'hhints'
p11
(lp12
(dp13
g7
I0
sg8
I21
sa(dp14
g7
I0
sg8
I21
sa(dp15
g7
I179
sg8
I121
sa(dp16
g7
I678
sg8
I20
sa(dp17
g7
I680
sg8
I20
sass."
Layer: 2
Layer: 3
EndChar

StartChar: uni00B6
Encoding: 143 182 143
GlifName: uni00B_6
Width: 444
VWidth: 0
Flags: W
LayerCount: 4
Back
Fore
SplineSet
278 705 m 257
 278 -5 l 257
 195 -5 l 257
 195 329 l 257
 91 329 26 403 26 517 c 256
 26 617 93 705 195 705 c 256
 223 705 250 705 278 705 c 257
418 705 m 257
 418 -5 l 257
 335 -5 l 257
 335 705 l 257
 418 705 l 257
EndSplineSet
Layer: 2
Layer: 3
EndChar

StartChar: uni00B8
Encoding: 145 184 145
GlifName: uni00B_8
Width: 219
VWidth: 0
Flags: W
HStem: -36 91<26 44 26 89.5>
VStem: 102 92<95.5 123>
LayerCount: 4
Back
Fore
SplineSet
102 123 m 257
 194 123 l 257
 194 47 153 -36 26 -36 c 257
 26 55 l 257
 62 55 102 68 102 123 c 257
EndSplineSet
PickledDataWithLists: "(dp1
S'com.fontlab.hintData'
p2
(dp3
S'vhints'
p4
(lp5
(dp6
S'position'
p7
I102
sS'width'
p8
I92
sasS'hhints'
p9
(lp10
(dp11
g7
I-36
sg8
I91
sass."
Layer: 2
Layer: 3
EndChar

StartChar: uni00B9
Encoding: 146 185 146
GlifName: uni00B_9
Width: 186
VWidth: 0
Flags: W
HStem: 391 309<95 161 95 161 93 161>
VStem: 60 101<584 673 673 673> 93 68<391 610 610 610>
LayerCount: 4
Back
Fore
SplineSet
93 610 m 257xa0
 60 584 l 257
 60 673 l 257xc0
 95 700 l 257
 161 700 l 257
 161 391 l 257
 93 391 l 257
 93 610 l 257xa0
EndSplineSet
PickledDataWithLists: "(dp1
S'com.fontlab.hintData'
p2
(dp3
S'vhints'
p4
(lp5
(dp6
S'position'
p7
I60
sS'width'
p8
I101
sa(dp9
g7
I93
sg8
I68
sasS'hhints'
p10
(lp11
(dp12
g7
I391
sg8
I309
sass."
Layer: 2
Layer: 3
EndChar

StartChar: uni00BA
Encoding: 147 186 147
GlifName: uni00B_A_
Width: 230
VWidth: 0
Flags: W
HStem: 361 71<26 204 26 204> 470 55<78.5 108 103 108 103 127 103 123> 645 55<96.5 108 103 108 103 123 123 127>
VStem: 32 56<533.5 534 534 635> 141 55<533 635 635 635.5>
LayerCount: 4
Back
Fore
SplineSet
26 432 m 257
 204 432 l 257
 204 361 l 257
 26 361 l 257
 26 432 l 257
123 645 m 257
 123 700 l 257
 127 700 l 258
 173 700 196 658 196 637 c 258
 196 533 l 258
 196 513 174 470 127 470 c 258
 123 470 l 257
 123 523 l 257
 127 523 l 258
 139 523 141 532 141 533 c 258
 141 635 l 258
 141 636 139 645 127 645 c 258
 123 645 l 257
32 637 m 258
 32 658 55 700 103 700 c 258
 108 700 l 257
 108 645 l 257
 103 645 l 258
 90 645 88 636 88 635 c 258
 88 534 l 258
 88 533 91 525 103 525 c 258
 108 525 l 257
 108 470 l 257
 103 470 l 258
 54 470 32 513 32 533 c 258
 32 637 l 258
EndSplineSet
PickledDataWithLists: "(dp1
S'com.fontlab.hintData'
p2
(dp3
S'vhints'
p4
(lp5
(dp6
S'position'
p7
I32
sS'width'
p8
I56
sa(dp9
g7
I141
sg8
I55
sasS'hhints'
p10
(lp11
(dp12
g7
I361
sg8
I71
sa(dp13
g7
I470
sg8
I55
sa(dp14
g7
I645
sg8
I55
sass."
Layer: 2
Layer: 3
EndChar

StartChar: uni00BB
Encoding: 148 187 148
GlifName: uni00B_B_
Width: 414
VWidth: 0
Flags: W
LayerCount: 4
Back
Fore
SplineSet
26 477 m 257
 237 321 l 257
 237 259 l 257
 26 102 l 257
 26 224 l 257
 115 292 l 257
 26 352 l 257
 26 477 l 257
237 477 m 257
 448 321 l 257
 448 259 l 257
 237 102 l 257
 237 224 l 257
 326 292 l 257
 237 352 l 257
 237 477 l 257
EndSplineSet
Layer: 2
Layer: 3
EndChar

StartChar: uni00BC
Encoding: 149 188 149
GlifName: uni00B_C_
Width: 560
VWidth: 0
Flags: W
HStem: -1 21<393 461 393 393> -1 21<393 461 393 393> 71 66<346 368 270 270 461 488> 682 20<114 181 181 181 458 534 534 534>
VStem: 75 106<567 671 671 671> 113 68<349 597 597 597> 270 98<71 137 71 137> 393 95<71 137 71 352> 393 68<-1 71 -1 137 137 352>
LayerCount: 4
Back
Fore
SplineSet
113 597 m 257x36
 75 567 l 257
 75 671 l 257x3a
 114 702 l 257
 181 702 l 257
 181 349 l 257
 113 349 l 257
 113 597 l 257x36
488 137 m 257xb3
 488 71 l 257xb3
 461 71 l 257
 461 -1 l 257
 393 -1 l 257xb280
 393 352 l 257xb3
 461 352 l 257
 461 137 l 257xb280
 488 137 l 257xb3
368 137 m 257
 368 71 l 257
 270 71 l 257
 270 137 l 257
 368 305 l 257
 368 175 l 257
 346 137 l 257
 368 137 l 257
26 -2 m 257
 458 702 l 257
 534 702 l 257
 109 -2 l 257
 26 -2 l 257
EndSplineSet
PickledDataWithLists: "(dp1
S'com.fontlab.hintData'
p2
(dp3
S'vhints'
p4
(lp5
(dp6
S'position'
p7
I75
sS'width'
p8
I106
sa(dp9
g7
I113
sg8
I68
sa(dp10
g7
I270
sg8
I98
sa(dp11
g7
I393
sg8
I95
sa(dp12
g7
I393
sg8
I68
sasS'hhints'
p13
(lp14
(dp15
g7
I-1
sg8
I21
sa(dp16
g7
I-1
sg8
I21
sa(dp17
g7
I71
sg8
I66
sa(dp18
g7
I682
sg8
I20
sass."
Layer: 2
Layer: 3
EndChar

StartChar: uni00BD
Encoding: 150 189 150
GlifName: uni00B_D_
Width: 581
VWidth: 0
Flags: W
HStem: -1 66<346 551 346 551> 288 66<422 424 422 424 448 449 424 448> 682 20<114 182 182 182 458 534 534 534>
VStem: 76 106<567 671 671 671> 114 68<349 597 597 597 349 702> 490 64<235.5 251 224 263>
LayerCount: 4
Back
Fore
SplineSet
422 288 m 258xe4
 420 287 400 278 400 250 c 258
 400 248 l 257
 337 261 l 257
 338 263 l 257
 343 306 374 347 422 353 c 257
 424 354 l 257
 424 290 l 257
 424 288 l 257
 422 288 l 258xe4
26 -2 m 257
 458 702 l 257
 534 702 l 257
 109 -2 l 257
 26 -2 l 257
551 65 m 257
 551 -1 l 257
 346 -1 l 257
 346 65 l 257
 551 65 l 257
448 288 m 257
 448 354 l 257
 453 354 l 258
 531 354 553 290 554 251 c 256
 554 197 529 180 499 159 c 256
 464 134 445 119 428 93 c 257
 427 92 l 257
 348 92 l 257
 349 94 l 258
 379 156 429 184 444 196 c 256
 467 215 490 220 490 251 c 256
 490 275 476 287 449 288 c 258
 448 288 l 257
114 597 m 257xec
 76 567 l 257
 76 671 l 257xf4
 114 702 l 257
 182 702 l 257
 182 349 l 257
 114 349 l 257
 114 597 l 257xec
EndSplineSet
PickledDataWithLists: "(dp1
S'com.fontlab.hintData'
p2
(dp3
S'vhints'
p4
(lp5
(dp6
S'position'
p7
I76
sS'width'
p8
I106
sa(dp9
g7
I114
sg8
I68
sa(dp10
g7
I490
sg8
I64
sasS'hhints'
p11
(lp12
(dp13
g7
I-1
sg8
I66
sa(dp14
g7
I288
sg8
I66
sa(dp15
g7
I682
sg8
I20
sass."
Layer: 2
Layer: 3
EndChar

StartChar: uni00BE
Encoding: 151 190 151
GlifName: uni00B_E_
Width: 584
VWidth: 0
Flags: W
HStem: -1 21<417 485 417 417> -1 21<417 485 417 417> 71 66<370 392 294 294 485 512> 348 66<93.5 114 113 114 113 141 113 144> 492 65<108 109 109 137.5> 636 64<94 141 94 143 94 140>
VStem: 177 68<440.5 464.5> 294 98<71 137 71 137> 417 95<71 137 71 352> 417 68<-1 71 -1 137 137 352>
LayerCount: 4
Back
Fore
SplineSet
83 431 m 258x3f
 90 421 99 415 113 414 c 258
 114 414 l 257
 114 348 l 257
 113 348 l 258
 74 348 44 364 27 398 c 257
 26 399 l 257
 82 432 l 257
 83 431 l 258x3f
142 412 m 258
 163 412 177 431 177 450 c 256
 177 479 167 492 108 492 c 257
 108 557 l 257
 109 557 l 258
 169 557 177 571 177 600 c 256
 177 626 157 636 143 636 c 258
 140 636 l 257
 140 701 l 257
 141 700 l 257
 209 698 243 642 243 604 c 256
 243 557 229 534 214 525 c 257
 229 514 245 491 245 450 c 256
 245 387 185 348 144 348 c 258
 141 348 l 257
 141 412 l 257
 142 412 l 258
82 616 m 257
 26 649 l 257
 27 651 l 258
 44 679 74 700 114 700 c 257
 114 635 l 257
 113 635 l 258
 99 634 90 628 83 618 c 258
 82 616 l 257
512 137 m 257xbf80
 512 71 l 257xbf80
 485 71 l 257
 485 -1 l 257
 417 -1 l 257xbf40
 417 352 l 257xbf80
 485 352 l 257
 485 137 l 257xbf40
 512 137 l 257xbf80
392 137 m 257
 392 71 l 257
 294 71 l 257
 294 137 l 257
 392 305 l 257
 392 175 l 257
 370 137 l 257
 392 137 l 257
50 -2 m 257
 482 702 l 257
 558 702 l 257
 133 -2 l 257
 50 -2 l 257
EndSplineSet
PickledDataWithLists: "(dp1
S'com.fontlab.hintData'
p2
(dp3
S'vhints'
p4
(lp5
(dp6
S'position'
p7
I177
sS'width'
p8
I68
sa(dp9
g7
I294
sg8
I98
sa(dp10
g7
I417
sg8
I95
sa(dp11
g7
I417
sg8
I68
sasS'hhints'
p12
(lp13
(dp14
g7
I-1
sg8
I21
sa(dp15
g7
I-1
sg8
I21
sa(dp16
g7
I71
sg8
I66
sa(dp17
g7
I348
sg8
I66
sa(dp18
g7
I492
sg8
I65
sa(dp19
g7
I636
sg8
I64
sass."
Layer: 2
Layer: 3
EndChar

StartChar: uni00BF
Encoding: 152 191 152
GlifName: uni00B_F_
Width: 460
VWidth: 0
Flags: W
HStem: -14 128<188.5 233.5 188.5 283.5> 303 220<134 263> 560 151<176 218>
VStem: 122 151<615 657> 134 129<413 523 413 523 413 523> 302 128<170 242.5>
LayerCount: 4
Back
Fore
SplineSet
112 163 m 257xec
 133 135 167 114 210 114 c 256
 257 114 302 144 302 196 c 256
 302 289 251 301 134 303 c 257
 134 523 l 257
 263 523 l 257
 263 413 l 257
 263 413 430 400 430 208 c 256
 430 72 349 -14 218 -14 c 256
 110 -14 60 40 30 78 c 257
 112 163 l 257xec
122 636 m 256xf4
 122 678 155 711 197 711 c 256
 239 711 273 678 273 636 c 256
 273 594 239 560 197 560 c 256
 155 560 122 594 122 636 c 256xf4
EndSplineSet
PickledDataWithLists: "(dp1
S'com.fontlab.hintData'
p2
(dp3
S'vhints'
p4
(lp5
(dp6
S'position'
p7
I122
sS'width'
p8
I151
sa(dp9
g7
I134
sg8
I129
sa(dp10
g7
I302
sg8
I128
sasS'hhints'
p11
(lp12
(dp13
g7
I-14
sg8
I128
sa(dp14
g7
I303
sg8
I220
sa(dp15
g7
I560
sg8
I151
sass."
Layer: 2
Layer: 3
EndChar

StartChar: uni00C5
Encoding: 158 197 158
GlifName: uni00C_5
Width: 516
VWidth: 0
Flags: W
HStem: 0 21<26 164 26 26 353 490 353 353> 669 64 679 20<339 339 339 339> 797 64<260 278>
VStem: 155 15<582 582> 173 64<756 774 756 791.5> 301 64<756 774>
LayerCount: 4
Back
Fore
SplineSet
173 765 m 256xbe
 173 818 216 861 269 861 c 256
 322 861 365 818 365 765 c 256
 365 739 355 716 339 699 c 257
 339 699 l 257
 490 0 l 257
 353 0 l 257
 333 85 l 257
 239 85 l 257
 269 223 l 257
 305 223 l 257
 200 698 l 257
 183 715 173 739 173 765 c 256xbe
237 765 m 256
 237 747 251 733 269 733 c 256xde
 287 733 301 747 301 765 c 256
 301 783 287 797 269 797 c 256
 251 797 237 783 237 765 c 256
155 582 m 257
 170 582 l 257
 230 302 l 257
 164 0 l 257
 26 0 l 257
 155 582 l 257
EndSplineSet
PickledDataWithLists: "(dp1
S'com.fontlab.hintData'
p2
(dp3
S'vhints'
p4
(lp5
(dp6
S'position'
p7
I155
sS'width'
p8
I15
sa(dp9
g7
I173
sg8
I64
sa(dp10
g7
I301
sg8
I64
sasS'hhints'
p11
(lp12
(dp13
g7
I0
sg8
I21
sa(dp14
g7
I669
sg8
I64
sa(dp15
g7
I679
sg8
I20
sa(dp16
g7
I797
sg8
I64
sass."
Layer: 2
Layer: 3
EndChar

StartChar: uni00C6
Encoding: 159 198 159
GlifName: uni00C_6
Width: 727
VWidth: 0
Flags: W
HStem: 0 141<478 701 478 701> 277 141<478 607 478 607> 560 140<320 337 320 320 478 478 478 483 483 701>
VStem: 337 141<141 148 148 148 268 277 418 560>
LayerCount: 4
Back
Fore
SplineSet
701 141 m 257
 701 0 l 257
 337 0 l 257
 337 148 l 257
 272 148 l 257
 301 268 l 257
 337 268 l 257
 337 560 l 257
 320 560 l 257
 182 0 l 257
 26 0 l 257
 206 700 l 257
 701 700 l 257
 701 560 l 257
 483 560 l 257
 478 560 l 257
 478 418 l 257
 607 418 l 257
 607 277 l 257
 478 277 l 257
 478 141 l 257
 701 141 l 257
EndSplineSet
PickledDataWithLists: "(dp1
S'com.fontlab.hintData'
p2
(dp3
S'vhints'
p4
(lp5
(dp6
S'position'
p7
I337
sS'width'
p8
I141
sasS'hhints'
p9
(lp10
(dp11
g7
I0
sg8
I141
sa(dp12
g7
I277
sg8
I141
sa(dp13
g7
I560
sg8
I140
sass."
Layer: 2
Layer: 3
EndChar

StartChar: uni00D0
Encoding: 169 208 169
GlifName: uni00D_0
Width: 501
VWidth: 0
Flags: W
HStem: 0 21<83 224 83 83 278 308> 292 128<26 83 26 83 224 280> 680 20<83 224 224 224 278 349.5>
VStem: 83 141<0 292 0 292 420 700> 334 141<197 503>
LayerCount: 4
Back
Fore
SplineSet
278 0 m 257
 278 141 l 257
 284 141 333 149 334 197 c 258
 334 503 l 258
 334 508 326 558 278 559 c 257
 278 700 l 257
 421 700 475 566 475 503 c 258
 475 197 l 258
 475 50 338 0 278 0 c 257
224 420 m 257
 280 420 l 257
 280 292 l 257
 224 292 l 257
 224 0 l 257
 83 0 l 257
 83 292 l 257
 26 292 l 257
 26 420 l 257
 83 420 l 257
 83 700 l 257
 224 700 l 257
 224 420 l 257
EndSplineSet
PickledDataWithLists: "(dp1
S'com.fontlab.hintData'
p2
(dp3
S'vhints'
p4
(lp5
(dp6
S'position'
p7
I83
sS'width'
p8
I141
sa(dp9
g7
I334
sg8
I141
sasS'hhints'
p10
(lp11
(dp12
g7
I0
sg8
I21
sa(dp13
g7
I292
sg8
I128
sa(dp14
g7
I680
sg8
I20
sass."
Layer: 2
Layer: 3
EndChar

StartChar: uni00D7
Encoding: 176 215 176
GlifName: uni00D_7
Width: 697
VWidth: 0
Flags: W
LayerCount: 4
Back
Fore
SplineSet
260 417 m 257
 100 578 l 257
 189 667 l 257
 349 507 l 257
 508 666 l 257
 597 577 l 257
 438 418 l 257
 597 259 l 257
 507 170 l 257
 349 328 l 257
 190 168 l 257
 101 257 l 257
 260 417 l 257
EndSplineSet
Layer: 2
Layer: 3
EndChar

StartChar: uni00D8
Encoding: 177 216 177
GlifName: uni00D_8
Width: 662
VWidth: 0
Flags: W
HStem: -5 142<301.5 304 301.5 304 359 361.5 301.5 389> 564 141<239 305 239 359>
VStem: 108 141<356 508> 415 141<195 347 347 347>
LayerCount: 4
Back
Fore
SplineSet
584 658 m 257
 662 570 l 257
 556 474 l 257
 556 195 l 258
 556 51 419 -5 359 -5 c 257
 359 137 l 257
 364 137 414 149 415 195 c 258
 415 347 l 257
 249 197 l 257
 249 195 l 258
 249 149 299 137 304 137 c 257
 304 -5 l 257
 261 -5 178 24 135 94 c 257
 78 43 l 257
 0 131 l 257
 108 228 l 257
 108 524 l 258
 108 584 173 705 305 705 c 257
 305 564 l 257
 259 563 249 513 249 508 c 258
 249 356 l 257
 415 505 l 257
 415 508 l 258
 415 513 405 563 359 564 c 257
 359 705 l 257
 441 705 497 658 528 607 c 257
 584 658 l 257
EndSplineSet
PickledDataWithLists: "(dp1
S'com.fontlab.hintData'
p2
(dp3
S'vhints'
p4
(lp5
(dp6
S'position'
p7
I108
sS'width'
p8
I141
sa(dp9
g7
I415
sg8
I141
sasS'hhints'
p10
(lp11
(dp12
g7
I-5
sg8
I142
sa(dp13
g7
I564
sg8
I141
sass."
Layer: 2
Layer: 3
EndChar

StartChar: uni00DE
Encoding: 183 222 183
GlifName: uni00D_E_
Width: 474
VWidth: 0
Flags: W
HStem: 0 21<26 167 26 26> 0 21<26 167 26 26> 208 139<221 254 254 257.5 221 299.5> 451 139<221 254 221 311.5> 680 20<26 167 167 167>
VStem: 26 141<0 700 0 700> 305 143<373 423.5>
LayerCount: 4
Back
Fore
SplineSet
221 347 m 257x3e
 254 347 l 258
 261 347 305 348 305 398 c 256
 305 449 263 451 254 451 c 258
 221 451 l 257
 221 590 l 257
 402 590 448 516 448 402 c 256
 448 259 378 208 221 208 c 257
 221 347 l 257x3e
26 700 m 257
 167 700 l 257
 167 0 l 257
 26 0 l 257xbe
 26 700 l 257
EndSplineSet
PickledDataWithLists: "(dp1
S'com.fontlab.hintData'
p2
(dp3
S'vhints'
p4
(lp5
(dp6
S'position'
p7
I26
sS'width'
p8
I141
sa(dp9
g7
I305
sg8
I143
sasS'hhints'
p10
(lp11
(dp12
g7
I0
sg8
I21
sa(dp13
g7
I0
sg8
I21
sa(dp14
g7
I208
sg8
I139
sa(dp15
g7
I451
sg8
I139
sa(dp16
g7
I680
sg8
I20
sass."
Layer: 2
Layer: 3
EndChar

StartChar: uni00DF
Encoding: 184 223 184
GlifName: uni00D_F_
Width: 522
VWidth: 0
Flags: W
HStem: 0 109<26 327 199 327 199 327> 586 119<199.5 242>
VStem: 26 129<0 457 457 457> 191 114<355 364.5 355 408.5> 294 112<507 518 405 519 405 545.5> 379 117<136.5 175.5>
LayerCount: 4
Back
Fore
SplineSet
155 0 m 257xe8
 26 0 l 257
 26 457 l 258
 27 531 16 705 226 705 c 256
 396 705 406 575 406 518 c 258
 406 405 l 257xe8
 342 406 l 257
 308 400 305 368 305 361 c 256
 305 349 310 326 391 299 c 256
 441 282 496 243 496 160 c 256
 496 57 420 0 327 0 c 258
 199 0 l 257
 199 109 l 257
 327 109 l 258
 342 110 379 120 379 153 c 256
 379 198 331 200 276 228 c 256
 228 252 191 287 191 371 c 256xf4
 191 446 244 489 294 507 c 257
 294 519 l 258
 294 572 259 586 225 586 c 256
 174 586 155 554 155 498 c 258
 155 0 l 257xe8
EndSplineSet
PickledDataWithLists: "(dp1
S'com.fontlab.hintData'
p2
(dp3
S'vhints'
p4
(lp5
(dp6
S'position'
p7
I26
sS'width'
p8
I129
sa(dp9
g7
I191
sg8
I114
sa(dp10
g7
I294
sg8
I112
sa(dp11
g7
I379
sg8
I117
sasS'hhints'
p12
(lp13
(dp14
g7
I0
sg8
I109
sa(dp15
g7
I586
sg8
I119
sass."
Layer: 2
Layer: 3
EndChar

StartChar: uni00E6
Encoding: 191 230 191
GlifName: uni00E_6
Width: 666
VWidth: 0
Flags: W
HStem: 1 112<163 180 163 180 229 232 163 229> 208 116<384 525 384 639 384 525> 400 116<424 426 426 429>
VStem: 26 101<139 149 149 162 139 180 139 196.5> 268 116<149 208 132 227 132 227 351 363 363 373> 525 114<324 369 369 378 208 382.5>
LayerCount: 4
Back
Fore
SplineSet
482 402 m 258
 478 402 l 257
 478 516 l 257
 484 516 l 258
 554 516 639 450 639 378 c 258
 639 208 l 257
 384 208 l 257
 384 143 l 258
 384 121 400 109 425 108 c 258
 484 108 l 258
 517 108 536 134 541 157 c 257
 640 120 l 257
 624 55 555 0 484 0 c 258
 425 0 l 258
 380 0 345 9 321 30 c 257
 298 12 268 1 232 1 c 258
 229 1 l 257
 229 113 l 257
 232 113 l 258
 262 114 268 146 268 149 c 258
 268 227 l 257
 230 205 153 190 139 183 c 256
 133 180 127 173 127 162 c 258
 127 149 l 258
 127 129 137 113 163 113 c 258
 180 113 l 257
 180 1 l 257
 83 1 26 53 26 110 c 258
 26 180 l 258
 26 213 33 233 75 257 c 256
 118 282 268 311 268 351 c 258
 268 363 l 258
 268 387 266 407 231 407 c 258
 178 407 l 258
 155 407 138 390 138 353 c 258
 138 349 l 257
 33 389 l 257
 33 391 l 258
 33 462 110 519 178 519 c 258
 233 519 l 258
 273 519 305 504 329 483 c 257
 353 502 385 516 424 516 c 258
 429 516 l 257
 429 400 l 257
 426 400 l 258
 400 400 387 385 384 373 c 258
 384 324 l 257
 525 324 l 257
 525 369 l 258
 525 396 502 402 482 402 c 258
EndSplineSet
PickledDataWithLists: "(dp1
S'com.fontlab.hintData'
p2
(dp3
S'vhints'
p4
(lp5
(dp6
S'position'
p7
I26
sS'width'
p8
I101
sa(dp9
g7
I268
sg8
I116
sa(dp10
g7
I525
sg8
I114
sasS'hhints'
p11
(lp12
(dp13
g7
I1
sg8
I112
sa(dp14
g7
I208
sg8
I116
sa(dp15
g7
I400
sg8
I116
sass."
Layer: 2
Layer: 3
EndChar

StartChar: uni00EC
Encoding: 197 236 197
GlifName: uni00E_C_
Width: 199
VWidth: 0
Flags: W
HStem: 0 21<39 161 39 39> 0 21<39 161 39 39> 496 20<39 161 161 161>
VStem: 39 122<0 516>
LayerCount: 4
Back
Fore
SplineSet
161 0 m 257xb0
 39 0 l 257
 39 516 l 257
 161 516 l 257
 161 0 l 257xb0
54 577 m 257
 -20 729 l 257
 108 729 l 257
 144 577 l 257
 54 577 l 257
EndSplineSet
PickledDataWithLists: "(dp1
S'com.fontlab.hintData'
p2
(dp3
S'vhints'
p4
(lp5
(dp6
S'position'
p7
I39
sS'width'
p8
I122
sasS'hhints'
p9
(lp10
(dp11
g7
I0
sg8
I21
sa(dp12
g7
I0
sg8
I21
sa(dp13
g7
I496
sg8
I20
sass."
Layer: 2
Layer: 3
EndChar

StartChar: uni00ED
Encoding: 198 237 198
GlifName: uni00E_D_
Width: 199
VWidth: 0
Flags: W
HStem: 0 21<39 161 39 39> 0 21<39 161 39 39> 496 20<39 161 161 161>
VStem: 39 122<0 516>
LayerCount: 4
Back
Fore
SplineSet
161 0 m 257xb0
 39 0 l 257
 39 516 l 257
 161 516 l 257
 161 0 l 257xb0
144 577 m 257
 54 577 l 257
 90 729 l 257
 218 729 l 257
 144 577 l 257
EndSplineSet
PickledDataWithLists: "(dp1
S'com.fontlab.hintData'
p2
(dp3
S'vhints'
p4
(lp5
(dp6
S'position'
p7
I39
sS'width'
p8
I122
sasS'hhints'
p9
(lp10
(dp11
g7
I0
sg8
I21
sa(dp12
g7
I0
sg8
I21
sa(dp13
g7
I496
sg8
I20
sass."
Layer: 2
Layer: 3
EndChar

StartChar: uni00EF
Encoding: 200 239 200
GlifName: uni00E_F_
Width: 199
VWidth: 0
Flags: W
HStem: 0 21<39 161 39 39> 0 21<39 161 39 39> 496 20<39 161 161 161> 576 151<-7 35 163 205>
VStem: -61 150<630 672> 39 122<0 516> 109 150<630 672>
LayerCount: 4
Back
Fore
SplineSet
161 0 m 257xb4
 39 0 l 257
 39 516 l 257
 161 516 l 257
 161 0 l 257xb4
109 651 m 256x32
 109 693 142 727 184 727 c 256
 226 727 259 693 259 651 c 256
 259 609 226 576 184 576 c 256
 142 576 109 609 109 651 c 256x32
-61 651 m 256x38
 -61 693 -28 727 14 727 c 256
 56 727 89 693 89 651 c 256
 89 609 56 576 14 576 c 256
 -28 576 -61 609 -61 651 c 256x38
EndSplineSet
PickledDataWithLists: "(dp1
S'com.fontlab.hintData'
p2
(dp3
S'vhints'
p4
(lp5
(dp6
S'position'
p7
I-61
sS'width'
p8
I150
sa(dp9
g7
I39
sg8
I122
sa(dp10
g7
I109
sg8
I150
sasS'hhints'
p11
(lp12
(dp13
g7
I0
sg8
I21
sa(dp14
g7
I0
sg8
I21
sa(dp15
g7
I496
sg8
I20
sa(dp16
g7
I576
sg8
I151
sass."
Layer: 2
Layer: 3
EndChar

StartChar: uni00F0
Encoding: 201 240 201
GlifName: uni00F_0
Width: 420
VWidth: 0
Flags: W
HStem: -1 118<132 192 186 192 233 239 186 233> 398 118<169.5 192 186 192 233 239 186 233>
VStem: 28 120<144.5 154 154 363> 275 117<152 363 363 364 364 371.5>
LayerCount: 4
Back
Fore
SplineSet
267 558 m 257
 210 541 l 257
 192 598 l 257
 242 614 l 257
 230 627 214 637 192 647 c 257
 192 714 l 257
 250 703 297 679 330 641 c 257
 380 657 l 257
 398 599 l 257
 364 588 l 257
 383 548 392 500 392 442 c 258
 392 376 l 257
 392 364 l 257
 392 141 l 258
 392 96 343 -1 239 -1 c 258
 233 -1 l 257
 233 117 l 257
 239 117 l 258
 270 118 275 141 275 152 c 258
 275 363 l 258
 275 380 269 398 239 398 c 258
 233 398 l 257
 233 516 l 257
 239 516 l 258
 251 516 262 515 273 512 c 257
 271 530 270 545 267 558 c 257
28 376 m 258
 28 421 79 516 186 516 c 258
 192 516 l 257
 192 398 l 257
 186 398 l 258
 153 398 148 373 148 363 c 258
 148 154 l 258
 148 135 156 117 186 117 c 258
 192 117 l 257
 192 -1 l 257
 186 -1 l 258
 78 -1 28 97 28 141 c 258
 28 376 l 258
EndSplineSet
PickledDataWithLists: "(dp1
S'com.fontlab.hintData'
p2
(dp3
S'vhints'
p4
(lp5
(dp6
S'position'
p7
I28
sS'width'
p8
I120
sa(dp9
g7
I275
sg8
I117
sasS'hhints'
p10
(lp11
(dp12
g7
I-1
sg8
I118
sa(dp13
g7
I398
sg8
I118
sass."
Layer: 2
Layer: 3
EndChar

StartChar: uni00F7
Encoding: 208 247 208
GlifName: uni00F_7
Width: 650
VWidth: 0
Flags: W
HStem: 40 151 228 127<100 550 100 550> 393 151
VStem: 213 150
LayerCount: 4
Back
Fore
SplineSet
550 355 m 257
 550 228 l 257
 100 228 l 257
 100 355 l 257
 550 355 l 257
EndSplineSet
Refer: 41 46 N 1 0 0 1 196 415 2
Refer: 41 46 N 1 0 0 1 196 62 2
PickledDataWithLists: "(dp1
S'com.fontlab.hintData'
p2
(dp3
S'vhints'
p4
(lp5
(dp6
S'position'
p7
I213
sS'width'
p8
I150
sasS'hhints'
p9
(lp10
(dp11
g7
I40
sg8
I151
sa(dp12
g7
I228
sg8
I127
sa(dp13
g7
I393
sg8
I151
sass."
Layer: 2
Layer: 3
EndChar

StartChar: uni00F8
Encoding: 209 248 209
GlifName: uni00F_8
Width: 498
VWidth: 0
Flags: W
HStem: -1 118<195 231 225 231 272 278 225 272> 398 118<208.5 231 225 231 225 272 272 278>
VStem: 67 120<253 363 253 376 253 398.5> 314 117<152 261 261 261>
LayerCount: 4
Back
Fore
SplineSet
445 490 m 257
 498 430 l 257
 431 369 l 257
 431 141 l 258
 431 96 382 -1 278 -1 c 258
 272 -1 l 257
 272 117 l 257
 278 117 l 258
 309 118 314 141 314 152 c 258
 314 261 l 257
 188 145 l 257
 190 130 200 117 225 117 c 258
 231 117 l 257
 231 -1 l 257
 225 -1 l 258
 165 -1 123 29 98 63 c 257
 53 22 l 257
 0 82 l 257
 67 143 l 257
 67 376 l 258
 67 421 118 516 225 516 c 258
 231 516 l 257
 231 398 l 257
 225 398 l 258
 192 398 187 373 187 363 c 258
 187 253 l 257
 314 370 l 257
 312 384 304 398 278 398 c 258
 272 398 l 257
 272 516 l 257
 278 516 l 258
 336 516 378 486 402 451 c 257
 445 490 l 257
EndSplineSet
PickledDataWithLists: "(dp1
S'com.fontlab.hintData'
p2
(dp3
S'vhints'
p4
(lp5
(dp6
S'position'
p7
I67
sS'width'
p8
I120
sa(dp9
g7
I314
sg8
I117
sasS'hhints'
p10
(lp11
(dp12
g7
I-1
sg8
I118
sa(dp13
g7
I398
sg8
I118
sass."
Layer: 2
Layer: 3
EndChar

StartChar: uni00FE
Encoding: 215 254 215
GlifName: uni00F_E_
Width: 422
VWidth: 0
Flags: W
HStem: 0 118<203 232 203 234> 398 118<196 228 196 228> 680 20<30 155 155 155>
VStem: 30 125<-182 700 -182 700> 276 120<143 372 372 375>
LayerCount: 4
Back
Fore
SplineSet
232 0 m 258
 203 0 l 257
 203 118 l 257
 234 118 l 258
 271 119 276 134 276 143 c 258
 276 372 l 258
 276 385 258 398 228 398 c 258
 196 398 l 257
 196 516 l 257
 228 516 l 258
 335 516 396 431 396 375 c 258
 396 139 l 258
 396 86 345 0 232 0 c 258
30 700 m 257
 155 700 l 257
 155 -182 l 257
 30 -182 l 257
 30 700 l 257
EndSplineSet
PickledDataWithLists: "(dp1
S'com.fontlab.hintData'
p2
(dp3
S'vhints'
p4
(lp5
(dp6
S'position'
p7
I30
sS'width'
p8
I125
sa(dp9
g7
I276
sg8
I120
sasS'hhints'
p10
(lp11
(dp12
g7
I0
sg8
I118
sa(dp13
g7
I398
sg8
I118
sa(dp14
g7
I680
sg8
I20
sass."
Layer: 2
Layer: 3
EndChar

StartChar: uni0111
Encoding: 230 273 230
GlifName: uni0111
Width: 414
VWidth: 0
Flags: W
HStem: 0 118<130 210 182 210 182 258 182 384> 398 118<180 210 180 210> 542 127 678 20<258 384 384 384>
VStem: 30 118<142 143 143 373> 258 126<0 539 0 539 666 698>
LayerCount: 4
Back
Fore
SplineSet
180 516 m 258
 210 516 l 257
 210 398 l 257
 180 398 l 257
 153 397 148 375 148 373 c 258
 148 143 l 257
 148 141 154 118 182 118 c 258
 210 118 l 257
 210 0 l 257
 182 0 l 258
 78 0 30 97 30 141 c 258
 30 377 l 257
 31 422 79 516 180 516 c 258
448 666 m 257
 448 539 l 257
 384 539 l 257
 384 0 l 257
 258 0 l 257
 258 539 l 257
 194 539 l 257
 194 666 l 257
 258 666 l 257
 258 698 l 257
 384 698 l 257
 384 666 l 257
 448 666 l 257
EndSplineSet
PickledDataWithLists: "(dp1
S'com.fontlab.hintData'
p2
(dp3
S'vhints'
p4
(lp5
(dp6
S'position'
p7
I30
sS'width'
p8
I118
sa(dp9
g7
I258
sg8
I126
sasS'hhints'
p10
(lp11
(dp12
g7
I0
sg8
I118
sa(dp13
g7
I398
sg8
I118
sa(dp14
g7
I542
sg8
I127
sa(dp15
g7
I678
sg8
I20
sass."
Layer: 2
Layer: 3
EndChar

StartChar: uni0131
Encoding: 248 305 248
GlifName: uni0131
Width: 174
VWidth: 0
Flags: W
LayerCount: 4
Back
Fore
SplineSet
148 0 m 257
 26 0 l 257
 26 516 l 257
 148 516 l 257
 148 0 l 257
EndSplineSet
Layer: 2
Layer: 3
EndChar

StartChar: uni0141
Encoding: 257 321 257
GlifName: uni0141
Width: 530
VWidth: 0
Flags: W
HStem: 0 139<270 505 270 505> 680 20<129 270 270 270>
VStem: 129 141<139 233 233 233 492 700>
LayerCount: 4
Back
Fore
SplineSet
348 553 m 257
 420 460 l 257
 270 343 l 257
 270 139 l 257
 505 139 l 257
 505 0 l 257
 129 0 l 257
 129 233 l 257
 98 209 l 257
 26 302 l 257
 129 382 l 257
 129 700 l 257
 270 700 l 257
 270 492 l 257
 348 553 l 257
EndSplineSet
PickledDataWithLists: "(dp1
S'com.fontlab.hintData'
p2
(dp3
S'vhints'
p4
(lp5
(dp6
S'position'
p7
I129
sS'width'
p8
I141
sasS'hhints'
p9
(lp10
(dp11
g7
I0
sg8
I139
sa(dp12
g7
I680
sg8
I20
sass."
Layer: 2
Layer: 3
EndChar

StartChar: uni0142
Encoding: 258 322 258
GlifName: uni0142
Width: 424
VWidth: 0
Flags: W
HStem: 0 21 678 20
VStem: 147 131
LayerCount: 4
Back
Fore
SplineSet
326 536 m 257
 398 443 l 257
 98 209 l 257
 26 302 l 257
 326 536 l 257
EndSplineSet
Refer: 103 108 N 1 0 0 1 117 0 2
PickledDataWithLists: "(dp1
S'com.fontlab.hintData'
p2
(dp3
S'vhints'
p4
(lp5
(dp6
S'position'
p7
I147
sS'width'
p8
I131
sasS'hhints'
p9
(lp10
(dp11
g7
I0
sg8
I21
sa(dp12
g7
I678
sg8
I20
sass."
Layer: 2
Layer: 3
EndChar

StartChar: uni0152
Encoding: 269 338 269
GlifName: uni0152
Width: 724
VWidth: 0
Flags: W
HStem: -5 142 564 141
VStem: 26 141<200 503> 333 141
LayerCount: 4
Back
Fore
SplineSet
698 141 m 257
 698 0 l 257
 277 0 l 257
 277 142 l 257
 334 142 l 257
 334 559 l 257
 277 559 l 257
 277 700 l 257
 698 700 l 257
 698 560 l 257
 475 560 l 257
 475 418 l 257
 604 418 l 257
 604 277 l 257
 475 277 l 257
 475 141 l 257
 698 141 l 257
222 0 m 257
 162 0 26 56 26 200 c 258
 26 519 l 258
 26 579 91 700 223 700 c 257
 223 559 l 257
 177 558 167 508 167 503 c 258
 167 200 l 258
 167 154 217 142 222 142 c 257
 222 0 l 257
EndSplineSet
PickledDataWithLists: "(dp1
S'com.fontlab.hintData'
p2
(dp3
S'vhints'
p4
(lp5
(dp6
S'position'
p7
I26
sS'width'
p8
I141
sa(dp9
g7
I333
sg8
I141
sasS'hhints'
p10
(lp11
(dp12
g7
I-5
sg8
I142
sa(dp13
g7
I564
sg8
I141
sass."
Layer: 2
Layer: 3
EndChar

StartChar: uni0153
Encoding: 270 339 270
GlifName: uni0153
Width: 671
VWidth: 0
Flags: W
HStem: -1 114<130 190 184 190 231 237 184 231> 208 116<395 530 395 644 395 530> 398 118<167.5 190 184 190 231 237 184 231>
VStem: 26 120<141 142 142 373> 273 122<140 141 141 208 324 369> 530 114<324 369 369 378>
LayerCount: 4
Back
Fore
SplineSet
487 402 m 258
 483 402 l 257
 483 516 l 257
 489 516 l 258
 559 516 644 450 644 378 c 258
 644 208 l 257
 395 208 l 257
 395 141 l 258
 395 138 402 109 430 108 c 258
 489 108 l 258
 519 108 541 132 545 153 c 258
 546 157 l 257
 645 120 l 257
 644 118 l 257
 629 54 559 0 489 0 c 258
 430 0 l 258
 390 0 359 14 334 34 c 257
 310 14 277 -1 237 -1 c 258
 231 -1 l 257
 231 113 l 257
 237 113 l 258
 268 114 273 138 273 140 c 258
 273 372 l 258
 273 375 267 398 237 398 c 258
 231 398 l 257
 231 516 l 257
 237 516 l 258
 277 516 309 502 333 482 c 257
 358 502 390 516 429 516 c 258
 434 516 l 257
 434 400 l 257
 431 400 l 258
 402 400 395 380 395 369 c 258
 395 324 l 257
 530 324 l 257
 530 369 l 258
 530 396 507 402 487 402 c 258
26 376 m 258
 26 421 77 516 184 516 c 258
 190 516 l 257
 190 398 l 257
 184 398 l 258
 151 398 146 374 146 373 c 258
 146 142 l 258
 146 139 154 113 184 113 c 258
 190 113 l 257
 190 -1 l 257
 184 -1 l 258
 76 -1 26 97 26 141 c 258
 26 376 l 258
EndSplineSet
PickledDataWithLists: "(dp1
S'com.fontlab.hintData'
p2
(dp3
S'vhints'
p4
(lp5
(dp6
S'position'
p7
I26
sS'width'
p8
I120
sa(dp9
g7
I273
sg8
I122
sa(dp10
g7
I530
sg8
I114
sasS'hhints'
p11
(lp12
(dp13
g7
I-1
sg8
I114
sa(dp14
g7
I208
sg8
I116
sa(dp15
g7
I398
sg8
I118
sass."
Layer: 2
Layer: 3
EndChar

StartChar: uni0192
Encoding: 302 402 302
GlifName: uni0192
Width: 382
VWidth: 0
Flags: W
HStem: -168 105<53 108 53 109 26 108> 400 116<78 141 78 141> 579 117<296 329 296 296>
VStem: 141 122<-36 -30 -30 0 0 7 7 400 516 552>
LayerCount: 4
Back
Fore
SplineSet
141 552 m 258
 141 597 192 695 295 696 c 258
 356 696 l 257
 329 579 l 257
 296 579 l 258
 268 578 263 555 263 552 c 258
 263 515 l 257
 329 516 l 257
 329 400 l 257
 263 400 l 257
 263 7 l 257
 263 0 l 257
 263 -30 l 258
 263 -92 221 -168 109 -168 c 258
 26 -168 l 257
 53 -63 l 257
 108 -63 l 258
 136 -62 141 -39 141 -36 c 258
 141 0 l 257
 141 7 l 257
 141 400 l 257
 78 400 l 257
 78 516 l 257
 141 516 l 257
 141 552 l 258
EndSplineSet
PickledDataWithLists: "(dp1
S'com.fontlab.hintData'
p2
(dp3
S'vhints'
p4
(lp5
(dp6
S'position'
p7
I141
sS'width'
p8
I122
sasS'hhints'
p9
(lp10
(dp11
g7
I-168
sg8
I105
sa(dp12
g7
I400
sg8
I116
sa(dp13
g7
I579
sg8
I117
sass."
Layer: 2
Layer: 3
EndChar

StartChar: uni02C6
Encoding: 307 710 307
GlifName: uni02C_6
Width: 270
VWidth: 0
Flags: W
HStem: 514 152<26 167 101 107 162 162 162 167 101 244>
VStem: 26 218<514 514>
LayerCount: 4
Back
Fore
SplineSet
26 514 m 257
 101 666 l 257
 167 666 l 257
 244 514 l 257
 162 514 l 257
 134 571 l 257
 107 514 l 257
 26 514 l 257
EndSplineSet
PickledDataWithLists: "(dp1
S'com.fontlab.hintData'
p2
(dp3
S'vhints'
p4
(lp5
(dp6
S'position'
p7
I26
sS'width'
p8
I218
sasS'hhints'
p9
(lp10
(dp11
g7
I514
sg8
I152
sass."
Layer: 2
Layer: 3
EndChar

StartChar: uni02C7
Encoding: 308 711 308
GlifName: uni02C_7
Width: 270
VWidth: 0
Flags: W
HStem: 514 152<101 107 162 167 101 101>
VStem: 26 218<666 666>
LayerCount: 4
Back
Fore
SplineSet
26 666 m 257
 107 666 l 257
 134 609 l 257
 162 666 l 257
 244 666 l 257
 167 514 l 257
 101 514 l 257
 26 666 l 257
EndSplineSet
PickledDataWithLists: "(dp1
S'com.fontlab.hintData'
p2
(dp3
S'vhints'
p4
(lp5
(dp6
S'position'
p7
I26
sS'width'
p8
I218
sasS'hhints'
p9
(lp10
(dp11
g7
I514
sg8
I152
sass."
Layer: 2
Layer: 3
EndChar

StartChar: uni02C9
Encoding: 309 713 309
GlifName: uni02C_9
Width: 416
VWidth: 0
Flags: W
HStem: 514 82<50 366 50 366>
VStem: 50 316<514 596 514 596>
LayerCount: 4
Back
Fore
SplineSet
366 596 m 257
 366 514 l 257
 50 514 l 257
 50 596 l 257
 366 596 l 257
EndSplineSet
PickledDataWithLists: "(dp1
S'com.fontlab.hintData'
p2
(dp3
S'vhints'
p4
(lp5
(dp6
S'position'
p7
I50
sS'width'
p8
I316
sasS'hhints'
p9
(lp10
(dp11
g7
I514
sg8
I82
sass."
Layer: 2
Layer: 3
EndChar

StartChar: uni02D8
Encoding: 310 728 310
GlifName: uni02D_8
Width: 244
VWidth: 0
Flags: W
HStem: 430 64<113 131 113 148.5>
VStem: 26 64<517 526 517 526> 154 64<517 526>
LayerCount: 4
Back
Fore
SplineSet
218 526 m 257
 218 473 175 430 122 430 c 256
 69 430 26 473 26 526 c 257
 90 526 l 257
 90 508 104 494 122 494 c 256
 140 494 154 508 154 526 c 257
 218 526 l 257
EndSplineSet
PickledDataWithLists: "(dp1
S'com.fontlab.hintData'
p2
(dp3
S'vhints'
p4
(lp5
(dp6
S'position'
p7
I26
sS'width'
p8
I64
sa(dp9
g7
I154
sg8
I64
sasS'hhints'
p10
(lp11
(dp12
g7
I430
sg8
I64
sass."
Layer: 2
Layer: 3
EndChar

StartChar: uni02D9
Encoding: 311 729 311
GlifName: uni02D_9
Width: 202
VWidth: 0
Flags: W
HStem: 603 151<80 122>
VStem: 26 150<657 699>
LayerCount: 4
Back
Fore
SplineSet
26 678 m 256
 26 720 59 754 101 754 c 256
 143 754 176 720 176 678 c 256
 176 636 143 603 101 603 c 256
 59 603 26 636 26 678 c 256
EndSplineSet
PickledDataWithLists: "(dp1
S'com.fontlab.hintData'
p2
(dp3
S'vhints'
p4
(lp5
(dp6
S'position'
p7
I26
sS'width'
p8
I150
sasS'hhints'
p9
(lp10
(dp11
g7
I603
sg8
I151
sass."
Layer: 2
Layer: 3
EndChar

StartChar: uni02DA
Encoding: 312 730 312
GlifName: uni02D_A_
Width: 244
VWidth: 0
Flags: W
HStem: 430 64<113 131 113 148.5> 558 64<113 131>
VStem: 26 64<517 535 517 552.5> 154 64<517 535>
LayerCount: 4
Back
Fore
SplineSet
90 526 m 256
 90 508 104 494 122 494 c 256
 140 494 154 508 154 526 c 256
 154 544 140 558 122 558 c 256
 104 558 90 544 90 526 c 256
26 526 m 256
 26 579 69 622 122 622 c 256
 175 622 218 579 218 526 c 256
 218 473 175 430 122 430 c 256
 69 430 26 473 26 526 c 256
EndSplineSet
PickledDataWithLists: "(dp1
S'com.fontlab.hintData'
p2
(dp3
S'vhints'
p4
(lp5
(dp6
S'position'
p7
I26
sS'width'
p8
I64
sa(dp9
g7
I154
sg8
I64
sasS'hhints'
p10
(lp11
(dp12
g7
I430
sg8
I64
sa(dp13
g7
I558
sg8
I64
sass."
Layer: 2
Layer: 3
EndChar

StartChar: uni02DC
Encoding: 314 732 314
GlifName: uni02D_C_
Width: 333
VWidth: 0
Flags: W
HStem: 86 101<201.5 234.5> 126 102<86.5 116>
VStem: 26 281<114 114 114 206 206 206>
LayerCount: 4
Back
Fore
SplineSet
307 114 m 257xa0
 273 93 246 86 223 86 c 256xa0
 170 86 140 126 92 126 c 256
 74 126 52 120 26 104 c 257
 26 206 l 257
 54 222 77 228 96 228 c 256x60
 147 228 176 187 227 187 c 256
 249 187 274 195 307 215 c 257
 307 114 l 257xa0
EndSplineSet
PickledDataWithLists: "(dp1
S'com.fontlab.hintData'
p2
(dp3
S'vhints'
p4
(lp5
(dp6
S'position'
p7
I26
sS'width'
p8
I281
sasS'hhints'
p9
(lp10
(dp11
g7
I86
sg8
I101
sa(dp12
g7
I126
sg8
I102
sass."
Layer: 2
Layer: 3
EndChar

StartChar: uni02DD
Encoding: 315 733 315
GlifName: uni02D_D_
Width: 336
VWidth: 0
Flags: W
HStem: 605 152<55 109 26 167 55 169 198 252>
VStem: 26 284<605 757>
LayerCount: 4
Back
Fore
SplineSet
109 605 m 257
 26 605 l 257
 55 757 l 257
 167 757 l 257
 109 605 l 257
252 605 m 257
 169 605 l 257
 198 757 l 257
 310 757 l 257
 252 605 l 257
EndSplineSet
PickledDataWithLists: "(dp1
S'com.fontlab.hintData'
p2
(dp3
S'vhints'
p4
(lp5
(dp6
S'position'
p7
I26
sS'width'
p8
I284
sasS'hhints'
p9
(lp10
(dp11
g7
I605
sg8
I152
sass."
Layer: 2
Layer: 3
EndChar

StartChar: uni03C0
Encoding: 316 960 316
GlifName: uni03C_0
Width: 421
VWidth: 0
Flags: W
HStem: 0 21 389 127<-28 26 -28 452 148 281 148 148 395 395 395 452>
VStem: 26 122<-4 389 -4 389> 281 114<140 142 142 389>
LayerCount: 4
Back
Fore
SplineSet
438 -4 m 257
 435 -4 l 257
 338 0 281 63 281 133 c 258
 281 389 l 257
 148 389 l 257
 148 -4 l 257
 26 -4 l 257
 26 389 l 257
 -28 389 l 257
 -28 516 l 257
 452 516 l 257
 452 389 l 257
 395 389 l 257
 395 142 l 258
 395 138 401 111 435 108 c 258
 438 108 l 257
 438 -4 l 257
EndSplineSet
PickledDataWithLists: "(dp1
S'com.fontlab.hintData'
p2
(dp3
S'vhints'
p4
(lp5
(dp6
S'position'
p7
I26
sS'width'
p8
I122
sa(dp9
g7
I281
sg8
I114
sasS'hhints'
p10
(lp11
(dp12
g7
I0
sg8
I21
sa(dp13
g7
I389
sg8
I127
sass."
Layer: 2
Layer: 3
EndChar

StartChar: uni2013
Encoding: 317 8211 317
GlifName: uni2013
Width: 532
VWidth: 0
Flags: W
HStem: 230 127<26 506 26 506>
LayerCount: 4
Back
Fore
SplineSet
506 357 m 257
 506 230 l 257
 26 230 l 257
 26 357 l 257
 506 357 l 257
EndSplineSet
PickledDataWithLists: "(dp1
S'com.fontlab.hintData'
p2
(dp3
S'hhints'
p4
(lp5
(dp6
S'position'
p7
I230
sS'width'
p8
I127
sass."
Layer: 2
Layer: 3
EndChar

StartChar: uni2014
Encoding: 318 8212 318
GlifName: uni2014
Width: 906
VWidth: 0
Flags: W
HStem: 230 127<26 880 26 880>
LayerCount: 4
Back
Fore
SplineSet
880 357 m 257
 880 230 l 257
 26 230 l 257
 26 357 l 257
 880 357 l 257
EndSplineSet
PickledDataWithLists: "(dp1
S'com.fontlab.hintData'
p2
(dp3
S'hhints'
p4
(lp5
(dp6
S'position'
p7
I230
sS'width'
p8
I127
sass."
Layer: 2
Layer: 3
EndChar

StartChar: uni2020
Encoding: 325 8224 325
GlifName: uni2020
Width: 453
VWidth: 0
Flags: W
HStem: 450 127<26 156 26 156 297 427>
VStem: 156 141<-56 450 -56 450 577 764>
LayerCount: 4
Back
Fore
SplineSet
427 577 m 257
 427 450 l 257
 297 450 l 257
 297 -56 l 257
 156 -56 l 257
 156 450 l 257
 26 450 l 257
 26 577 l 257
 156 577 l 257
 156 764 l 257
 297 764 l 257
 297 577 l 257
 427 577 l 257
EndSplineSet
PickledDataWithLists: "(dp1
S'com.fontlab.hintData'
p2
(dp3
S'vhints'
p4
(lp5
(dp6
S'position'
p7
I156
sS'width'
p8
I141
sasS'hhints'
p9
(lp10
(dp11
g7
I450
sg8
I127
sass."
Layer: 2
Layer: 3
EndChar

StartChar: uni2021
Encoding: 326 8225 326
GlifName: uni2021
Width: 453
VWidth: 0
Flags: W
HStem: 131 127<26 156 26 156 297 427> 450 127<26 156 26 156 297 427>
VStem: 156 141<-56 131 -56 131 258 450 577 764>
LayerCount: 4
Back
Fore
SplineSet
156 764 m 257
 297 764 l 257
 297 577 l 257
 427 577 l 257
 427 450 l 257
 297 450 l 257
 297 258 l 257
 427 258 l 257
 427 131 l 257
 297 131 l 257
 297 -56 l 257
 156 -56 l 257
 156 131 l 257
 26 131 l 257
 26 258 l 257
 156 258 l 257
 156 450 l 257
 26 450 l 257
 26 577 l 257
 156 577 l 257
 156 764 l 257
EndSplineSet
PickledDataWithLists: "(dp1
S'com.fontlab.hintData'
p2
(dp3
S'vhints'
p4
(lp5
(dp6
S'position'
p7
I156
sS'width'
p8
I141
sasS'hhints'
p9
(lp10
(dp11
g7
I131
sg8
I127
sa(dp12
g7
I450
sg8
I127
sass."
Layer: 2
Layer: 3
EndChar

StartChar: uni2022
Encoding: 327 8226 327
GlifName: uni2022
Width: 352
VWidth: 0
Flags: W
LayerCount: 4
Back
Fore
SplineSet
26 344 m 256
 26 428 92 496 176 496 c 256
 260 496 326 428 326 344 c 256
 326 260 260 194 176 194 c 256
 92 194 26 260 26 344 c 256
EndSplineSet
Layer: 2
Layer: 3
EndChar

StartChar: uni2030
Encoding: 329 8240 329
GlifName: uni2030
Width: 897
VWidth: 0
Flags: W
HStem: 0 65<487 489 488 489 488 489 488 517 517 518 488 519 746 747 775 776> 287 65<488 490 488 490 516 518 488 516 746 748 774 776> 680 20<497 570 570 570>
VStem: 26 68<499 522 522 551 499 592> 178 68<522 551 551 567> 393 68<148 171 171 201 148 242> 546 68<171 201 201 217> 651 68<148 171 171 201 148 242> 804 68<171 201 201 217>
LayerCount: 4
Back
Fore
SplineSet
67 0 m 257
 497 700 l 257
 570 700 l 257
 147 0 l 257
 67 0 l 257
151 702 m 257
 197 699 246 657 246 528 c 256
 246 378 186 353 152 351 c 257
 150 350 l 257
 150 415 l 257
 151 415 l 257
 177 421 178 476 178 522 c 258
 178 551 l 258
 178 583 176 631 151 637 c 257
 150 637 l 257
 150 703 l 257
 151 702 l 257
122 703 m 257
 122 637 l 257
 121 637 l 257
 96 631 94 583 94 551 c 258
 94 522 l 258
 94 476 95 421 121 415 c 257
 122 415 l 257
 122 350 l 257
 120 351 l 257
 86 353 26 378 26 528 c 256
 26 656 75 699 121 702 c 257
 122 703 l 257
518 352 m 258
 564 349 614 307 614 178 c 256
 614 28 553 2 519 0 c 258
 517 0 l 257
 517 65 l 257
 518 65 l 257
 544 71 546 125 546 171 c 258
 546 201 l 258
 546 233 543 281 518 287 c 257
 516 287 l 257
 516 352 l 257
 518 352 l 258
490 352 m 257
 490 287 l 257
 488 287 l 257
 463 281 461 233 461 201 c 258
 461 171 l 258
 461 125 462 71 488 65 c 257
 489 65 l 257
 489 0 l 257
 487 0 l 258
 453 2 393 28 393 178 c 256
 393 306 442 349 488 352 c 258
 490 352 l 257
776 352 m 258
 822 349 872 307 872 178 c 256
 872 28 811 2 777 0 c 258
 775 0 l 257
 775 65 l 257
 776 65 l 257
 802 71 804 125 804 171 c 258
 804 201 l 258
 804 233 801 281 776 287 c 257
 774 287 l 257
 774 352 l 257
 776 352 l 258
748 352 m 257
 748 287 l 257
 746 287 l 257
 721 281 719 233 719 201 c 258
 719 171 l 258
 719 125 720 71 746 65 c 257
 747 65 l 257
 747 0 l 257
 745 0 l 258
 711 2 651 28 651 178 c 256
 651 306 700 349 746 352 c 258
 748 352 l 257
EndSplineSet
PickledDataWithLists: "(dp1
S'com.fontlab.hintData'
p2
(dp3
S'vhints'
p4
(lp5
(dp6
S'position'
p7
I26
sS'width'
p8
I68
sa(dp9
g7
I178
sg8
I68
sa(dp10
g7
I393
sg8
I68
sa(dp11
g7
I546
sg8
I68
sa(dp12
g7
I651
sg8
I68
sa(dp13
g7
I804
sg8
I68
sasS'hhints'
p14
(lp15
(dp16
g7
I0
sg8
I65
sa(dp17
g7
I287
sg8
I65
sa(dp18
g7
I680
sg8
I20
sass."
Layer: 2
Layer: 3
EndChar

StartChar: uni2039
Encoding: 330 8249 330
GlifName: uni2039
Width: 338
VWidth: 0
Flags: W
VStem: 26 286<79 292>
LayerCount: 4
Back
Fore
SplineSet
157 500 m 257
 312 500 l 257
 181 292 l 257
 312 79 l 257
 157 79 l 257
 26 292 l 257
 157 500 l 257
EndSplineSet
PickledDataWithLists: "(dp1
S'com.fontlab.hintData'
p2
(dp3
S'vhints'
p4
(lp5
(dp6
S'position'
p7
I26
sS'width'
p8
I286
sass."
Layer: 2
Layer: 3
EndChar

StartChar: uni203A
Encoding: 331 8250 331
GlifName: uni203A_
Width: 338
VWidth: 0
Flags: W
VStem: 26 286<79 292 292 500>
LayerCount: 4
Back
Fore
SplineSet
181 500 m 257
 312 292 l 257
 181 79 l 257
 26 79 l 257
 157 292 l 257
 26 500 l 257
 181 500 l 257
EndSplineSet
PickledDataWithLists: "(dp1
S'com.fontlab.hintData'
p2
(dp3
S'vhints'
p4
(lp5
(dp6
S'position'
p7
I26
sS'width'
p8
I286
sass."
Layer: 2
Layer: 3
EndChar

StartChar: uni2044
Encoding: 332 8260 332
GlifName: uni2044
Width: 560
VWidth: 0
Flags: W
HStem: 682 20<458 534 534 534>
LayerCount: 4
Back
Fore
SplineSet
26 -2 m 257
 458 702 l 257
 534 702 l 257
 109 -2 l 257
 26 -2 l 257
EndSplineSet
PickledDataWithLists: "(dp1
S'com.fontlab.hintData'
p2
(dp3
S'hhints'
p4
(lp5
(dp6
S'position'
p7
I682
sS'width'
p8
I20
sass."
Layer: 2
Layer: 3
EndChar

StartChar: uni20AC
Encoding: 333 8364 333
GlifName: uni20A_C_
Width: 567
VWidth: 0
Flags: W
HStem: 258 59<50 99 50 99 236 408> 376 60<236 408> 558 140<278 278 278 338>
VStem: 99 137<182 202 202 258 178.5 258 317 376 436 488> 381 136<182 186 171 199 514 518>
LayerCount: 4
Back
Fore
SplineSet
278 698 m 257
 278 558 l 257
 239 543 236 532 236 488 c 258
 236 436 l 257
 408 436 l 257
 408 376 l 257
 236 376 l 257
 236 317 l 257
 408 317 l 257
 408 258 l 257
 236 258 l 257
 236 202 l 258
 236 155 254 154 278 141 c 257
 278 2 l 257
 197 8 168 45 134 90 c 256
 113 118 101 149 99 182 c 258
 99 258 l 257
 50 258 l 257
 50 317 l 257
 99 317 l 257
 99 377 l 257
 50 377 l 257
 50 436 l 257
 99 436 l 257
 99 496 l 258
 99 540 106 576 134 613 c 256
 172 666 217 696 278 698 c 257
338 698 m 257
 387 697 426 675 464 636 c 256
 501 598 517 544 517 514 c 257
 380 463 l 257
 381 501 l 258
 381 535 366 549 338 558 c 257
 338 698 l 257
338 2 m 257
 338 142 l 257
 366 151 381 165 381 199 c 258
 380 237 l 257
 517 186 l 257
 517 156 501 102 464 64 c 256
 426 25 387 3 338 2 c 257
EndSplineSet
PickledDataWithLists: "(dp1
S'com.fontlab.hintData'
p2
(dp3
S'vhints'
p4
(lp5
(dp6
S'position'
p7
I99
sS'width'
p8
I137
sa(dp9
g7
I381
sg8
I136
sasS'hhints'
p10
(lp11
(dp12
g7
I258
sg8
I59
sa(dp13
g7
I376
sg8
I60
sa(dp14
g7
I558
sg8
I140
sass."
Layer: 2
Layer: 3
EndChar

StartChar: uni2113
Encoding: 334 8467 334
GlifName: uni2113
Width: 184
VWidth: 0
Flags: W
HStem: 680 20<25 156 156 156>
VStem: 25 131<193 700 193 700>
LayerCount: 4
Back
Fore
SplineSet
212 -5 m 257
 152 -5 25 49 25 193 c 258
 25 700 l 257
 156 700 l 257
 156 193 l 257
 157 147 207 137 212 137 c 257
 212 -5 l 257
EndSplineSet
PickledDataWithLists: "(dp1
S'com.fontlab.hintData'
p2
(dp3
S'vhints'
p4
(lp5
(dp6
S'position'
p7
I25
sS'width'
p8
I131
sasS'hhints'
p9
(lp10
(dp11
g7
I680
sg8
I20
sass."
Layer: 2
Layer: 3
EndChar

StartChar: uni2122
Encoding: 335 8482 335
GlifName: uni2122
Width: 403
VWidth: 0
Flags: W
HStem: 653 47<26 72 26 165 120 165 120 120>
VStem: 72 48<484 653 484 653> 188 48<484 522 484 628> 330 47<484 700 484 700>
LayerCount: 4
Back
Fore
SplineSet
188 484 m 257
 188 628 l 257
 191 628 l 257
 236 522 l 257
 236 484 l 257
 188 484 l 257
188 700 m 257
 225 700 l 257
 281 564 l 257
 313 636 l 257
 317 636 l 257
 317 529 l 257
 298 484 l 257
 265 484 l 257
 188 669 l 257
 188 700 l 257
330 700 m 257
 377 700 l 257
 377 484 l 257
 330 484 l 257
 330 700 l 257
165 700 m 257
 165 653 l 257
 120 653 l 257
 120 484 l 257
 72 484 l 257
 72 653 l 257
 26 653 l 257
 26 700 l 257
 165 700 l 257
EndSplineSet
PickledDataWithLists: "(dp1
S'com.fontlab.hintData'
p2
(dp3
S'vhints'
p4
(lp5
(dp6
S'position'
p7
I72
sS'width'
p8
I48
sa(dp9
g7
I188
sg8
I48
sa(dp10
g7
I330
sg8
I47
sasS'hhints'
p11
(lp12
(dp13
g7
I653
sg8
I47
sass."
Layer: 2
Layer: 3
EndChar

StartChar: uni2126
Encoding: 336 8486 336
GlifName: uni2126
Width: 420
VWidth: 0
Flags: W
LayerCount: 4
Back
Fore
SplineSet
28 376 m 258
 28 421 79 516 186 516 c 258
 192 516 l 257
 192 398 l 257
 186 398 l 258
 153 398 148 373 148 363 c 258
 148 154 l 258
 148 135 156 117 186 117 c 258
 192 117 l 257
 192 -1 l 257
 13 -1 l 257
 13 62 l 257
 60 62 l 257
 38 90 28 121 28 141 c 258
 28 376 l 258
407 62 m 257
 407 -1 l 257
 233 -1 l 257
 233 117 l 257
 239 117 l 258
 270 118 275 141 275 152 c 258
 275 363 l 258
 275 380 269 398 239 398 c 258
 233 398 l 257
 233 516 l 257
 239 516 l 258
 342 516 392 421 392 376 c 258
 392 141 l 258
 392 121 382 90 362 62 c 257
 407 62 l 257
EndSplineSet
Layer: 2
Layer: 3
EndChar

StartChar: uni212E
Encoding: 337 8494 337
GlifName: uni212E_
Width: 472
VWidth: 0
Flags: W
LayerCount: 4
Back
Fore
SplineSet
240 402 m 258
 236 402 l 257
 236 516 l 257
 242 516 l 258
 312 516 416 450 416 378 c 258
 416 212 l 257
 115 212 l 257
 115 141 l 258
 115 124 155 109 183 108 c 258
 188 108 l 257
 188 0 l 257
 183 0 l 258
 79 0 -3 61 -3 141 c 258
 -3 377 l 257
 -3 440 80 516 182 516 c 258
 187 516 l 257
 187 400 l 257
 184 400 l 258
 155 400 115 401 115 369 c 258
 115 324 l 257
 302 324 l 257
 302 369 l 258
 302 396 260 402 240 402 c 258
236 0 m 257
 236 111 l 257
 242 111 l 258
 273 113 313 132 317 153 c 258
 318 157 l 257
 417 120 l 257
 416 118 l 256
 401 54 312 0 242 0 c 258
 236 0 l 257
EndSplineSet
Layer: 2
Layer: 3
EndChar

StartChar: uni2202
Encoding: 338 8706 338
GlifName: uni2202
Width: 420
VWidth: 0
Flags: W
LayerCount: 4
Back
Fore
SplineSet
70 647 m 257
 70 714 l 257
 189 714 276 695 330 641 c 256
 396 575 392 512 392 442 c 258
 392 376 l 257
 392 364 l 257
 392 141 l 258
 392 96 343 -1 239 -1 c 258
 233 -1 l 257
 233 117 l 257
 239 117 l 258
 270 118 275 141 275 152 c 258
 275 363 l 258
 275 380 269 398 239 398 c 258
 233 398 l 257
 233 516 l 257
 239 516 l 258
 251 516 262 515 273 512 c 257
 273 594 182 647 70 647 c 257
28 376 m 258
 28 421 79 516 186 516 c 258
 192 516 l 257
 192 398 l 257
 186 398 l 258
 153 398 148 373 148 363 c 258
 148 154 l 258
 148 135 156 117 186 117 c 258
 192 117 l 257
 192 -1 l 257
 186 -1 l 258
 78 -1 28 97 28 141 c 258
 28 376 l 258
EndSplineSet
Layer: 2
Layer: 3
EndChar

StartChar: uni2206
Encoding: 339 8710 339
GlifName: uni2206
Width: 414
VWidth: 0
Flags: W
LayerCount: 4
Back
Fore
SplineSet
113 97 m 257
 206 459 l 257
 299 97 l 257
 113 97 l 257
419 0 m 257
 238 706 l 257
 174 706 l 257
 -8 0 l 257
 419 0 l 257
EndSplineSet
Layer: 2
Layer: 3
EndChar

StartChar: uni220F
Encoding: 340 8719 340
GlifName: uni220F_
Width: 458
VWidth: 0
Flags: W
LayerCount: 4
Back
Fore
SplineSet
327 598 m 257
 327 -140 l 257
 423 -140 l 257
 423 598 l 257
 456 598 l 257
 456 694 l 257
 2 694 l 257
 2 598 l 257
 35 598 l 257
 35 -140 l 257
 131 -140 l 257
 131 598 l 257
 327 598 l 257
EndSplineSet
Layer: 2
Layer: 3
EndChar

StartChar: uni2211
Encoding: 341 8721 341
GlifName: uni2211
Width: 676
VWidth: 0
Flags: W
LayerCount: 4
Back
Fore
SplineSet
496 703 m 257
 136 703 l 257
 136 694 l 257
 219 591 l 257
 496 591 l 257
 496 703 l 257
-2 703 m 257
 -2 593 l 257
 230 310 l 257
 -1 27 l 257
 -1 17 l 257
 144 17 l 257
 353 261 l 257
 353 358 l 257
 68 703 l 257
 -2 703 l 257
-2 -28 m 257
 -2 -140 l 257
 496 -140 l 257
 496 -28 l 257
 -2 -28 l 257
EndSplineSet
Layer: 2
Layer: 3
EndChar

StartChar: uni221A
Encoding: 345 8730 345
GlifName: uni221A_
Width: 560
VWidth: 0
Flags: W
LayerCount: 4
Back
Fore
SplineSet
117 494 m 257
 22 461 l 257
 6 513 l 257
 181 575 l 257
 359 133 l 257
 488 819 l 257
 554 819 l 257
 403 -2 l 257
 316 -2 l 257
 117 494 l 257
EndSplineSet
Layer: 2
Layer: 3
EndChar

StartChar: uni221E
Encoding: 346 8734 346
GlifName: uni221E_
Width: 420
VWidth: 0
Flags: W
LayerCount: 4
Back
Fore
SplineSet
437 425 m 258
 437 474 492 579 610 579 c 258
 616 579 l 257
 616 449 l 257
 610 449 l 258
 574 449 568 422 568 411 c 257
 568 181 l 257
 568 161 577 141 610 141 c 258
 616 141 l 257
 616 11 l 257
 610 11 l 258
 491 11 437 119 437 167 c 258
 437 425 l 258
661 449 m 257
 661 579 l 257
 668 579 l 258
 781 579 836 474 836 425 c 258
 836 167 l 258
 836 118 782 11 668 11 c 258
 661 11 l 257
 661 141 l 257
 668 141 l 258
 702 142 708 167 708 179 c 257
 708 411 l 257
 708 429 701 449 668 449 c 258
 661 449 l 257
28 409 m 258
 28 454 79 549 186 549 c 258
 192 549 l 257
 192 431 l 257
 186 431 l 258
 153 431 148 406 148 396 c 257
 148 187 l 257
 148 168 156 150 186 150 c 258
 192 150 l 257
 192 32 l 257
 186 32 l 258
 78 32 28 130 28 174 c 258
 28 409 l 258
233 431 m 257
 233 549 l 257
 239 549 l 258
 342 549 392 454 392 409 c 258
 392 174 l 258
 392 129 343 32 239 32 c 258
 233 32 l 257
 233 150 l 257
 239 150 l 258
 270 151 275 174 275 185 c 257
 275 396 l 257
 275 413 269 431 239 431 c 258
 233 431 l 257
EndSplineSet
Layer: 2
Layer: 3
EndChar

StartChar: uni222B
Encoding: 347 8747 347
GlifName: uni222B_
Width: 285
VWidth: 0
Flags: W
HStem: -205 65<1 3.5 1 31> 754 65<279.5 282>
VStem: 98 89<-59.5 625 -3 625>
LayerCount: 4
Back
Fore
SplineSet
1 -205 m 257
 61 -205 187 -147 187 -3 c 258
 187 625 l 258
 187 744 277 754 282 754 c 257
 282 819 l 257
 222 819 98 769 98 625 c 258
 98 -3 l 257
 98 -116 6 -140 1 -140 c 257
 1 -205 l 257
EndSplineSet
PickledDataWithLists: "(dp1
S'com.fontlab.hintData'
p2
(dp3
S'vhints'
p4
(lp5
(dp6
S'position'
p7
I98
sS'width'
p8
I89
sasS'hhints'
p9
(lp10
(dp11
g7
I-205
sg8
I65
sa(dp12
g7
I754
sg8
I65
sass."
Layer: 2
Layer: 3
EndChar

StartChar: uni2248
Encoding: 348 8776 348
GlifName: uni2248
Width: 568
VWidth: 0
Flags: W
LayerCount: 4
Back
Fore
SplineSet
518 173 m 257
 462 139 418 127 381 127 c 256
 289 127 239 200 157 200 c 256
 127 200 92 191 50 164 c 257
 50 297 l 257
 95 323 132 332 163 332 c 256
 250 332 299 259 387 259 c 256
 422 259 464 271 518 304 c 257
 518 173 l 257
518 411 m 257
 462 377 418 365 381 365 c 256
 289 365 239 438 157 438 c 256
 127 438 92 429 50 402 c 257
 50 535 l 257
 95 561 132 570 163 570 c 256
 250 570 299 497 387 497 c 256
 422 497 464 509 518 542 c 257
 518 411 l 257
EndSplineSet
Layer: 2
Layer: 3
EndChar

StartChar: uni2264
Encoding: 350 8804 350
GlifName: uni2264
Width: 414
VWidth: 0
Flags: W
LayerCount: 4
Back
Fore
SplineSet
434 -123 m 257
 -16 -123 l 257
 -16 -16 l 257
 434 -16 l 257
 434 -123 l 257
384 567 m 257
 384 437 l 257
 208 359 l 257
 384 273 l 257
 384 146 l 257
 30 325 l 257
 30 389 l 257
 384 567 l 257
EndSplineSet
Layer: 2
Layer: 3
EndChar

StartChar: uni2265
Encoding: 351 8805 351
GlifName: uni2265
Width: 414
VWidth: 0
Flags: W
HStem: -123 107<-16 434 -16 434>
LayerCount: 4
Back
Fore
SplineSet
30 567 m 257
 30 437 l 257
 206 359 l 257
 30 273 l 257
 30 146 l 257
 384 325 l 257
 384 389 l 257
 30 567 l 257
434 -123 m 257
 -16 -123 l 257
 -16 -16 l 257
 434 -16 l 257
 434 -123 l 257
EndSplineSet
PickledDataWithLists: "(dp1
S'com.fontlab.hintData'
p2
(dp3
S'hhints'
p4
(lp5
(dp6
S'position'
p7
I-123
sS'width'
p8
I107
sass."
Layer: 2
Layer: 3
EndChar

StartChar: uni25CA
Encoding: 352 9674 352
GlifName: uni25C_A_
Width: 414
VWidth: 0
Flags: W
LayerCount: 4
Back
Fore
SplineSet
291 352 m 257
 205 528 l 257
 127 352 l 257
 205 176 l 257
 291 352 l 257
-3 352 m 257
 175 706 l 257
 239 706 l 257
 418 352 l 257
 239 -2 l 257
 175 -2 l 257
 -3 352 l 257
291 352 m 257
 205 528 l 257
 127 352 l 257
 205 176 l 257
 291 352 l 257
-3 352 m 257
 175 706 l 257
 239 706 l 257
 418 352 l 257
 239 -2 l 257
 175 -2 l 257
 -3 352 l 257
EndSplineSet
Layer: 2
Layer: 3
EndChar

StartChar: uniFB01
Encoding: 353 64257 353
GlifName: uniF_B_01
Width: 494
VWidth: 0
Flags: W
HStem: 0 21<89 211 89 89 335 457 335 335> 0 21<89 211 89 89 335 457 335 335> 400 116<26 89 26 89 211 335> 558 145<375 415> 579 117<244 277 244 244>
VStem: 89 122<0 400 0 400 516 552> 322 146<610.5 650> 335 122<0 400 400 400>
LayerCount: 4
Back
Fore
SplineSet
468 630 m 256x36
 468 591 435 558 395 558 c 256
 355 558 322 591 322 630 c 256
 322 670 355 703 395 703 c 256
 435 703 468 670 468 630 c 256x36
89 552 m 258
 89 597 140 695 243 696 c 258
 304 696 l 257
 277 579 l 257
 244 579 l 258
 216 578 211 555 211 552 c 258
 211 516 l 257
 457 516 l 257
 457 0 l 257
 335 0 l 257
 335 400 l 257
 211 400 l 257
 211 0 l 257
 89 0 l 257xad
 89 400 l 257
 26 400 l 257
 26 516 l 257
 89 516 l 257
 89 552 l 258
EndSplineSet
PickledDataWithLists: "(dp1
S'com.fontlab.hintData'
p2
(dp3
S'vhints'
p4
(lp5
(dp6
S'position'
p7
I89
sS'width'
p8
I122
sa(dp9
g7
I322
sg8
I146
sa(dp10
g7
I335
sg8
I122
sasS'hhints'
p11
(lp12
(dp13
g7
I0
sg8
I21
sa(dp14
g7
I0
sg8
I21
sa(dp15
g7
I400
sg8
I116
sa(dp16
g7
I558
sg8
I145
sa(dp17
g7
I579
sg8
I117
sass."
Layer: 2
Layer: 3
EndChar

StartChar: uniFB02
Encoding: 354 64258 354
GlifName: uniF_B_02
Width: 483
VWidth: 0
Flags: W
HStem: 0 21<89 211 89 89 331 457 331 331> 0 21<89 211 89 89 331 457 331 331> 400 116<26 89 26 89> 579 117<244 331 244 244>
VStem: 89 122<0 400 0 400 516 552> 331 126<0 579 579 579>
LayerCount: 4
Back
Fore
SplineSet
457 0 m 257xbc
 331 0 l 257
 331 579 l 257
 244 579 l 258
 216 578 211 555 211 552 c 258
 211 515 l 257
 277 516 l 257
 277 400 l 257
 211 400 l 257
 211 0 l 257
 89 0 l 257
 89 400 l 257
 26 400 l 257
 26 516 l 257
 89 516 l 257
 89 552 l 258
 89 597 140 695 243 696 c 258
 457 696 l 257
 457 0 l 257xbc
EndSplineSet
PickledDataWithLists: "(dp1
S'com.fontlab.hintData'
p2
(dp3
S'vhints'
p4
(lp5
(dp6
S'position'
p7
I89
sS'width'
p8
I122
sa(dp9
g7
I331
sg8
I126
sasS'hhints'
p10
(lp11
(dp12
g7
I0
sg8
I21
sa(dp13
g7
I0
sg8
I21
sa(dp14
g7
I400
sg8
I116
sa(dp15
g7
I579
sg8
I117
sass."
Layer: 2
Layer: 3
EndChar

StartChar: si_Kha
Encoding: 355 3483 355
Width: 623
VWidth: 0
Flags: W
HStem: 0 140<175.44 215 398.183 507.735> 314 138<172.647 256.194> 616.5 138.5<205.506 258.667 315 408.859>
VStem: 35 132<148.617 306.002> 262 135<-65 8 192 308.025> 387 10<0 222> 457 140<143.438 565.18>
LayerCount: 4
Back
Fore
SplineSet
258.666992188 616.5 m 5xf2
 258.666992188 755 l 5
 155.077148438 755 48 672.125976562 48 566 c 261
 185 530 l 261
 185 595.735351562 221.301757812 616.5 258.666992188 616.5 c 5xf2
428 140 m 256
 457 140 457 156 457 200 c 258
 457 478 l 258
 457 610 374 616.5 315 616.5 c 256
 315 755 l 256
 463 754 597 710 597 491 c 258
 597 262 l 258
 597 78 560 0 453 0 c 256
 438.100585938 0 387 0 387 14 c 1
 387 222 l 1xf6
 397 222 l 1
 397 192 l 2xfa
 397 155 397.206054688 140 428 140 c 256
262 8 m 257xfa
 262 251 l 256
 262.030273438 280.508789062 261 314 215 314 c 256
 174 314 167 291 167 251 c 256
 167 202 l 0
 167 166 171.263671875 140 216 140 c 257
 215 0 l 257
 63 0 35 92 35 189 c 256
 35 273 l 0
 35.015625 396.71875 117.911132812 452 234 452 c 256
 298 452 397 423 397 290 c 258
 397 -65 l 1
 262 -65 l 1
 262 8 l 257xfa
EndSplineSet
Layer: 2
SplineSet
258.666992188 616.5 m 5
 258.666992188 755 l 5
 155.077148438 755 48 672.125976562 48 566 c 261
 185 530 l 261
 185 595.735351562 221.301757812 616.5 258.666992188 616.5 c 5
315 755 m 260
 459 754 597 713 597 491 c 262
 597 252 l 262
 597 68 556 -7 412 -7 c 260
 319 -7 262 40 262 138 c 260
 262 253 l 260
 262 279 260 314 217 314 c 260
 169 314 167 287 167 243 c 260
 166.916992188 193 l 4
 167 151 185.45703125 140 216 140 c 261
 215 0 l 261
 95.10546875 0 35 55 35 187 c 4
 35 270 l 260
 35 389 108 452 234 452 c 260
 298 452 397 423 397 290 c 260
 397 191 l 260
 397 158 397 140 426 140 c 260
 457 140 457 154 457 191 c 262
 457 478 l 262
 457 612 371 616.5 315 616.5 c 260
 315 755 l 260
EndSplineSet
Layer: 3
EndChar
